<svg width="135" height="49" viewBox="0 0 135 49" fill="none" xmlns="http://www.w3.org/2000/svg">
<g clip-path="url(#clip0_145_339)">
<path d="M80.67 33.0954C80.2352 33.421 79.884 33.8454 79.6455 34.3335C79.071 35.5514 79.6733 36.3328 79.1198 37.2615C78.5319 38.2497 77.0746 38.6672 76.6954 38.3033C76.4139 38.0333 76.6763 37.2817 76.8314 36.9628C77.0033 36.611 77.2682 36.313 77.5974 36.101C77.2359 36.216 76.9009 36.4019 76.6121 36.6478C75.8145 37.3324 76.0376 37.9538 75.3769 38.5532C75.0897 38.8165 75.0743 38.6681 73.0731 39.3671C72.1501 39.6898 71.882 39.8152 71.59 40.0718C71.2157 40.4132 70.9183 40.8304 70.7177 41.2955C70.4304 41.9285 70.5377 42.1573 70.2791 42.6102C70.0305 43.0244 69.6637 43.3549 69.2259 43.5591C69.511 43.2554 69.7516 42.9127 69.9402 42.5413C70.3423 41.7456 70.2169 41.3702 70.4783 40.7402C70.7655 40.0479 71.2769 39.6716 72.2976 38.9209C73.5519 37.9979 74.001 38.0591 74.3083 37.4243C74.6664 36.6813 74.1657 36.3711 74.4242 35.4643C74.699 34.5068 75.5301 33.9208 76.8055 33.0265C77.876 32.2758 78.4725 32.0977 78.7646 31.3556C78.9139 30.9502 78.9471 30.5111 78.8603 30.0879C78.7962 30.1645 78.4687 30.5389 77.9631 30.5513C77.3714 30.5657 76.9175 30.0726 76.7663 29.6196C76.5039 28.8297 77.1406 28.1049 77.245 27.9919C77.6931 27.4825 77.9823 27.6635 78.7234 27.1426C79.5536 26.5585 79.9682 25.7829 80.1721 25.398C80.3982 24.9652 80.5653 24.504 80.6691 24.0268C79.5287 25.3329 78.4161 25.9936 77.5792 26.3565C76.3766 26.8783 75.6259 26.8352 74.8024 27.6568C74.2605 28.1968 74.0287 28.7713 73.5969 29.8418C72.9822 31.3662 73.2244 31.5988 72.6279 32.699C72.0055 33.848 71.3238 34.3622 71.0911 34.5269C70.7523 34.7677 70.3822 34.961 69.9909 35.1014C69.4127 36.0037 69.0219 37.0132 68.8419 38.0697C69.0034 35.52 69.7819 33.0477 71.1102 30.8654C71.9275 29.5375 72.9434 28.3427 74.1226 27.3226C75.0533 26.5154 75.6326 26.0146 76.1831 25.5684C76.1831 25.5684 78.9781 23.302 81.0435 20.1489C83.2074 16.8445 83.6709 13.5766 83.9859 11.3484C84.4757 7.84966 84.2743 4.28878 83.3932 0.867529C83.3028 3.74785 82.9684 6.61533 82.3936 9.43916C81.5318 13.6522 80.5494 15.6687 79.4071 15.9282C79.2443 15.9656 78.5645 16.1197 78.1623 15.7453C77.9459 15.5452 77.8415 15.2235 77.854 14.6394C77.8818 13.3832 78.4199 12.2456 78.9226 11.4384C77.1751 13.0451 76.4675 14.5733 76.1458 15.6821C75.6479 17.398 76.0883 18.0606 75.4114 20.2064C75.0638 21.3065 74.6128 22.6787 73.3786 23.8669C72.4808 24.7189 71.3707 25.3141 70.1642 25.5905C71.5271 25.0705 72.6816 24.1175 73.4504 22.8778C72.8491 23.053 72.2736 23.1919 71.7269 23.301C70.4821 23.55 69.9727 23.5308 69.2737 23.8755C68.7694 24.1291 68.3225 24.4837 67.961 24.9173C67.735 28.9523 67.5754 32.9875 67.4822 37.0231V48.8733C67.5043 48.8264 67.5292 48.7775 67.5569 48.7258C67.6586 48.5421 67.7907 48.377 67.9476 48.2375C68.276 47.9502 68.4934 47.979 68.7395 47.7817C69.2067 47.4064 68.9568 46.8692 69.2307 45.9873C69.5514 44.9523 70.3174 44.328 70.9092 43.8454C71.047 43.7334 71.8906 43.0459 72.0678 43.2077C72.2133 43.3408 71.905 44.0359 71.4578 44.5549C70.8335 45.2788 70.371 45.1581 69.8052 45.8131C69.2948 46.4048 68.9664 47.3221 69.2383 47.6046C69.5102 47.887 70.4505 47.5328 71.0576 47.0444C71.7939 46.4565 71.6388 46.0218 72.219 45.6953C73.0712 45.2165 73.6859 45.9931 74.6128 45.5383C75.5205 45.0949 75.847 43.9105 75.8576 43.8645C76.0127 43.2747 75.8576 42.9645 76.1132 42.3325C76.263 41.9645 76.4861 41.6309 76.7691 41.352C76.3382 41.5074 75.9608 41.7829 75.6814 42.1458C75.2984 42.6686 75.3836 43.0679 75.0207 43.2805C74.5889 43.5332 73.8133 43.3484 73.6084 42.8898C73.4035 42.4311 73.8497 41.871 74.0871 41.577C74.2786 41.3396 74.7344 40.8417 75.9849 40.3849C77.2354 39.9282 77.3743 40.2136 78.2437 39.7999C78.6267 39.617 79.6982 39.1086 80.0237 38.085C80.1195 37.7776 80.1041 37.3736 80.0687 36.5654C80.0247 35.5361 79.9031 35.3628 79.95 34.8496C79.9921 34.4158 80.1424 33.8078 80.67 33.0954Z" fill="url(#paint0_linear_145_339)"/>
<path d="M67.0063 24.9115C66.6447 24.4779 66.1979 24.1233 65.6935 23.8697C64.9945 23.526 64.4871 23.5451 63.2404 23.2952C62.6946 23.186 62.1191 23.0472 61.5169 22.872C61.8371 23.3861 62.2252 23.8547 62.6707 24.2652C63.2917 24.8362 64.0157 25.2839 64.804 25.5846C63.5975 25.3082 62.4874 24.713 61.5896 23.8611C60.3554 22.6728 59.9044 21.3007 59.5568 20.2005C58.8808 18.0605 59.3213 17.4017 58.8234 15.6782C58.5017 14.5694 57.7941 13.0412 56.0466 11.4345C56.5493 12.2398 57.0874 13.3792 57.1152 14.6355C57.1276 15.2196 57.0194 15.5413 56.8069 15.7414C56.4009 16.1167 55.721 15.9616 55.5621 15.9243C54.4198 15.6648 53.4364 13.6483 52.5747 9.43523C52.0007 6.61129 51.6666 3.74386 51.576 0.863602C50.6956 4.28068 50.4929 7.83709 50.9794 11.3321C51.2954 13.5602 51.7589 16.8282 53.9228 20.1325C55.9882 23.2856 58.7822 25.552 58.7822 25.552C59.3337 25.9982 59.913 26.499 60.8437 27.3062C62.0226 28.3266 63.0385 29.5214 63.8561 30.849C65.1844 33.0313 65.9629 35.5036 66.1244 38.0533C65.9901 37.2792 65.7434 36.5288 65.3919 35.8261C65.2649 35.5729 65.1243 35.3268 64.9706 35.0889C64.5798 34.9482 64.2099 34.755 63.8714 34.5143C63.6387 34.3497 62.9569 33.8336 62.3346 32.6865C61.738 31.5863 61.9803 31.3536 61.3656 29.8293C60.9337 28.7588 60.702 28.1842 60.1601 27.6442C59.3395 26.8255 58.5888 26.8658 57.3833 26.3439C56.5464 25.981 55.4338 25.3203 54.2934 24.0143C54.3971 24.4915 54.5643 24.9526 54.7903 25.3854C54.9924 25.7684 55.4089 26.5459 56.239 27.13C56.9802 27.6509 57.2693 27.4699 57.7174 27.9793C57.8199 28.0952 58.4566 28.82 58.1962 29.6071C58.0449 30.061 57.5911 30.5531 56.9993 30.5388C56.4937 30.5263 56.1663 30.1558 56.1021 30.0753C56.0149 30.4985 56.048 30.9378 56.1979 31.3431C56.4851 32.0851 57.0855 32.2632 58.1569 33.0139C59.4324 33.9082 60.2635 34.4914 60.5383 35.4518C60.7958 36.3576 60.2951 36.6687 60.6541 37.4118C60.9615 38.0485 61.4096 37.9863 62.6649 38.9084C63.6875 39.66 64.1969 40.0363 64.4842 40.7276C64.7456 41.3577 64.6201 41.733 65.0223 42.5287C65.2109 42.9002 65.4514 43.2429 65.7366 43.5465C65.2987 43.3424 64.9319 43.0119 64.6833 42.5977C64.4248 42.1409 64.5292 41.9159 64.2448 41.283C64.0438 40.818 63.7465 40.401 63.3725 40.0593C63.0853 39.8027 62.8124 39.6763 61.8893 39.3546C59.8872 38.6556 59.8785 38.804 59.5856 38.5407C58.9268 37.9413 59.148 37.3199 58.3504 36.6352C58.0615 36.3893 57.7266 36.2035 57.3651 36.0885C57.6943 36.3005 57.9592 36.5985 58.1311 36.9503C58.2862 37.272 58.5476 38.0236 58.2661 38.2908C57.8879 38.6546 56.4296 38.2372 55.8417 37.249C55.2882 36.3202 55.8953 35.5389 55.317 34.3209C55.0785 33.8328 54.7273 33.4085 54.2924 33.0829C54.8191 33.7953 54.9704 34.4033 55.0096 34.8313C55.0565 35.3445 54.9349 35.5178 54.8899 36.5471C54.8555 37.3553 54.8382 37.7593 54.9359 38.0667C55.2614 39.0903 56.331 39.5987 56.7159 39.7816C57.5853 40.1953 57.7127 39.9051 58.9747 40.3666C60.2367 40.8282 60.6819 41.3242 60.8715 41.5588C61.107 41.8527 61.5532 42.4119 61.3502 42.8715C61.1473 43.3311 60.3698 43.5149 59.9379 43.2622C59.575 43.0496 59.6622 42.6503 59.2763 42.1275C58.9974 41.7644 58.6202 41.489 58.1895 41.3337C58.4725 41.6126 58.6957 41.9462 58.8454 42.3142C59.0972 42.9462 58.9411 43.2564 59.1001 43.8462C59.1135 43.8951 59.44 45.0766 60.3449 45.52C61.2756 45.9748 61.8903 45.1973 62.7386 45.677C63.3189 46.0035 63.1638 46.443 63.9001 47.0261C64.5091 47.5145 65.4407 47.8764 65.7194 47.5863C65.998 47.2962 65.6638 46.3865 65.1535 45.7948C64.5876 45.1398 64.1251 45.2605 63.5008 44.5366C63.0527 44.0176 62.7444 43.3225 62.8909 43.1894C63.068 43.0276 63.9116 43.7151 64.0495 43.8271C64.6412 44.3058 65.4072 44.934 65.728 45.969C66.0018 46.8509 65.7519 47.3881 66.2192 47.7634C66.4653 47.9607 66.6826 47.931 67.011 48.2192C67.168 48.3587 67.3001 48.5238 67.4017 48.7075C67.4295 48.7583 67.4544 48.8081 67.4764 48.855V37.0173C67.3883 32.9817 67.2316 28.9464 67.0063 24.9115Z" fill="#F7FFFC"/>
<path d="M55.903 28.1996L56.8605 28.3049C55.0987 27.3474 53.828 25.5856 53.2018 23.6715C52.7413 22.262 52.568 20.709 51.6794 19.5197C51.0197 18.6388 50.0411 18.0634 49.1238 17.4525C48.2065 16.8416 47.2882 16.1225 46.8689 15.1037C46.8316 15.3824 46.8786 15.6658 47.0039 15.9176C47.8656 17.7943 49.5891 19.1109 50.8942 20.7176C51.193 21.0862 51.4745 21.4836 51.6258 21.9269C51.7771 22.3702 51.7857 22.8911 51.553 23.3038C51.3203 23.7165 50.8167 23.9894 50.358 23.8697C49.8324 23.7318 49.5432 23.1774 49.3651 22.6652C49.187 22.1529 49.028 21.5832 48.5847 21.2701C48.704 21.4846 48.8049 21.7088 48.8863 21.9403C49.0306 22.35 49.1132 22.7789 49.1315 23.2129C49.3919 24.6702 49.975 25.3433 50.4547 25.6899C51.5022 26.4454 52.3372 26.0586 53.5188 26.9136C53.965 27.2363 54.3039 27.7084 54.7999 27.9506C55.1465 28.1144 55.5295 28.1584 55.903 28.1996Z" fill="#F7FFFC"/>
<path d="M84.0634 20.7196C85.3647 19.1129 87.0892 17.7963 87.9538 15.9196C88.079 15.6679 88.126 15.3844 88.0888 15.1057C87.6694 16.1226 86.7483 16.8407 85.8339 17.4526C84.9194 18.0644 83.938 18.6389 83.2783 19.5198C82.3897 20.7091 82.2164 22.2621 81.7558 23.6716C81.1296 25.5866 79.859 27.3465 78.0972 28.305L79.0547 28.1997C79.431 28.1585 79.8149 28.1144 80.1539 27.9488C80.6499 27.7065 80.9889 27.2345 81.4351 26.9118C82.6195 26.0567 83.4554 26.4436 84.4991 25.6881C84.9778 25.3415 85.5619 24.6684 85.8214 23.211C85.8405 22.7771 85.9234 22.3483 86.0675 21.9385C86.1489 21.707 86.2498 21.4827 86.3691 21.2682C85.9258 21.5814 85.7659 22.1501 85.5878 22.6633C85.4097 23.1766 85.1215 23.73 84.5958 23.8679C84.1372 23.9876 83.6325 23.7147 83.4008 23.302C83.1691 22.8893 83.1768 22.3742 83.328 21.9251C83.4793 21.476 83.7675 21.0882 84.0634 20.7196Z" fill="url(#paint1_linear_145_339)"/>
</g>
<path d="M20.208 20.4167C21.2498 20.2719 22.2915 20.1995 23.3332 20.1995L23.4279 20.1271C31.8563 19.6203 38.4853 15.5656 38.4853 10.5697C38.4853 5.28419 30.9093 0.939927 21.6286 0.939927L6.3817 0.867523H0.889038V47.7856C3.91947 47.7856 6.3817 45.9031 6.3817 43.5861V33.3771C6.3817 28.526 9.88563 24.3265 14.9048 22.0096L35.0761 47.7856H42.1787L20.208 20.4167ZM19.4504 19.5479L19.0716 19.6927C13.3896 20.9959 8.74922 23.8921 6.3817 27.7296V2.31561H21.6286C28.0682 2.89485 33.0874 6.37026 33.0874 10.5697C33.0874 14.7692 28.0682 18.6066 21.6286 19.1858V19.2582C20.8709 19.3306 20.208 19.4755 19.5451 19.6203L19.4504 19.5479Z" fill="#F7FFFC"/>
<path d="M128.423 0.867523V32.1387C127.843 43.629 121.174 46.6107 113.055 46.6107C104.937 46.6107 98.2677 43.629 97.6878 32.2114V0.867523H92.1787V32.1387C92.8553 44.3562 101.94 47.9197 113.055 47.9197C124.073 47.9197 133.159 44.3562 133.932 32.2114V0.867523H128.423Z" fill="#F7FFFC"/>
<defs>
<linearGradient id="paint0_linear_145_339" x1="67.4871" y1="24.8721" x2="84.25" y2="24.8721" gradientUnits="userSpaceOnUse">
<stop stop-color="#7B051E"/>
<stop offset="0.51" stop-color="#BF0A30"/>
<stop offset="0.97" stop-color="#7B051E"/>
</linearGradient>
<linearGradient id="paint1_linear_145_339" x1="78.1" y1="21.7058" x2="88.1032" y2="21.7058" gradientUnits="userSpaceOnUse">
<stop stop-color="#7B051E"/>
<stop offset="0.51" stop-color="#BF0A30"/>
<stop offset="0.97" stop-color="#7B051E"/>
</linearGradient>
<clipPath id="clip0_145_339">
<rect width="42" height="49" fill="white" transform="translate(46.1787)"/>
</clipPath>
</defs>
</svg>
