<svg width="133" height="49" viewBox="0 0 133 49" fill="none" xmlns="http://www.w3.org/2000/svg">
<g clip-path="url(#clip0_180_1379)">
<path d="M79.4915 33.0954C79.0566 33.421 78.7055 33.8454 78.467 34.3335C77.8925 35.5514 78.4947 36.3328 77.9413 37.2615C77.3534 38.2497 75.896 38.6672 75.5169 38.3033C75.2354 38.0333 75.4977 37.2816 75.6528 36.9628C75.8248 36.611 76.0897 36.313 76.4188 36.101C76.0574 36.216 75.7224 36.4019 75.4336 36.6478C74.636 37.3324 74.8591 37.9538 74.1984 38.5532C73.9111 38.8165 73.8958 38.6681 71.8946 39.3671C70.9716 39.6898 70.7035 39.8152 70.4114 40.0718C70.0371 40.4132 69.7398 40.8304 69.5391 41.2955C69.2519 41.9284 69.3591 42.1573 69.1006 42.6102C68.852 43.0244 68.4852 43.3549 68.0473 43.5591C68.3325 43.2554 68.573 42.9127 68.7616 42.5413C69.1638 41.7456 69.0384 41.3702 69.2998 40.7402C69.587 40.0479 70.0983 39.6716 71.119 38.9209C72.3734 37.9979 72.8224 38.0591 73.1298 37.4243C73.4879 36.6813 72.9871 36.3711 73.2457 35.4643C73.5205 34.5068 74.3516 33.9208 75.627 33.0265C76.6975 32.2758 77.294 32.0977 77.5861 31.3556C77.7354 30.9502 77.7686 30.5111 77.6818 30.0879C77.6177 30.1645 77.2902 30.5389 76.7846 30.5513C76.1929 30.5657 75.739 30.0725 75.5877 29.6196C75.3254 28.8297 75.9621 28.1049 76.0665 27.9919C76.5146 27.4825 76.8038 27.6635 77.5449 27.1426C78.375 26.5585 78.7896 25.7829 78.9936 25.398C79.2197 24.9652 79.3868 24.504 79.4906 24.0268C78.3502 25.3329 77.2375 25.9936 76.4007 26.3565C75.198 26.8783 74.4473 26.8352 73.6239 27.6567C73.0819 28.1968 72.8502 28.7713 72.4184 29.8418C71.8037 31.3662 72.0459 31.5988 71.4494 32.699C70.827 33.848 70.1452 34.3622 69.9126 34.5269C69.5738 34.7677 69.2036 34.961 68.8124 35.1014C68.2342 36.0037 67.8434 37.0132 67.6634 38.0697C67.8249 35.52 68.6033 33.0477 69.9317 30.8654C70.749 29.5375 71.7649 28.3427 72.944 27.3226C73.8747 26.5154 74.454 26.0146 75.0046 25.5684C75.0046 25.5684 77.7996 23.302 79.8649 20.1489C82.0289 16.8445 82.4923 13.5766 82.8074 11.3484C83.2972 7.84966 83.0958 4.28877 82.2147 0.867523C82.1243 3.74785 81.7899 6.61533 81.215 9.43916C80.3533 13.6522 79.3709 15.6687 78.2285 15.9282C78.0658 15.9655 77.3859 16.1197 76.9838 15.7453C76.7674 15.5452 76.663 15.2235 76.6755 14.6394C76.7032 13.3831 77.2414 12.2456 77.744 11.4384C75.9966 13.0451 75.289 14.5733 74.9673 15.6821C74.4694 17.398 74.9098 18.0606 74.2329 20.2064C73.8853 21.3065 73.4343 22.6787 72.2001 23.8669C71.3022 24.7188 70.1921 25.3141 68.9857 25.5904C70.3486 25.0705 71.5031 24.1175 72.2719 22.8778C71.6706 23.053 71.0951 23.1919 70.5484 23.301C69.3036 23.55 68.7942 23.5308 68.0952 23.8755C67.5908 24.1291 67.144 24.4837 66.7825 24.9173C66.5565 28.9523 66.3969 32.9875 66.3037 37.0231V48.8733C66.3257 48.8264 66.3506 48.7775 66.3784 48.7258C66.48 48.5421 66.6121 48.377 66.7691 48.2375C67.0975 47.9502 67.3148 47.979 67.5609 47.7817C68.0282 47.4064 67.7783 46.8692 68.0521 45.9873C68.3729 44.9523 69.1389 44.328 69.7306 43.8454C69.8685 43.7334 70.7121 43.0459 70.8892 43.2077C71.0348 43.3408 70.7264 44.0359 70.2793 44.5549C69.655 45.2788 69.1925 45.1581 68.6266 45.8131C68.1163 46.4048 67.7878 47.3221 68.0598 47.6046C68.3317 47.887 69.272 47.5327 69.8791 47.0444C70.6154 46.4565 70.4603 46.0218 71.0405 45.6953C71.8927 45.2165 72.5074 45.9931 73.4343 45.5383C74.342 45.0949 74.6685 43.9105 74.6791 43.8645C74.8342 43.2747 74.6791 42.9645 74.9347 42.3325C75.0844 41.9645 75.3076 41.6309 75.5906 41.352C75.1597 41.5074 74.7823 41.7829 74.5029 42.1458C74.1199 42.6686 74.2051 43.0679 73.8422 43.2805C73.4104 43.5332 72.6348 43.3484 72.4299 42.8898C72.225 42.4311 72.6712 41.871 72.9086 41.577C73.1001 41.3396 73.5559 40.8417 74.8064 40.3849C76.0569 39.9282 76.1957 40.2135 77.0652 39.7999C77.4482 39.617 78.5196 39.1086 78.8452 38.085C78.9409 37.7776 78.9256 37.3736 78.8902 36.5654C78.8461 35.5361 78.7245 35.3628 78.7715 34.8496C78.8136 34.4158 78.9639 33.8078 79.4915 33.0954Z" fill="url(#paint0_linear_180_1379)"/>
<path d="M65.8275 24.9113C65.466 24.4778 65.0192 24.1232 64.5148 23.8696C63.8158 23.5258 63.3083 23.545 62.0617 23.2951C61.5159 23.1859 60.9404 23.0471 60.3381 22.8718C60.6584 23.3859 61.0465 23.8545 61.4919 24.265C62.113 24.836 62.837 25.2838 63.6253 25.5845C62.4188 25.3081 61.3087 24.7129 60.4109 23.8609C59.1767 22.6727 58.7257 21.3006 58.3781 20.2004C57.7021 18.0603 58.1426 17.4016 57.6447 15.6781C57.3229 14.5693 56.6153 13.0411 54.8679 11.4344C55.3706 12.2396 55.9087 13.3791 55.9365 14.6353C55.9489 15.2194 55.8407 15.5411 55.6281 15.7413C55.2222 16.1166 54.5423 15.9615 54.3834 15.9241C53.2411 15.6647 52.2577 13.6481 51.396 9.43509C50.822 6.61114 50.4879 3.74372 50.3973 0.863459C49.5169 4.28054 49.3142 7.83695 49.8007 11.3319C50.1167 13.56 50.5801 16.828 52.7441 20.1324C54.8095 23.2855 57.6035 25.5519 57.6035 25.5519C58.155 25.9981 58.7343 26.4989 59.665 27.3061C60.8439 28.3265 61.8598 29.5212 62.6773 30.8488C64.0057 33.0312 64.7841 35.5035 64.9457 38.0532C64.8114 37.279 64.5646 36.5287 64.2132 35.826C64.0862 35.5728 63.9456 35.3266 63.7919 35.0887C63.401 34.9481 63.0312 34.7548 62.6927 34.5142C62.46 34.3495 61.7782 33.8334 61.1559 32.6863C60.5593 31.5861 60.8016 31.3535 60.1869 29.8291C59.755 28.7586 59.5233 28.1841 58.9813 27.6441C58.1608 26.8254 57.4101 26.8656 56.2046 26.3438C55.3677 25.9809 54.2551 25.3202 53.1147 24.0141C53.2184 24.4913 53.3855 24.9525 53.6116 25.3853C53.8137 25.7683 54.2302 26.5458 55.0603 27.1299C55.8015 27.6508 56.0906 27.4698 56.5387 27.9792C56.6412 28.0951 57.2779 28.8199 57.0175 29.607C56.8662 30.0608 56.4123 30.553 55.8206 30.5386C55.315 30.5262 54.9876 30.1556 54.9234 30.0752C54.8362 30.4984 54.8693 30.9376 55.0192 31.3429C55.3064 32.085 55.9068 32.2631 56.9782 33.0138C58.2536 33.9081 59.0848 34.4912 59.3596 35.4516C59.6171 36.3574 59.1164 36.6686 59.4754 37.4116C59.7828 38.0484 60.2309 37.9861 61.4862 38.9082C62.5088 39.6599 63.0182 40.0362 63.3055 40.7275C63.5669 41.3575 63.4414 41.7329 63.8436 42.5286C64.0322 42.9 64.2727 43.2427 64.5579 43.5464C64.12 43.3422 63.7532 43.0118 63.5046 42.5975C63.2461 42.1408 63.3505 41.9158 63.0661 41.2828C62.8651 40.8179 62.5678 40.4008 62.1938 40.0591C61.9065 39.8025 61.6337 39.6761 60.7106 39.3544C58.7085 38.6554 58.6998 38.8039 58.4068 38.5405C57.7481 37.9411 57.9693 37.3197 57.1717 36.6351C56.8828 36.3892 56.5479 36.2033 56.1864 36.0884C56.5155 36.3003 56.7804 36.5984 56.9524 36.9501C57.1075 37.2718 57.3689 38.0235 57.0874 38.2906C56.7092 38.6545 55.2509 38.237 54.663 37.2489C54.1095 36.3201 54.7166 35.5387 54.1383 34.3208C53.8998 33.8327 53.5486 33.4083 53.1137 33.0827C53.6404 33.7951 53.7916 34.4031 53.8309 34.8311C53.8778 35.3444 53.7562 35.5177 53.7112 36.547C53.6767 37.3551 53.6595 37.7592 53.7572 38.0666C54.0827 39.0901 55.1523 39.5986 55.5372 39.7815C56.4066 40.1951 56.5339 39.905 57.7959 40.3665C59.0579 40.828 59.5032 41.324 59.6928 41.5586C59.9283 41.8526 60.3745 42.4118 60.1715 42.8714C59.9685 43.331 59.191 43.5148 58.7592 43.262C58.3963 43.0494 58.4834 42.6502 58.0976 42.1274C57.8187 41.7643 57.4415 41.4888 57.0108 41.3336C57.2938 41.6125 57.517 41.9461 57.6667 42.3141C57.9185 42.946 57.7624 43.2563 57.9214 43.8461C57.9348 43.8949 58.2613 45.0765 59.1661 45.5198C60.0968 45.9746 60.7116 45.1972 61.5599 45.6769C62.1402 46.0034 61.9851 46.4429 62.7214 47.026C63.3304 47.5143 64.262 47.8763 64.5407 47.5861C64.8193 47.296 64.4851 46.3864 63.9748 45.7946C63.4089 45.1397 62.9464 45.2603 62.3221 44.5365C61.874 44.0175 61.5657 43.3223 61.7122 43.1892C61.8893 43.0274 62.7329 43.7149 62.8708 43.8269C63.4625 44.3057 64.2285 44.9338 64.5493 45.9689C64.8231 46.8508 64.5732 47.3879 65.0405 47.7633C65.2866 47.9605 65.5039 47.9308 65.8323 48.219C65.9893 48.3585 66.1214 48.5237 66.223 48.7074C66.2508 48.7581 66.2757 48.8079 66.2977 48.8548V37.0171C66.2096 32.9815 66.0529 28.9463 65.8275 24.9113Z" fill="#262626"/>
<path d="M54.7243 28.1994L55.6818 28.3047C53.92 27.3472 52.6493 25.5854 52.0231 23.6714C51.5626 22.2619 51.3892 20.7088 50.5007 19.5196C49.841 18.6387 48.8624 18.0632 47.9451 17.4523C47.0278 16.8414 46.1095 16.1223 45.6901 15.1036C45.6529 15.3822 45.6999 15.6657 45.8252 15.9174C46.6869 17.7942 48.4104 19.1107 49.7155 20.7174C50.0143 21.0861 50.2958 21.4834 50.4471 21.9268C50.5983 22.3701 50.607 22.891 50.3743 23.3037C50.1416 23.7164 49.638 23.9893 49.1793 23.8696C48.6536 23.7317 48.3645 23.1773 48.1864 22.665C48.0083 22.1527 47.8493 21.583 47.406 21.2699C47.5253 21.4844 47.6262 21.7086 47.7076 21.9402C47.8519 22.3499 47.9345 22.7787 47.9527 23.2127C48.2132 24.67 48.7963 25.3432 49.276 25.6898C50.3235 26.4453 51.1585 26.0584 52.3401 26.9135C52.7863 27.2362 53.1252 27.7082 53.6212 27.9505C53.9678 28.1142 54.3508 28.1583 54.7243 28.1994Z" fill="#262626"/>
<path d="M82.8852 20.7196C84.1865 19.1129 85.9109 17.7963 86.7756 15.9196C86.9008 15.6678 86.9478 15.3844 86.9106 15.1057C86.4912 16.1226 85.5701 16.8407 84.6556 17.4526C83.7412 18.0644 82.7598 18.6389 82.1 19.5198C81.2115 20.709 81.0382 22.2621 80.5776 23.6716C79.9514 25.5866 78.6808 27.3465 76.9189 28.305L77.8765 28.1997C78.2528 28.1585 78.6367 28.1144 78.9757 27.9488C79.4717 27.7065 79.8106 27.2345 80.2568 26.9118C81.4413 26.0567 82.2772 26.4436 83.3209 25.6881C83.7996 25.3415 84.3837 24.6684 84.6432 23.211C84.6623 22.7771 84.7452 22.3483 84.8893 21.9385C84.9707 21.7069 85.0716 21.4827 85.1909 21.2682C84.7475 21.5813 84.5877 22.1501 84.4096 22.6633C84.2315 23.1766 83.9432 23.73 83.4176 23.8679C82.9589 23.9876 82.4543 23.7147 82.2226 23.302C81.9909 22.8893 81.9985 22.3742 82.1498 21.9251C82.3011 21.476 82.5893 21.0882 82.8852 20.7196Z" fill="url(#paint1_linear_180_1379)"/>
<path d="M82.8852 20.7196C84.1865 19.1129 85.9109 17.7963 86.7756 15.9196C86.9008 15.6678 86.9478 15.3844 86.9106 15.1057C86.4912 16.1226 85.5701 16.8407 84.6556 17.4526C83.7412 18.0644 82.7598 18.6389 82.1 19.5198C81.2115 20.709 81.0382 22.2621 80.5776 23.6716C79.9514 25.5866 78.6808 27.3465 76.9189 28.305L77.8765 28.1997C78.2528 28.1585 78.6367 28.1144 78.9757 27.9488C79.4717 27.7065 79.8106 27.2345 80.2568 26.9118C81.4413 26.0567 82.2772 26.4436 83.3209 25.6881C83.7996 25.3415 84.3837 24.6684 84.6432 23.211C84.6623 22.7771 84.7452 22.3483 84.8893 21.9385C84.9707 21.7069 85.0716 21.4827 85.1909 21.2682C84.7475 21.5813 84.5877 22.1501 84.4096 22.6633C84.2315 23.1766 83.9432 23.73 83.4176 23.8679C82.9589 23.9876 82.4543 23.7147 82.2226 23.302C81.9909 22.8893 81.9985 22.3742 82.1498 21.9251C82.3011 21.476 82.5893 21.0882 82.8852 20.7196Z" fill="url(#paint2_linear_180_1379)"/>
</g>
<path d="M19.7077 20.4167C20.7494 20.2719 21.7911 20.1995 22.8328 20.1995L22.9275 20.1271C31.3559 19.6203 37.985 15.5656 37.985 10.5697C37.985 5.28419 30.4089 0.939927 21.1282 0.939927L5.88133 0.867523H0.388672V47.7856C3.4191 47.7856 5.88133 45.9031 5.88133 43.5861V33.3771C5.88133 28.526 9.38527 24.3265 14.4044 22.0096L34.5757 47.7856H41.6783L19.7077 20.4167ZM18.9501 19.5479L18.5713 19.6927C12.8892 20.9959 8.24885 23.8921 5.88133 27.7296V2.31561H21.1282C27.5679 2.89485 32.587 6.37026 32.587 10.5697C32.587 14.7692 27.5679 18.6066 21.1282 19.1858V19.2582C20.3706 19.3306 19.7077 19.4755 19.0448 19.6203L18.9501 19.5479Z" fill="#262626"/>
<path d="M127.169 0.867523V32.1387C126.589 43.629 119.92 46.6107 111.801 46.6107C103.683 46.6107 97.0138 43.629 96.4339 32.2114V0.867523H90.9248V32.1387C91.6014 44.3562 100.687 47.9197 111.801 47.9197C122.82 47.9197 131.905 44.3562 132.678 32.2114V0.867523H127.169Z" fill="#262626"/>
<defs>
<linearGradient id="paint0_linear_180_1379" x1="66.3085" y1="24.8721" x2="83.0715" y2="24.8721" gradientUnits="userSpaceOnUse">
<stop stop-color="#7B051E"/>
<stop offset="0.51" stop-color="#BF0A30"/>
<stop offset="0.97" stop-color="#7B051E"/>
</linearGradient>
<linearGradient id="paint1_linear_180_1379" x1="76.9218" y1="21.7058" x2="86.9249" y2="21.7058" gradientUnits="userSpaceOnUse">
<stop stop-color="#006838"/>
<stop offset="0.51" stop-color="#8BCA83"/>
<stop offset="0.97" stop-color="#006838"/>
</linearGradient>
<linearGradient id="paint2_linear_180_1379" x1="76.9218" y1="21.7058" x2="86.9249" y2="21.7058" gradientUnits="userSpaceOnUse">
<stop stop-color="#7B051E"/>
<stop offset="0.51" stop-color="#BF0A30"/>
<stop offset="0.97" stop-color="#7B051E"/>
</linearGradient>
<clipPath id="clip0_180_1379">
<rect width="41.2457" height="48" fill="white" transform="translate(45.6787 0.867523)"/>
</clipPath>
</defs>
</svg>
