<svg width="49" height="48" viewBox="0 0 49 48" fill="none" xmlns="http://www.w3.org/2000/svg">
<g clip-path="url(#clip0_98_711)">
<path d="M18.9082 28.0432C19.0657 27.8845 19.2101 27.7393 19.3127 27.6366C19.4389 27.5103 19.5144 27.3381 19.5199 27.1639C19.5231 27.0602 19.5034 26.9129 19.3909 26.8004C19.1889 26.5985 18.7982 26.635 18.5546 26.8786L18.1475 27.2858C18.3046 27.4422 18.4427 27.5798 18.5271 27.6642C18.6234 27.7605 18.7591 27.8954 18.9082 28.0432Z" fill="#BF0A30"/>
<path d="M26.7808 23.1949L27.2848 22.6907L26.3691 22.2769L26.7808 23.1949Z" fill="#BF0A30"/>
<path d="M12.897 33.4191C13.0187 33.2974 13.0187 33.0995 12.897 32.9777C12.7754 32.8561 12.5773 32.856 12.4556 32.9777L11.9141 33.5193L12.3568 33.962C12.5817 33.7355 12.7865 33.5296 12.897 33.4191Z" fill="#BF0A30"/>
<path d="M15.1725 35.1559L14.3613 35.9671L15.2202 36.8261C15.5498 36.494 15.8719 36.17 16.0292 36.0126C16.2654 35.7764 16.2654 35.3921 16.0292 35.1559C15.793 34.9197 15.4087 34.9197 15.1725 35.1559Z" fill="#BF0A30"/>
<path d="M40.8743 11.0007C41.5907 10.2588 41.1343 9.14979 40.3642 8.37968C39.8901 7.9056 38.6822 6.90847 37.7068 7.88358L37.25 8.34037C37.836 8.92437 39.8404 10.9234 40.403 11.4827C40.588 11.2946 40.759 11.12 40.8743 11.0007Z" fill="#BF0A30"/>
<path d="M46.3813 0H34.3748C33.7437 0 33.1504 0.245738 32.704 0.692036L1.43627 31.9598C0.989973 32.4061 0.744141 32.9995 0.744141 33.6307C0.744141 34.2618 0.989973 34.8552 1.43627 35.3014L13.4427 47.3079C13.889 47.7542 14.4824 48 15.1135 48C15.7446 48 16.338 47.7542 16.7843 47.3079L48.0523 16.04C48.4985 15.5937 48.7442 15.0003 48.7442 14.3693V2.36287C48.7441 1.05998 47.6842 0 46.3813 0ZM34.8699 19.19C35.4235 19.7435 35.4235 20.6412 34.8699 21.1949C34.593 21.4717 34.2302 21.6102 33.8675 21.6102C33.5047 21.6102 33.1418 21.4718 32.865 21.1949L27.5593 15.8891C27.1205 15.4504 27.0181 14.7774 27.3063 14.2279C27.5946 13.6785 28.2062 13.3802 28.817 13.4921L33.3914 14.3293L31.2344 12.2136C30.6753 11.6653 30.6667 10.7677 31.215 10.2087C31.7633 9.64966 32.6608 9.64096 33.2198 10.1893L38.406 15.2762C38.4093 15.2794 38.4126 15.2826 38.4158 15.2858C38.9172 15.7872 39.0451 16.5228 38.7341 17.1162C38.4274 17.7014 37.7666 18.0117 37.0897 17.8887L32.7802 17.1L34.8699 19.19ZM28.2658 26.5076C28.5862 27.222 28.2666 28.0609 27.5522 28.3812C27.3638 28.4657 27.1668 28.5057 26.973 28.5057C26.4315 28.5057 25.9144 28.1938 25.6785 27.6676L22.4337 20.4308C22.429 20.4204 22.4244 20.4098 22.4199 20.3992C22.1698 19.8025 22.3034 19.1211 22.7605 18.663C23.2174 18.205 23.8986 18.0702 24.4959 18.3192C24.5086 18.3245 24.5214 18.3301 24.534 18.3357L31.753 21.5989C32.4665 21.9213 32.7834 22.7612 32.4609 23.4747C32.1383 24.1882 31.2986 24.5051 30.5851 24.1826L30.0461 23.9389L28.0218 25.9634L28.2658 26.5076ZM22.4561 31.6037C23.0098 32.1574 23.0098 33.055 22.4561 33.6086C22.1793 33.8855 21.8165 34.0239 21.4537 34.0239C21.091 34.0239 20.728 33.8856 20.4513 33.6086L15.1356 28.2929C14.6149 27.7723 14.5842 26.9474 15.043 26.3906C15.0441 26.3892 15.0453 26.388 15.0465 26.3867C15.0745 26.3528 16.5499 24.8737 16.5499 24.8737C17.9074 23.5161 20.0815 23.481 21.396 24.7954C22.043 25.4425 22.3833 26.315 22.3541 27.2522C22.3442 27.569 22.2914 27.8789 22.2005 28.1758L24.418 28.3172C25.1993 28.367 25.7924 29.0409 25.7426 29.8223C25.6948 30.5729 25.0709 31.1498 24.3291 31.1498C24.2988 31.1498 21.8472 30.9946 21.8472 30.9946L22.4561 31.6037ZM18.0345 38.0176C17.6436 38.4085 16.2318 39.833 16.2316 39.8331C15.9661 40.1009 15.6049 40.252 15.2277 40.2528C15.2267 40.2528 15.2257 40.2528 15.2246 40.2528C14.8487 40.2528 14.4881 40.1035 14.2222 39.8375L8.90652 34.5218C8.35285 33.9682 8.35285 33.0706 8.90652 32.5169L10.4506 30.9728C11.6778 29.7456 13.6746 29.7455 14.9019 30.9728C15.244 31.315 15.4906 31.7171 15.6419 32.1456C16.5096 32.1557 17.3741 32.4903 18.0345 33.1509C19.3763 34.4927 19.3763 36.6758 18.0345 38.0176ZM34.2431 9.34627C33.9764 9.08059 33.8263 8.71973 33.826 8.34328C33.8256 7.96683 33.975 7.60568 34.2413 7.33944L35.7023 5.87843C37.5188 4.06167 40.2606 4.26573 42.3695 6.37454C44.4075 8.41265 44.6366 11.1865 42.9143 12.9701C42.503 13.396 41.4629 14.4442 41.4188 14.4886C41.1539 14.7555 40.7939 14.9063 40.4178 14.9077C40.4161 14.9077 40.4143 14.9077 40.4126 14.9077C40.0384 14.9077 39.6793 14.7598 39.4138 14.4961C39.3949 14.4774 34.2431 9.34627 34.2431 9.34627Z" fill="#BF0A30"/>
</g>
<defs>
<clipPath id="clip0_98_711">
<rect width="48" height="48" fill="white" transform="translate(0.744141)"/>
</clipPath>
</defs>
</svg>
