<svg width="49" height="48" viewBox="0 0 49 48" fill="none" xmlns="http://www.w3.org/2000/svg">
<g clip-path="url(#clip0_98_726)">
<path d="M9.52313 5.18164C7.77431 5.18164 6.35156 6.60392 6.35156 8.35198C6.35156 10.1 7.77431 11.5223 9.52313 11.5223C11.2733 11.5223 12.6973 10.1 12.6973 8.35198C12.6973 6.60392 11.2733 5.18164 9.52313 5.18164ZM9.52313 9.63158C8.81691 9.63158 8.24241 9.05755 8.24241 8.35198C8.24241 7.64642 8.81691 7.07248 9.52313 7.07248C10.2308 7.07248 10.8066 7.64652 10.8066 8.35208C10.8066 9.05764 10.2308 9.63158 9.52313 9.63158Z" fill="#BF0A30"/>
<path d="M37.2548 5.18164H28.8708C27.122 5.18164 25.6992 6.60392 25.6992 8.35198C25.6992 10.1 27.122 11.5223 28.8708 11.5223H37.2548C39.0036 11.5223 40.4263 10.1 40.4263 8.35198C40.4263 6.60392 39.0036 5.18164 37.2548 5.18164ZM37.2548 9.63158H28.8708C28.1646 9.63158 27.5901 9.05755 27.5901 8.35198C27.5901 7.64642 28.1647 7.07239 28.8708 7.07239H37.2548C37.961 7.07239 38.5355 7.64642 38.5355 8.35198C38.5355 9.05755 37.961 9.63158 37.2548 9.63158Z" fill="#BF0A30"/>
<path d="M17.7429 5.18164C15.994 5.18164 14.5713 6.60392 14.5713 8.35198C14.5713 10.1 15.994 11.5223 17.7429 11.5223C19.4931 11.5223 20.917 10.1 20.917 8.35198C20.917 6.60392 19.4931 5.18164 17.7429 5.18164ZM17.7429 9.63158C17.0366 9.63158 16.4621 9.05755 16.4621 8.35198C16.4621 7.64642 17.0367 7.07239 17.7429 7.07239C18.4505 7.07239 19.0263 7.64642 19.0263 8.35198C19.0263 9.05755 18.4505 9.63158 17.7429 9.63158Z" fill="#BF0A30"/>
<path d="M16.2011 20.8541C15.6934 20.7325 15.1831 21.0459 15.0618 21.5538L13.1863 29.4024C13.0649 29.9102 13.3782 30.4203 13.886 30.5416C13.9599 30.5593 14.0338 30.5678 14.1066 30.5678C14.534 30.5678 14.9216 30.2759 15.0253 29.8419L16.9008 21.9933C17.0222 21.4855 16.7089 20.9755 16.2011 20.8541Z" fill="#BF0A30"/>
<path d="M19.6721 29.6193C19.8523 29.7798 20.0769 29.8587 20.3006 29.8587C20.561 29.8587 20.8202 29.7519 21.007 29.5421L23.6581 26.5661C24.0955 26.0792 24.0955 25.3166 23.6608 24.8328L21.0069 21.8537C20.6595 21.4637 20.0619 21.4294 19.6721 21.7765C19.2821 22.1239 19.2476 22.7215 19.595 23.1114L21.8991 25.6978L19.595 28.2844C19.2477 28.6744 19.2822 29.272 19.6721 29.6193Z" fill="#BF0A30"/>
<path d="M10.4151 21.7765C10.0251 21.4292 9.42759 21.464 9.08024 21.8537L6.42946 24.8294C5.99146 25.3164 5.99146 26.0794 6.42646 26.563L9.08034 29.5421C9.26718 29.7519 9.52631 29.8587 9.78674 29.8587C10.0104 29.8587 10.2351 29.7798 10.4152 29.6193C10.8052 29.2719 10.8397 28.6743 10.4924 28.2845L8.18831 25.698L10.4924 23.1114C10.8396 22.7214 10.8051 22.1238 10.4151 21.7765Z" fill="#BF0A30"/>
<path d="M46.6324 31.831H46.2814C46.0975 31.2355 45.8593 30.6606 45.5687 30.1113L45.8192 29.8599C46.2192 29.4623 46.44 28.9314 46.4408 28.365C46.4417 27.7972 46.2216 27.2642 45.8211 26.8638L45.3331 26.376V6.23848C45.3331 3.41857 43.3431 1.12451 40.897 1.12451H5.18802C2.74189 1.12451 0.751953 3.41857 0.751953 6.23848V32.6622C0.751953 35.4821 2.74189 37.7762 5.18802 37.7762H10.7348C11.2569 37.7762 11.6802 37.3529 11.6802 36.8308C11.6802 36.3087 11.2569 35.8854 10.7348 35.8854H5.18802C3.80839 35.8854 2.6428 34.4093 2.6428 32.6623V15.5104H43.4421V25.0639C43.3344 25.0474 43.2253 25.0365 43.1142 25.0365C43.1131 25.0365 43.112 25.0365 43.1109 25.0365C42.5445 25.0374 42.0136 25.2579 41.6191 25.6546L41.3635 25.909C40.8026 25.6127 40.2184 25.3716 39.6161 25.1876V24.8509C39.6161 23.6824 38.6653 22.7318 37.4965 22.7318H35.7857C34.6184 22.7318 33.6688 23.6824 33.6688 24.8509V25.2107C33.0778 25.3964 32.5071 25.6354 31.9617 25.9256L31.7168 25.6815C31.3191 25.2818 30.7881 25.0611 30.2217 25.0603C30.2207 25.0603 30.2196 25.0603 30.2185 25.0603C29.652 25.0603 29.12 25.2801 28.7204 25.6795L27.5117 26.8877C27.1112 27.288 26.8911 27.8211 26.892 28.3888C26.8928 28.9552 27.1135 29.4861 27.5105 29.8806L27.7716 30.1425C27.4882 30.6834 27.2555 31.2477 27.0754 31.8308H26.7163C25.5489 31.8308 24.5993 32.7801 24.5993 33.9471V35.6597C24.5993 35.7358 24.6035 35.811 24.6114 35.885H19.1106C18.5885 35.885 18.1653 36.3083 18.1653 36.8304C18.1653 37.3525 18.5885 37.7758 19.1106 37.7758H26.7162H27.0789C27.2617 38.3644 27.4981 38.9332 27.7864 39.4777L27.5309 39.7321C26.7084 40.5589 26.7092 41.9014 27.5329 42.7244L28.7422 43.9333C29.1399 44.3329 29.6709 44.5536 30.2374 44.5545H30.2405C30.8071 44.5545 31.339 44.3346 31.7387 43.9352L31.9919 43.6821C32.5413 43.9717 33.1125 44.2084 33.7005 44.3901V44.756C33.7005 45.9245 34.6501 46.8751 35.8175 46.8751H37.5309C38.6982 46.8751 39.6478 45.9245 39.6478 44.756V44.3924C40.2413 44.2093 40.8149 43.9717 41.3636 43.682L41.6157 43.9332C42.0133 44.3329 42.5442 44.5535 43.1106 44.5545H43.1139C43.6804 44.5545 44.2124 44.3346 44.6128 43.9345L45.8189 42.7264C46.2189 42.3288 46.4397 41.7979 46.4405 41.2314C46.4414 40.6637 46.2214 40.1306 45.8208 39.7302L45.5685 39.478C45.8562 38.933 46.0924 38.3639 46.2749 37.7759H46.6322C47.801 37.7759 48.7518 36.8266 48.7518 35.6597V33.9471C48.7519 32.7803 47.8011 31.831 46.6324 31.831ZM2.6428 13.6195V6.23848C2.6428 4.49145 3.80839 3.01536 5.18802 3.01536H40.897C42.2766 3.01536 43.4422 4.49145 43.4422 6.23848V13.6196L2.6428 13.6195ZM46.8611 35.6599C46.8611 35.7799 46.7542 35.8852 46.6323 35.8852H45.5511C45.1103 35.8852 44.728 36.1898 44.6296 36.6195C44.4254 37.5106 44.0747 38.3556 43.5871 39.1314C43.3522 39.505 43.4071 39.9914 43.7193 40.3033L44.4843 41.0678C44.5414 41.125 44.5499 41.1933 44.5499 41.2289C44.5498 41.2714 44.5387 41.3332 44.4835 41.388L43.2756 42.598C43.2184 42.6552 43.15 42.6638 43.114 42.6638C43.1139 42.6638 43.1138 42.6638 43.1138 42.6638C43.0709 42.6638 43.0089 42.6527 42.9535 42.5969L42.1857 41.8323C41.8734 41.5213 41.388 41.4674 41.0151 41.7018C40.2382 42.1905 39.3896 42.5418 38.4927 42.7459C38.0625 42.8439 37.7571 43.2264 37.7571 43.6678V44.7563C37.7571 44.8778 37.6515 44.9845 37.5311 44.9845H35.8176C35.6972 44.9845 35.5915 44.8779 35.5915 44.7563V43.6651C35.5915 43.2233 35.2855 42.8404 34.8546 42.7429C33.9692 42.5427 33.122 42.192 32.337 41.7007C32.1823 41.6039 32.0085 41.5566 31.8357 41.5566C31.5915 41.5566 31.3494 41.651 31.1671 41.8335L30.4022 42.598C30.3449 42.6552 30.2765 42.6638 30.2405 42.6638C30.2405 42.6638 30.2404 42.6638 30.2403 42.6638C30.1974 42.6638 30.1354 42.6527 30.0811 42.5981L28.8697 41.3873C28.7849 41.3026 28.7858 41.1524 28.8686 41.0691L29.6363 40.3045C29.95 39.9921 30.0049 39.5041 29.7685 39.1298C29.2802 38.3566 28.929 37.5121 28.7246 36.6198C28.6262 36.1901 28.2439 35.8854 27.803 35.8854H26.7164C26.5939 35.8854 26.4903 35.7822 26.4903 35.66V33.9475C26.4903 33.8254 26.5939 33.722 26.7164 33.722H27.8002C28.2415 33.722 28.6242 33.4167 28.7222 32.9865C28.9239 32.0999 29.2706 31.2589 29.7526 30.4865C29.9853 30.1137 29.9303 29.6297 29.6199 29.3184L28.8465 28.5427C28.794 28.4906 28.7829 28.4288 28.7828 28.3863C28.7828 28.3506 28.7913 28.2824 28.8485 28.2253L30.0571 27.0172C30.1144 26.96 30.1827 26.9514 30.2187 26.9514H30.219C30.2618 26.9515 30.3239 26.9626 30.3793 27.0184L31.1417 27.7777C31.4549 28.0896 31.9421 28.1431 32.315 27.9065C33.0875 27.4167 33.9336 27.0619 34.8297 26.8522C35.2572 26.7522 35.5595 26.3708 35.5595 25.9317V24.8511C35.5595 24.7275 35.663 24.6229 35.7856 24.6229H37.4964C37.6205 24.6229 37.7253 24.7275 37.7253 24.8511V25.9158C37.7253 26.3587 38.0328 26.7423 38.4652 26.8385C39.3648 27.0389 40.223 27.3927 41.016 27.8902C41.3886 28.1239 41.8736 28.0699 42.1856 27.7592L42.9565 26.9914C43.0088 26.9388 43.0708 26.9277 43.1136 26.9276H43.1139C43.1499 26.9276 43.2183 26.9362 43.2755 26.9934L44.4842 28.2014C44.5414 28.2586 44.5498 28.3268 44.5498 28.3624C44.5497 28.405 44.5386 28.4668 44.483 28.522L43.7179 29.2894C43.4064 29.6018 43.3524 30.0882 43.5878 30.4613C44.0773 31.2373 44.4294 32.087 44.6345 32.9869C44.7326 33.417 45.1151 33.7221 45.5564 33.7221H46.6323C46.7541 33.7221 46.8611 33.8276 46.8611 33.9476V35.6599Z" fill="#BF0A30"/>
<path d="M36.6761 29.0298C33.4903 29.0298 30.8984 31.6205 30.8984 34.8049C30.8984 37.9878 33.4903 40.5773 36.6761 40.5773C39.8605 40.5773 42.4511 37.9879 42.4511 34.8049C42.4511 31.6206 39.8605 29.0298 36.6761 29.0298ZM36.6761 38.6865C34.5329 38.6865 32.7893 36.9452 32.7893 34.8049C32.7893 32.6631 34.5329 30.9206 36.6761 30.9206C38.8178 30.9206 40.5602 32.6631 40.5602 34.8049C40.5602 36.9452 38.8177 38.6865 36.6761 38.6865Z" fill="#BF0A30"/>
<path d="M14.9512 35.8855H14.9327C14.4106 35.8855 13.9873 36.3088 13.9873 36.8309C13.9873 37.353 14.4106 37.7762 14.9327 37.7762H14.9512C15.4733 37.7762 15.8966 37.353 15.8966 36.8309C15.8966 36.3088 15.4733 35.8855 14.9512 35.8855Z" fill="#BF0A30"/>
</g>
<defs>
<clipPath id="clip0_98_726">
<rect width="48" height="48" fill="white" transform="translate(0.751953)"/>
</clipPath>
</defs>
</svg>
