<svg width="49" height="48" viewBox="0 0 49 48" fill="none" xmlns="http://www.w3.org/2000/svg">
<g clip-path="url(#clip0_98_737)">
<path d="M11.9941 32.3457V38.3416L16.4903 35.3436L11.9941 32.3457Z" fill="#BF0A30"/>
<path d="M0.744141 22.6875V48H26.0566V22.6875H0.744141ZM9.18164 43.5958V27.0917L21.5605 35.3438L9.18164 43.5958Z" fill="#BF0A30"/>
<path d="M29.0566 17.0625V48H48.7441V17.0625H29.0566ZM43.1191 42.375H34.6816V39.5625H43.1191V42.375ZM43.1191 36.75H34.6816V33.9375H43.1191V36.75ZM43.1191 31.125H34.6816V28.3125H43.1191V31.125ZM43.1191 25.5H34.6816V22.6875H43.1191V25.5Z" fill="#BF0A30"/>
<path d="M7.77952 7.85934L10.5879 10.6677L16.2129 5.04272L26.0566 14.8865V0H0.744141V14.8404L7.77952 7.85934Z" fill="#BF0A30"/>
<path d="M16.2129 9.01978L10.5879 14.6448L7.77127 11.8282L0.744141 18.8019V19.6875H26.0566V18.8635L16.2129 9.01978Z" fill="#BF0A30"/>
<path d="M48.7441 14.0625H29.0566V0H48.7441V14.0625Z" fill="#BF0A30"/>
</g>
<defs>
<clipPath id="clip0_98_737">
<rect width="48" height="48" fill="white" transform="translate(0.744141)"/>
</clipPath>
</defs>
</svg>
