<svg width="49" height="48" viewBox="0 0 49 48" fill="none" xmlns="http://www.w3.org/2000/svg">
<g clip-path="url(#clip0_98_723)">
<path d="M29.8066 48H11.9941C5.79089 48 0.744141 42.9532 0.744141 36.75V11.25C0.744141 5.04675 5.79089 0 11.9941 0H37.4941C43.6974 0 48.7441 5.04675 48.7441 11.25V29.2031C48.7441 30.2387 47.9047 31.0781 46.8691 31.0781C45.8336 31.0781 44.9941 30.2387 44.9941 29.2031V11.25C44.9941 7.1145 41.6296 3.75 37.4941 3.75H11.9941C7.85864 3.75 4.49414 7.1145 4.49414 11.25V36.75C4.49414 40.8855 7.85864 44.25 11.9941 44.25H29.8066C30.8422 44.25 31.6816 45.0894 31.6816 46.125C31.6816 47.1606 30.8422 48 29.8066 48ZM39.3691 11.8125C39.3691 10.7769 38.5297 9.9375 37.4941 9.9375H20.3379C19.3023 9.9375 18.4629 10.7769 18.4629 11.8125C18.4629 12.8481 19.3023 13.6875 20.3379 13.6875H37.4941C38.5297 13.6875 39.3691 12.8481 39.3691 11.8125ZM39.3691 19.3125C39.3691 18.2769 38.5297 17.4375 37.4941 17.4375H11.9941C10.9586 17.4375 10.1191 18.2769 10.1191 19.3125C10.1191 20.3481 10.9586 21.1875 11.9941 21.1875H37.4941C38.5297 21.1875 39.3691 20.3481 39.3691 19.3125ZM20.6191 26.8125C20.6191 25.7769 19.7797 24.9375 18.7441 24.9375H11.9941C10.9586 24.9375 10.1191 25.7769 10.1191 26.8125C10.1191 27.8481 10.9586 28.6875 11.9941 28.6875H18.7441C19.7797 28.6875 20.6191 27.8481 20.6191 26.8125ZM10.1191 11.625C10.1191 12.9194 11.1685 13.9688 12.4629 13.9688C13.7573 13.9688 14.8066 12.9194 14.8066 11.625C14.8066 10.3306 13.7573 9.28125 12.4629 9.28125C11.1685 9.28125 10.1191 10.3306 10.1191 11.625ZM46.7397 45.9954C49.408 43.3271 49.408 38.9854 46.7397 36.317L40.167 29.7443C38.2673 27.8446 35.8707 26.5623 33.2364 26.0357L27.9241 24.9739C27.3097 24.8508 26.6741 25.0434 26.2308 25.4867C25.7876 25.93 25.5952 26.5654 25.718 27.1801L26.7798 32.4923C27.3064 35.1267 28.5888 37.5232 30.4884 39.4229L37.0611 45.9955C38.3537 47.2881 40.0724 48 41.9004 48C43.7284 48 45.447 47.2881 46.7397 45.9954ZM32.5014 29.7129C34.4072 30.0938 36.141 31.0215 37.5152 32.3959L44.088 38.9685C45.2942 40.1748 45.2942 42.1375 44.088 43.3438C43.5037 43.9282 42.7267 44.25 41.9004 44.25C41.0741 44.25 40.2971 43.9282 39.7128 43.3438L33.1401 36.7712C31.7658 35.3968 30.8381 33.6631 30.4572 31.7573L29.9465 29.2024L32.5014 29.7129Z" fill="#BF0A30"/>
</g>
<defs>
<clipPath id="clip0_98_723">
<rect width="48" height="48" fill="white" transform="translate(0.744141)"/>
</clipPath>
</defs>
</svg>
