<svg width="49" height="48" viewBox="0 0 49 48" fill="none" xmlns="http://www.w3.org/2000/svg">
<g clip-path="url(#clip0_98_705)">
<path d="M41.505 0H39.4413C38.5341 0 38.5341 1.40645 39.4413 1.40645H41.505C43.6362 1.40645 45.3702 3.13414 45.3702 5.2577V21.5324C45.3702 23.6561 43.6363 25.3838 41.505 25.3838H39.1644C39.01 25.3838 38.8598 25.4346 38.7371 25.5284L34.4422 28.8137V26.087C34.4422 25.6986 34.1274 25.3838 33.7389 25.3838H25.1802C24.4793 25.3838 23.8057 25.1988 23.2116 24.8471V16.9529C23.2116 15.4743 22.4585 14.1679 21.3149 13.395V5.2577C21.3149 3.13414 23.0489 1.40645 25.1802 1.40645H35.0344C35.9415 1.40645 35.9415 0 35.0344 0H25.1802C22.2733 0 19.9084 2.35862 19.9084 5.2577V12.7769C19.5865 12.7 19.251 12.6581 18.9057 12.6581H6.03237C3.65819 12.6581 1.72656 14.5847 1.72656 16.9529V18.4714C1.72656 19.3785 3.13302 19.3785 3.13302 18.4714V16.9529C3.13302 15.3603 4.43361 14.0645 6.03237 14.0645H18.9058C20.5046 14.0645 21.8053 15.3603 21.8053 16.9529V25.127C21.7968 25.1891 21.7972 25.2517 21.8053 25.3133V29.7869C21.8053 29.8753 21.7999 29.9634 21.792 30.0509H20.3417C18.7437 30.0509 17.4115 31.2043 17.1353 32.7202C17.0713 32.7443 17.0099 32.778 16.953 32.8218L13.8077 35.2504V33.3785C13.8077 32.9901 13.493 32.6753 13.1045 32.6753H6.03237C4.43361 32.6753 3.13302 31.3796 3.13302 29.7869V22.6908C3.13302 21.7837 1.72656 21.7837 1.72656 22.6908V29.787C1.72656 32.1552 3.65819 34.0818 6.03237 34.0818H12.4014V36.6819C12.4014 37.246 13.0863 37.5844 13.5344 37.2386L17.0819 34.4995V42.4108C17.0819 44.204 18.5444 45.6628 20.3418 45.6628H24.6573V47.3037C24.6573 47.8676 25.3422 48.2064 25.7902 47.8604L28.6365 45.6628H29.4774C31.2748 45.6628 32.7373 44.2039 32.7373 42.4108V41.1622C32.7373 40.2551 31.3308 40.2551 31.3308 41.1622V42.4108C31.3308 43.4285 30.4994 44.2563 29.4774 44.2563H28.3966C28.241 44.2563 28.0899 44.3079 27.9669 44.4029L26.0636 45.8722V44.9594C26.0636 44.5711 25.7489 44.2562 25.3604 44.2562H20.3417C19.3198 44.2562 18.4883 43.4283 18.4883 42.4107V33.303C18.4883 32.2853 19.3197 31.4575 20.3417 31.4575H29.4774C30.4993 31.4575 31.3308 32.2854 31.3308 33.303V36.7553C31.3308 37.6624 32.7373 37.6624 32.7373 36.7553V33.3031C32.7373 31.5099 31.2748 30.0511 29.4774 30.0511H23.2037C23.209 29.9633 23.2117 26.4114 23.2117 26.4114C23.8318 26.6607 24.4966 26.7903 25.1803 26.7903H33.0358V30.2371C33.0358 30.7997 33.7178 31.1385 34.1663 30.7956L39.4026 26.7903H41.5051C44.4119 26.7903 46.7768 24.4317 46.7768 21.5325V5.2577C46.7767 2.35862 44.4118 0 41.505 0Z" fill="#BF0A30"/>
<path d="M35.1 5.19557C34.2071 4.96763 33.2972 5.67311 33.2972 6.59574C33.2972 7.60379 32.9298 8.57528 32.2633 9.33073L30.3257 11.5232C30.2003 11.3307 29.9835 11.2033 29.7366 11.2033H25.9542C25.5657 11.2033 25.251 11.5181 25.251 11.9065V20.417C25.251 20.8053 25.5657 21.1202 25.9542 21.1202H29.7366C30.0208 21.1202 30.265 20.9513 30.3759 20.7088C31.1417 21.1767 32.0291 21.4297 32.9319 21.4297H39.6165C40.638 21.4297 41.4806 20.5434 41.4327 19.5245C41.4114 19.0733 41.4347 13.015 41.4347 12.8804C41.4347 11.8779 40.619 11.0622 39.6186 11.0622L36.1425 11.0518L36.2864 10.7109C36.9441 9.15324 36.8358 7.34697 35.997 5.87892C35.8013 5.53593 35.4826 5.29337 35.1 5.19557C35.4826 5.29337 34.7173 5.09787 35.1 5.19557C35.4826 5.29337 34.2072 4.96763 35.1 5.19557ZM29.0334 19.7137H26.6574V12.6097H29.0334V19.7137ZM39.6165 12.4685C39.8436 12.4685 40.0283 12.6532 40.0283 12.8803C40.0283 13.0141 40.0269 13.3773 40.025 13.8696C40.0146 16.588 40.0077 19.1626 40.0277 19.5905C40.0351 19.745 39.9599 19.8479 39.9146 19.8955C39.836 19.9779 39.7301 20.0232 39.6165 20.0232H32.9319C32.1351 20.0232 31.3553 19.747 30.7359 19.2457L30.4399 19.006V13.5179L33.3175 10.2616C34.2114 9.24859 34.7037 7.94669 34.7037 6.59565C34.7037 6.55589 34.7579 6.54558 34.7759 6.57652C35.3987 7.66633 35.479 9.00725 34.9908 10.1636L34.4358 11.4781C34.3442 11.695 34.3672 11.9432 34.4969 12.1395C34.6268 12.3359 34.8462 12.4542 35.0814 12.4549L39.6165 12.4685Z" fill="#BF0A30"/>
<path d="M7.74815 24.4251C7.35969 24.4251 7.04492 24.74 7.04492 25.1284C7.04492 25.5167 7.35969 25.8316 7.74815 25.8316H9.82107L9.43383 28.1737C9.37045 28.5568 9.6298 28.9189 10.0129 28.9822C10.0518 28.9887 10.0904 28.9918 10.1284 28.9918C10.4664 28.9918 10.7644 28.7476 10.8214 28.4032L11.2466 25.8317H12.943L12.5558 28.1738C12.4924 28.5569 12.7517 28.919 13.1349 28.9823C13.1738 28.9888 13.2123 28.9919 13.2504 28.9919C13.5883 28.9919 13.8864 28.7476 13.9434 28.4033L14.3685 25.8318H17.1901C17.5786 25.8318 17.8934 25.5169 17.8934 25.1286C17.8934 24.7402 17.5786 24.4253 17.1901 24.4253H14.601L14.8847 22.7098H17.1901C17.5786 22.7098 17.8934 22.395 17.8934 22.0066C17.8934 21.6182 17.5786 21.3034 17.1901 21.3034H15.1172L15.5045 18.9613C15.5678 18.5781 15.3085 18.2161 14.9254 18.1527C14.5418 18.0892 14.1802 18.3487 14.1169 18.7318L13.6917 21.3033H11.9953L12.3825 18.9612C12.4459 18.5781 12.1865 18.216 11.8034 18.1526C11.4194 18.0891 11.0584 18.3486 10.9949 18.7317L10.5698 21.3032H7.74815C7.35969 21.3032 7.04492 21.6181 7.04492 22.0064C7.04492 22.3948 7.35969 22.7096 7.74815 22.7096H10.3372L10.0536 24.4251H7.74815ZM11.7628 22.7096H13.4593L13.1757 24.4251H11.4792L11.7628 22.7096Z" fill="#BF0A30"/>
<path d="M24.9013 35.086C24.3334 34.6185 23.578 34.4341 22.8202 34.6183C21.8491 34.8541 20.8691 35.7619 20.8691 37.2583C20.8691 38.1897 21.209 38.9981 21.9082 39.7298C22.4793 40.3276 23.3035 40.896 24.5804 41.5729C24.6834 41.6276 24.7966 41.6549 24.9098 41.6549C25.023 41.6549 25.1361 41.6276 25.2392 41.5729C27.4668 40.392 28.9503 39.2063 28.9503 37.2583C28.9503 35.7538 27.9356 34.8552 26.9299 34.6322C26.1744 34.4645 25.4419 34.6425 24.9013 35.086ZM27.5438 37.2583C27.5438 38.309 26.8469 39.086 24.9097 40.1524C22.9725 39.086 22.2755 38.3089 22.2755 37.2583C22.2755 36.4765 22.7282 36.088 23.1519 35.985C23.23 35.9661 23.3137 35.9554 23.3996 35.9554C23.7183 35.9554 24.0687 36.1026 24.2848 36.5214C24.4079 36.7598 24.6567 36.9075 24.9237 36.902C25.1917 36.8967 25.4336 36.7393 25.5469 36.4963C25.7745 36.0085 26.253 35.9227 26.6251 36.0053C27.0694 36.1037 27.5438 36.4847 27.5438 37.2583Z" fill="#BF0A30"/>
</g>
<defs>
<clipPath id="clip0_98_705">
<rect width="48" height="48" fill="white" transform="translate(0.251953)"/>
</clipPath>
</defs>
</svg>
