<svg width="49" height="49" viewBox="0 0 49 49" fill="none" xmlns="http://www.w3.org/2000/svg">
<g clip-path="url(#clip0_98_720)">
<path d="M48.134 12.7918C47.7476 12.5303 47.2567 12.4774 46.8234 12.6507L33.6894 17.9042V13.9563C33.6894 11.5198 31.7072 9.5376 29.2707 9.5376H5.17077C2.7343 9.5376 0.751953 11.5198 0.751953 13.9563V35.0439C0.751953 37.4803 2.7343 39.4626 5.17077 39.4626H29.2707C31.7072 39.4626 33.6894 37.4803 33.6894 35.0439V31.096L46.8234 36.3495C46.992 36.4169 47.1692 36.4501 47.3456 36.4501C47.6227 36.4501 47.898 36.3682 48.134 36.2083C48.5205 35.9467 48.752 35.5106 48.752 35.0439V13.9563C48.752 13.4897 48.5205 13.0535 48.134 12.7918ZM30.8769 35.0439C30.8769 35.9295 30.1564 36.6501 29.2707 36.6501H5.17077C4.28511 36.6501 3.56445 35.9295 3.56445 35.0439V13.9563C3.56445 13.0707 4.28511 12.3501 5.17077 12.3501H29.2707C30.1564 12.3501 30.8769 13.0707 30.8769 13.9563V35.0439ZM45.9395 32.9669L33.6894 28.0668V20.9334L45.9395 16.0333V32.9669Z" fill="#BF0A30"/>
</g>
<defs>
<clipPath id="clip0_98_720">
<rect width="48" height="48" fill="white" transform="translate(0.751953 0.5)"/>
</clipPath>
</defs>
</svg>
