<svg width="228" height="53" viewBox="0 0 228 53" fill="none" xmlns="http://www.w3.org/2000/svg">
<path d="M16.7619 18.2028L20.3609 17.6538C20.9303 17.6538 21.2353 17.7961 21.2759 18.0808C21.2759 18.8534 20.5439 19.5448 19.0799 20.1548C17.6566 20.7648 15.8266 21.0698 13.5899 21.0698C11.3533 21.0698 9.50292 20.5411 8.03892 19.4838C6.57492 18.3858 5.84292 16.8811 5.84292 14.9698C5.84292 13.3024 7.36792 11.1268 10.4179 8.44276C12.0039 7.0601 13.8746 5.75876 16.0299 4.53876C18.2259 3.31876 20.9913 2.3021 24.3259 1.48876C27.7013 0.634763 31.0969 0.207764 34.5129 0.207764C37.9289 0.207764 40.7553 0.61443 42.9919 1.42776C45.2693 2.20043 46.9569 3.17643 48.0549 4.35576C50.1289 6.59243 51.1659 8.5851 51.1659 10.3338C51.1659 11.3098 50.9016 12.2654 50.3729 13.2008C49.8849 14.0954 49.1733 14.8274 48.2379 15.3968C40.8773 19.6261 35.3873 22.3101 31.7679 23.4488C31.1173 23.7334 30.7919 23.9774 30.7919 24.1808C30.7919 24.2621 31.0766 24.3434 31.6459 24.4248C34.8179 24.4248 37.8273 24.9941 40.6739 26.1328C42.2599 26.7834 43.5409 27.7594 44.5169 29.0608C45.4929 30.3621 45.9809 32.0498 45.9809 34.1238C45.9809 36.1571 45.1473 38.1294 43.4799 40.0408C41.8533 41.9521 39.7996 43.5178 37.3189 44.7378C34.8789 45.9578 32.1746 46.9948 29.2059 47.8488C23.7159 49.3534 18.6936 50.1058 14.1389 50.1058C11.6989 50.1058 9.36059 49.8008 7.12392 49.1908C2.77259 48.0114 0.596924 46.2628 0.596924 43.9448C0.596924 42.5214 1.18659 41.1388 2.36592 39.7968C3.58592 38.4141 4.72459 37.6821 5.78192 37.6008C5.82259 37.6008 6.18859 37.6821 6.87992 37.8448C8.79126 38.2921 11.2109 38.5158 14.1389 38.5158C17.0669 38.5158 20.5033 37.9871 24.4479 36.9298C28.4333 35.8724 31.8086 34.6118 34.5739 33.1478C37.3393 31.6431 38.7219 30.2808 38.7219 29.0608C38.7219 27.5968 35.8143 26.8648 29.9989 26.8648C27.8029 26.8648 26.0949 26.9868 24.8749 27.2308C24.5903 27.2714 23.2076 28.7151 20.7269 31.5618C18.2869 34.4084 16.7416 36.2384 16.0909 37.0518C15.3996 37.6618 14.7489 37.9668 14.1389 37.9668C13.5696 37.9668 13.1629 37.8448 12.9189 37.6008C12.6749 37.3568 12.5529 37.1331 12.5529 36.9298C12.5529 36.7264 12.6343 36.4824 12.7969 36.1978C12.9596 35.9131 13.5086 35.1404 14.4439 33.8798C17.0059 30.4231 18.2869 28.5931 18.2869 28.3898C18.2869 28.1458 18.1039 27.7594 17.7379 27.2308C17.4126 26.6614 17.2499 26.1734 17.2499 25.7668C17.2499 25.3601 17.5549 25.0348 18.1649 24.7908C18.8156 24.5468 19.5883 24.3231 20.4829 24.1198C21.4183 23.8758 22.0079 23.6928 22.2519 23.5708C22.5366 23.4081 23.6143 22.1678 25.4849 19.8498C27.3963 17.5318 28.4943 16.2304 28.7789 15.9458C29.1043 15.6611 29.5516 15.5188 30.1209 15.5188C31.0969 15.5188 31.5849 15.9051 31.5849 16.6778C31.5849 17.1251 31.1783 17.8978 30.3649 18.9958C29.5923 20.0938 29.2059 20.7241 29.2059 20.8868C29.2059 21.0088 29.2263 21.0901 29.2669 21.1308C30.3243 21.1308 32.8253 20.1141 36.7699 18.0808C40.7146 16.0474 43.1953 14.6241 44.2119 13.8108C44.6186 13.6481 44.8219 13.3838 44.8219 13.0178C44.8219 12.2044 43.5816 11.7978 41.1009 11.7978C37.3189 11.7978 33.3946 12.2451 29.3279 13.1398C25.3019 14.0344 22.1096 14.9698 19.7509 15.9458C17.4329 16.8811 16.2739 17.5724 16.2739 18.0198C16.2739 18.1418 16.4366 18.2028 16.7619 18.2028Z" fill="#A9AFAD"/>
<path d="M72.9296 30.9518C77.6876 31.5211 81.8559 32.6801 85.4346 34.4288C87.3459 35.3641 88.8506 36.6248 89.9486 38.2108C91.0872 39.7968 91.6566 41.6064 91.6566 43.6398C91.6566 44.8598 91.1889 45.5308 90.2536 45.6528C89.8876 45.7341 88.7489 45.7748 86.8376 45.7748C84.9669 45.7748 81.1849 45.4698 75.4916 44.8598C69.8389 44.2091 64.9386 43.8431 60.7906 43.7618C54.2839 49.5771 48.4076 52.4848 43.1616 52.4848C40.9656 52.4848 39.1559 51.7528 37.7326 50.2888C36.3092 48.8654 35.5976 47.1981 35.5976 45.2868C35.5976 41.0574 37.8139 37.5194 42.2466 34.6728C46.7199 31.7854 53.6332 30.3418 62.9866 30.3418C64.7759 30.3418 66.7889 30.4231 69.0256 30.5858C69.8389 29.6504 71.0182 28.2474 72.5636 26.3768C70.8149 26.2954 69.3509 25.9091 68.1716 25.2178C66.9922 24.5264 66.1789 23.2658 65.7316 21.4358C65.7316 20.2158 66.3619 19.6058 67.6226 19.6058C71.4046 19.6058 75.4306 19.0974 79.7006 18.0808C83.9299 13.4041 87.8746 9.78476 91.5346 7.22276C95.2353 4.66076 98.9969 3.35943 102.82 3.31876C105.91 3.60343 107.456 4.94543 107.456 7.34476C107.456 10.3134 105.91 13.2211 102.82 16.0678C99.7289 18.9144 95.8249 21.2528 91.1076 23.0828C86.3902 24.9128 81.6322 25.9904 76.8336 26.3158C75.1256 28.3491 73.8242 29.8944 72.9296 30.9518ZM100.502 6.85676C100.502 6.6941 100.38 6.61276 100.136 6.61276C96.3942 6.61276 91.4736 9.90676 85.3736 16.4948C89.6842 15.0714 93.2833 13.4651 96.1706 11.6758C99.0579 9.88643 100.502 8.2801 100.502 6.85676ZM42.0026 48.7028C42.0026 48.9061 42.1856 49.0078 42.5516 49.0078C46.6589 49.0078 51.0102 47.3201 55.6056 43.9448C52.0676 44.1888 48.9159 44.6971 46.1506 45.4698C43.3852 46.2018 42.0026 47.2794 42.0026 48.7028Z" fill="#A9AFAD"/>
<path d="M131.619 4.05076C134.465 4.05076 136.621 4.4371 138.085 5.20976C139.589 5.98243 140.342 7.1821 140.342 8.80876C140.342 10.4354 139.325 12.2451 137.292 14.2378C135.299 16.2304 133.876 17.2268 133.022 17.2268C132.168 17.2268 131.741 16.9624 131.741 16.4338C131.741 15.7831 132.269 14.9494 133.327 13.9328C134.425 12.8754 134.974 12.2248 134.974 11.9808C134.974 11.8588 134.872 11.7978 134.669 11.7978C132.513 11.7978 129.26 13.5261 124.909 16.9828C120.598 20.4394 116.674 24.3434 113.136 28.6948C109.638 33.0054 107.89 36.2791 107.89 38.5158C107.89 39.2071 108.134 39.5528 108.622 39.5528C109.76 39.5528 112.77 37.3161 117.65 32.8428C122.53 28.3694 127.125 23.8758 131.436 19.3618C131.842 19.2804 132.188 19.2398 132.473 19.2398C132.757 19.2398 133.083 19.3618 133.449 19.6058C133.815 19.8091 134.079 20.0328 134.242 20.2768C134.404 20.5208 134.465 20.8258 134.425 21.1918C134.384 21.5171 134.12 22.2491 133.632 23.3878C133.144 24.5264 132.574 25.7058 131.924 26.9258C131.314 28.1051 130.541 29.4674 129.606 31.0128C128.711 32.5581 127.938 33.8391 127.288 34.8558C126.678 35.8318 125.986 36.9094 125.214 38.0888C124.4 39.4308 123.994 40.2238 123.994 40.4678C123.994 40.6711 124.055 40.7728 124.177 40.7728C124.339 40.7728 124.461 40.7524 124.543 40.7118C124.624 40.6711 124.848 40.5288 125.214 40.2848C125.58 40.0001 126.007 39.6951 126.495 39.3698C126.983 39.0444 127.349 38.7801 127.593 38.5768C127.837 38.3734 128.101 38.2718 128.386 38.2718C128.711 38.2718 128.996 38.3734 129.24 38.5768C129.484 38.7801 129.606 39.0241 129.606 39.3088C129.606 40.6101 128.101 42.1961 125.092 44.0668C122.082 45.8968 119.988 46.8118 118.809 46.8118C117.67 46.8118 116.735 46.5068 116.003 45.8968C115.311 45.2868 114.966 44.5548 114.966 43.7008C114.966 42.8061 115.21 41.7081 115.698 40.4068L116.43 38.5158C116.43 38.3938 116.389 38.3328 116.308 38.3328C116.226 38.3328 116.084 38.3938 115.881 38.5158C109.496 43.5991 104.738 46.1408 101.607 46.1408C99.2074 46.1408 97.2961 45.2054 95.8727 43.3348C94.4901 41.4641 93.7987 39.0648 93.7987 36.1368C93.7987 33.2088 94.6121 30.0978 96.2387 26.8038C97.8654 23.5098 100.021 20.5411 102.705 17.8978C105.429 15.2138 108.439 12.8144 111.733 10.6998C115.027 8.5851 118.463 6.95843 122.042 5.81976C125.62 4.64043 128.813 4.05076 131.619 4.05076Z" fill="#A9AFAD"/>
<path d="M166.607 13.6888C165.427 16.6981 164.248 19.4634 163.069 21.9848C161.93 24.4654 161.361 25.8278 161.361 26.0718C161.361 26.2751 161.422 26.3768 161.544 26.3768C161.869 26.3768 162.215 26.1734 162.581 25.7668C162.947 25.3194 165.122 22.9201 169.108 18.5688C178.42 8.4021 184.703 2.70876 187.957 1.48876C189.014 1.04143 189.848 0.817763 190.458 0.817763C191.068 0.817763 191.678 1.04143 192.288 1.48876C192.938 1.89543 193.264 2.3021 193.264 2.70876C193.264 3.07476 193.081 3.42043 192.715 3.74576L191.678 4.53876C185.09 9.6221 178.461 15.7424 171.792 22.8998C170.694 24.1198 169.209 25.7464 167.339 27.7798C165.509 29.8131 164.024 31.4601 162.886 32.7208C161.747 33.9814 160.385 35.4454 158.799 37.1128C157.213 38.7801 155.871 40.1221 154.773 41.1388C153.715 42.1148 152.597 43.0908 151.418 44.0668C149.222 45.9374 147.432 46.8728 146.05 46.8728C144.708 46.8728 143.325 45.9171 141.902 44.0058C140.478 42.0538 139.767 40.4678 139.767 39.2478C139.767 38.0278 140.946 34.9168 143.305 29.9148C145.663 24.8721 147.92 21.2934 150.076 19.1788C150.604 18.6501 150.869 18.2434 150.869 17.9588C150.869 17.6334 150.686 17.4708 150.32 17.4708C149.994 17.4708 149.669 17.6741 149.344 18.0808C149.018 18.4468 148.103 19.5041 146.599 21.2528C145.135 22.9608 143.854 24.4451 142.756 25.7058C141.658 26.9258 140.214 28.5321 138.425 30.5248C136.676 32.4768 135.07 34.1441 133.606 35.5268C132.182 36.9094 130.698 38.2921 129.153 39.6748C125.981 42.5214 123.541 43.9448 121.833 43.9448C120.409 43.8634 119.698 42.8468 119.698 40.8948C119.698 38.9428 120.491 36.1571 122.077 32.5378C123.663 28.9184 125.127 27.1088 126.469 27.1088C127.363 27.1088 127.811 27.4951 127.811 28.2678C127.811 28.8778 127.221 30.3621 126.042 32.7208C124.822 35.0794 124.212 36.4214 124.212 36.7468C124.212 37.0314 124.293 37.1738 124.456 37.1738C124.822 37.1738 126.225 36.0554 128.665 33.8188C131.105 31.5414 133.443 29.2641 135.68 26.9868L139.096 23.6318C142.105 20.8258 146.863 15.8238 153.37 8.62576C155.322 6.47043 157.314 4.5591 159.348 2.89176C161.381 1.22443 163.028 0.390761 164.289 0.390761C165.549 0.390761 166.546 1.2041 167.278 2.83076C168.01 4.45743 168.376 5.92143 168.376 7.22276C168.376 8.5241 167.786 10.6794 166.607 13.6888Z" fill="#A9AFAD"/>
<path d="M166.663 46.3238C165.321 46.3238 163.918 45.3478 162.454 43.3958C161.03 41.4438 160.319 39.7358 160.319 38.2718C160.319 36.8078 161.823 34.0831 164.833 30.0978C167.842 26.0718 171.36 22.0051 175.386 17.8978C179.412 13.7904 183.661 10.1711 188.135 7.03976C192.649 3.86776 196.207 2.28176 198.81 2.28176C200.355 2.28176 201.27 3.42043 201.555 5.69776V5.81976C201.555 7.08043 200.294 9.5001 197.773 13.0788C195.251 16.6574 193.279 19.2601 191.856 20.8868C191.49 21.3748 191.307 21.7001 191.307 21.8628C191.307 21.9848 191.388 22.0458 191.551 22.0458C191.754 22.0458 192.201 21.9441 192.893 21.7408C195.902 20.7648 199.501 19.1178 203.69 16.7998C207.878 14.4818 211.254 12.4688 213.816 10.7608C216.418 9.05276 217.882 8.05643 218.208 7.77176C218.574 7.4871 218.757 7.3041 218.757 7.22276C218.757 7.10076 218.675 7.03976 218.513 7.03976C218.391 7.03976 217.354 7.4871 215.402 8.38176C213.49 9.27643 212.331 9.72376 211.925 9.72376C211.518 9.72376 210.928 9.52043 210.156 9.11376C209.424 8.66643 209.058 8.11743 209.058 7.46676C209.058 6.36876 211.03 5.06743 214.975 3.56276C218.96 2.0581 221.603 1.30576 222.905 1.30576C225.792 1.30576 227.236 2.03776 227.236 3.50176C227.236 5.2911 225.711 7.44643 222.661 9.96776C219.611 12.4484 216.012 14.7664 211.864 16.9218C204.3 20.8664 199.115 23.4081 196.309 24.5468C196.024 24.7094 195.882 24.9128 195.882 25.1568C201.534 38.0481 204.361 45.4088 204.361 47.2388C204.361 48.3774 203.812 49.2721 202.714 49.9228C201.656 50.5734 200.131 50.8988 198.139 50.8988C196.146 50.8988 194.255 50.2684 192.466 49.0078C190.676 47.7471 189.273 46.2221 188.257 44.4328C187.281 42.6434 186.447 40.8541 185.756 39.0648C185.105 37.2754 184.556 35.7504 184.109 34.4898C183.702 33.2291 183.377 32.5988 183.133 32.5988C182.929 32.5988 182.706 32.7208 182.462 32.9648C182.218 33.1681 181.587 33.7984 180.571 34.8558C179.595 35.8724 178.497 36.9908 177.277 38.2108C176.097 39.3901 174.816 40.6101 173.434 41.8708C170.302 44.8394 168.045 46.3238 166.663 46.3238Z" fill="#A9AFAD"/>
</svg>
