<svg width="188" height="48" viewBox="0 0 188 48" fill="none" xmlns="http://www.w3.org/2000/svg">
<path d="M31.4658 31.7546C31.4658 33.641 31.0786 35.309 30.3042 36.7585C29.5496 38.1882 28.5568 39.4392 27.3257 40.5115C26.1144 41.5639 24.7443 42.4574 23.2153 43.1921C21.6864 43.907 20.1574 44.4828 18.6284 44.9197C17.0994 45.3565 15.64 45.6742 14.25 45.8728C12.86 46.0515 11.6984 46.1409 10.7651 46.1409H2.604C2.90186 46.121 3.16992 46.0317 3.4082 45.8728C3.64648 45.7139 3.85498 45.5055 4.03369 45.2473C4.2124 44.9693 4.36133 44.6715 4.48047 44.3538C4.61947 44.0162 4.73861 43.6687 4.83789 43.3113C5.05632 42.517 5.18538 41.5937 5.2251 40.5413C5.28467 39.2506 5.3641 37.1557 5.46338 34.2566C5.50309 33.0255 5.55273 31.5561 5.6123 29.8484C5.67188 28.1407 5.73145 26.155 5.79102 23.8914C5.87044 21.6277 5.9598 19.0562 6.05908 16.177C6.15837 13.2978 6.26758 10.071 6.38672 6.49683C5.65202 6.53654 4.80811 6.56632 3.85498 6.58618C2.92171 6.60604 1.8693 6.59611 0.697754 6.5564L6.26758 3.42896C6.94271 3.48853 7.65755 3.53817 8.41211 3.57788C9.16667 3.61759 9.9113 3.63745 10.646 3.63745C11.3807 3.63745 12.0757 3.63745 12.731 3.63745C13.3862 3.61759 13.9621 3.58781 14.4585 3.5481C15.0343 3.50838 15.5705 3.46867 16.0669 3.42896C17.5164 3.42896 18.9858 3.5481 20.4751 3.78638C21.9842 4.02466 23.3444 4.47144 24.5557 5.12671C25.7669 5.76213 26.7598 6.65568 27.5342 7.80737C28.3086 8.95907 28.6958 10.4483 28.6958 12.2751C28.5965 13.6651 28.2093 14.9757 27.5342 16.2068C27.2363 16.7429 26.869 17.289 26.4321 17.845C25.9953 18.3811 25.4492 18.8974 24.7939 19.3938C24.1585 19.8902 23.404 20.3469 22.5303 20.7639C21.6566 21.1809 20.6439 21.5284 19.4922 21.8064C19.8298 21.7667 20.1475 21.7369 20.4453 21.717C20.763 21.6972 21.0807 21.6873 21.3984 21.6873C22.6494 21.6873 23.7515 21.8362 24.7046 22.134C25.6776 22.412 26.5116 22.7893 27.2065 23.2659C27.9214 23.7424 28.5171 24.2885 28.9937 24.9041C29.4901 25.4998 29.8971 26.1054 30.2148 26.7209C30.9495 28.2102 31.3665 29.8881 31.4658 31.7546ZM10.5269 38.8137C10.4474 39.469 10.2985 40.0945 10.0801 40.6902C9.90137 41.2065 9.65316 41.7128 9.33545 42.2092C9.0376 42.7056 8.64046 43.0631 8.14404 43.2815C10.1297 43.4602 11.8275 43.5893 13.2373 43.6687C14.6471 43.7283 15.7988 43.7581 16.6924 43.7581C17.1491 43.7581 17.5462 43.7581 17.8838 43.7581C18.2412 43.7382 18.5291 43.7183 18.7476 43.6985C19.0057 43.6786 19.2142 43.6588 19.373 43.6389C19.9886 43.5595 20.6439 43.2914 21.3389 42.8347C22.0339 42.378 22.6891 41.7724 23.3047 41.0178C23.9202 40.2434 24.4465 39.3499 24.8833 38.3372C25.34 37.3245 25.6379 36.2026 25.7769 34.9714C25.9556 33.3233 25.8662 31.844 25.5088 30.5334C25.1712 29.2229 24.5656 28.1109 23.6919 27.1975C22.8182 26.2841 21.6764 25.5891 20.2666 25.1125C18.8766 24.6161 17.2186 24.3679 15.2925 24.3679C14.9549 24.3679 14.5975 24.3778 14.2202 24.3977C13.8429 24.4176 13.4657 24.4473 13.0884 24.4871C14.3791 23.8715 15.6102 23.2857 16.7817 22.7297C17.9533 22.1737 18.9759 21.5085 19.8496 20.7341C20.7432 19.9399 21.4481 18.9669 21.9644 17.8152C22.4806 16.6635 22.7388 15.1842 22.7388 13.3772C22.7388 12.3446 22.5601 11.4511 22.2026 10.6965C21.8452 9.94198 21.3687 9.30656 20.7729 8.79028C20.1772 8.27401 19.4922 7.85701 18.7178 7.53931C17.9632 7.2216 17.1689 6.97339 16.335 6.79468C15.5208 6.61597 14.7067 6.49683 13.8926 6.43726C13.0785 6.37769 12.3239 6.33797 11.6289 6.31812C11.5495 9.9519 11.4701 13.1985 11.3906 16.0579C11.3311 18.9172 11.2616 21.449 11.1821 23.6531C11.1226 25.8572 11.063 27.7634 11.0034 29.3718C10.9637 30.9604 10.9141 32.3206 10.8545 33.4524C10.7354 36.0933 10.6261 37.8805 10.5269 38.8137Z" fill="#A9AFAD"/>
<path d="M49.7253 2.02905C48.792 2.64461 47.9481 3.17082 47.1936 3.60767C46.4589 4.02466 45.754 4.37215 45.0788 4.65015C44.9795 8.24422 44.8902 11.461 44.8108 14.3005C44.7512 17.1401 44.6916 19.6619 44.632 21.866C44.5923 24.0502 44.5526 25.9465 44.5129 27.5549C44.4931 29.1435 44.4732 30.5037 44.4533 31.6355C44.3938 34.2764 44.3739 36.0834 44.3938 37.0564C44.3739 37.7911 44.2945 38.496 44.1555 39.1711C44.0363 39.747 43.8477 40.3625 43.5896 41.0178C43.3314 41.6532 42.974 42.1993 42.5173 42.656C43.7087 42.6957 44.8207 42.7156 45.8532 42.7156C46.9056 42.7156 47.9084 42.7156 48.8615 42.7156C51.5819 42.7156 53.8257 42.6759 55.593 42.5964C57.3602 42.517 58.7701 42.4277 59.8225 42.3284C60.8749 42.2092 61.6195 42.1099 62.0564 42.0305C62.4932 41.9312 62.7514 41.8617 62.8308 41.822C61.7784 42.5369 60.9047 43.1524 60.2097 43.6687C59.5147 44.185 58.8892 44.6119 58.3332 44.9495C57.7971 45.2672 57.261 45.5055 56.7248 45.6643C56.2085 45.8232 55.6029 45.9026 54.9079 45.9026H50.321C49.0303 45.9026 47.6304 45.9125 46.1213 45.9324C44.6122 45.9324 43.1726 45.9522 41.8025 45.9919C40.4323 46.0118 39.2012 46.0614 38.1091 46.1409C37.0368 46.2004 36.2723 46.2799 35.8156 46.3792C36.3716 45.9026 36.878 45.3863 37.3347 44.8303C37.7914 44.2743 38.1786 43.5893 38.4963 42.7751C38.8339 41.961 39.092 40.988 39.2707 39.8562C39.4494 38.7045 39.5388 37.3245 39.5388 35.7161V5.63306C38.9232 5.69263 38.1786 5.77205 37.3049 5.87134C36.4312 5.97062 35.4384 6.09969 34.3264 6.25854C35.3987 5.38485 36.3617 4.71965 37.2155 4.26294C38.0892 3.80623 38.8339 3.46867 39.4494 3.25024C40.1643 3.01196 40.7997 2.87297 41.3557 2.83325C42.0507 2.85311 42.8152 2.84318 43.6491 2.80347C44.503 2.76375 45.3171 2.71411 46.0915 2.65454C46.8858 2.57511 47.6106 2.48576 48.2658 2.38647C48.9211 2.26733 49.4076 2.14819 49.7253 2.02905ZM62.8308 41.822V41.7922C62.8506 41.7724 62.8705 41.7625 62.8904 41.7625L62.8308 41.822Z" fill="#A9AFAD"/>
<path d="M72.2441 43.0432C71.1917 43.6389 70.179 44.1353 69.206 44.5325C68.2529 44.9296 67.3593 45.2473 66.5253 45.4856C65.6913 45.7239 64.9368 45.8927 64.2617 45.9919C63.6064 46.0912 63.0405 46.1409 62.5639 46.1409H58.0961L61.3427 44.324C61.6803 43.8871 62.0079 43.4503 62.3256 43.0134C62.6433 42.5766 62.9114 42.1695 63.1298 41.7922C63.388 41.3752 63.6262 40.9583 63.8447 40.5413C64.4602 39.2903 65.3736 37.2649 66.5849 34.4651C67.0813 33.2737 67.6671 31.8539 68.3422 30.2058C69.0372 28.5577 69.8315 26.6415 70.725 24.4573C71.6186 22.273 72.6114 19.7909 73.7036 17.011C74.7957 14.231 76.0169 11.1135 77.3671 7.65845L82.5497 2.89282L94.2255 42.4773C95.0595 42.6957 95.8538 42.8347 96.6083 42.8943C97.3828 42.9539 98.1075 42.9836 98.7827 42.9836C99.1401 42.9836 99.4677 42.9836 99.7656 42.9836C100.063 42.9638 100.322 42.9439 100.54 42.9241C100.778 42.9042 101.007 42.8744 101.225 42.8347C100.073 43.3907 99.0706 43.8772 98.2167 44.2942C97.3629 44.6913 96.5984 45.0289 95.9233 45.3069C95.268 45.5849 94.6524 45.7934 94.0766 45.9324C93.5206 46.0714 92.9547 46.1409 92.3788 46.1409H87.6132L89.162 45.158L84.3964 29.3718C83.8206 29.5307 83.1554 29.6895 82.4008 29.8484C81.6463 29.9874 80.7428 30.1165 79.6904 30.2356C78.6578 30.3547 77.4466 30.4639 76.0566 30.5632C74.6865 30.6625 73.0979 30.7519 71.291 30.8313C70.457 32.5986 69.6925 34.1672 68.9975 35.5374C68.3025 36.9075 67.677 38.0989 67.121 39.1116C66.565 40.1243 66.0686 40.9781 65.6318 41.6731C65.2148 42.3681 64.8574 42.9241 64.5595 43.3411C64.8971 43.4006 65.2744 43.4503 65.6913 43.49C66.1083 43.5098 66.5253 43.5198 66.9423 43.5198C67.5777 43.5198 68.2032 43.4999 68.8188 43.4602C69.4542 43.4006 70.03 43.3411 70.5463 43.2815C71.142 43.2021 71.7079 43.1226 72.2441 43.0432ZM76.414 27.2869C79.0947 27.2869 81.5271 27.2273 83.7114 27.1082L79.1542 11.9773C77.9231 15.1345 76.7913 17.9542 75.7587 20.4363C74.746 22.9184 73.783 25.2019 72.8696 27.2869H76.414Z" fill="#A9AFAD"/>
<path d="M106.826 40.6604C106.786 40.8391 106.697 41.0476 106.558 41.2859C106.439 41.5043 106.27 41.7823 106.051 42.1199C105.833 42.4376 105.535 42.8248 105.158 43.2815C105.734 43.4006 106.31 43.4801 106.885 43.5198C107.481 43.5595 108.027 43.5793 108.524 43.5793C109.516 43.5793 110.321 43.5396 110.936 43.4602C111.572 43.3808 111.949 43.3212 112.068 43.2815C111.135 43.7183 110.36 44.1254 109.745 44.5027C109.129 44.88 108.494 45.2076 107.839 45.4856C107.203 45.7636 106.468 45.9919 105.634 46.1707C104.82 46.3692 103.728 46.4983 102.358 46.5579C102.437 46.5181 102.567 46.3593 102.745 46.0813L102.179 46.5579C101.901 46.5976 101.613 46.6174 101.316 46.6174C101.018 46.6174 100.72 46.6174 100.422 46.6174L103.162 44.5623C103.242 44.0857 103.321 43.5496 103.401 42.9539C103.48 42.3383 103.549 41.7029 103.609 41.0476C103.669 40.3923 103.728 39.7371 103.788 39.0818C103.847 38.4067 103.897 37.7514 103.937 37.116C104.036 35.6466 104.125 34.1375 104.205 32.5886C104.304 28.0811 104.374 23.6531 104.413 19.3044C104.473 14.936 104.503 10.5476 104.503 6.1394L107.809 0.807861C107.928 2.71411 108.295 4.55086 108.911 6.31812C109.526 8.08537 110.331 9.80298 111.323 11.4709C112.316 13.1191 113.448 14.7175 114.719 16.2664C115.99 17.7953 117.34 19.2945 118.77 20.7639C120.199 22.2333 121.659 23.6729 123.148 25.0828C124.637 26.4926 126.087 27.8925 127.497 29.2825C128.907 30.6526 130.237 32.0227 131.488 33.3928C132.759 34.7431 133.871 36.1033 134.824 37.4734C135.122 33.1645 135.31 28.9648 135.39 24.8743C135.489 20.7639 135.539 16.6734 135.539 12.6028C135.539 10.776 135.489 9.34627 135.39 8.31372C135.291 7.26131 135.142 6.38761 134.943 5.69263C134.705 5.73234 134.447 5.7522 134.169 5.7522C133.91 5.7522 133.642 5.7522 133.364 5.7522C132.669 5.7522 131.994 5.77205 131.339 5.81177C130.704 5.83162 130.177 5.94084 129.76 6.1394C130.495 5.62313 131.21 5.14657 131.905 4.70972C132.6 4.27287 133.295 3.90552 133.99 3.60767C134.705 3.28996 135.42 3.04175 136.134 2.86304C136.869 2.68433 137.653 2.59497 138.487 2.59497C138.944 2.59497 139.451 2.61483 140.007 2.65454C140.582 2.6744 141.208 2.73397 141.883 2.83325C141.347 3.17082 140.84 3.4786 140.364 3.75659C139.887 4.01473 139.421 4.25301 138.964 4.47144C138.924 10.5476 138.746 16.5245 138.428 22.4021C138.13 28.2598 137.842 34.1176 137.564 39.9753C136.373 41.9213 135.509 43.5198 134.973 44.7708C134.457 46.0217 134.159 46.7862 134.079 47.0642V47.1833C133.166 45.1182 132.044 43.1921 130.714 41.405C129.383 39.6179 127.924 37.9102 126.335 36.282C124.766 34.6537 123.128 33.0652 121.421 31.5164C119.713 29.9675 118.035 28.3889 116.387 26.7805C114.739 25.1523 113.17 23.4644 111.681 21.717C110.211 19.9498 108.921 18.0435 107.809 15.9983C107.789 17.7258 107.759 19.4534 107.719 21.1809C107.7 22.9084 107.67 24.5963 107.63 26.2444C107.59 27.8925 107.541 29.4711 107.481 30.9802C107.422 32.4893 107.352 33.8694 107.273 35.1204C107.213 36.3713 107.144 37.4734 107.064 38.4265C106.985 39.3796 106.905 40.1243 106.826 40.6604ZM102.358 46.5579C102.318 46.5976 102.259 46.6174 102.179 46.6174V46.5579H102.358Z" fill="#A9AFAD"/>
<path d="M181.409 2.02905C180.218 2.86304 179.165 3.51831 178.252 3.99487C177.338 4.47144 176.445 4.83879 175.571 5.09692C174.558 6.70532 173.446 8.23429 172.235 9.68384C171.044 11.1135 169.793 12.5035 168.482 13.8538C167.192 15.204 165.871 16.5245 164.521 17.8152C163.19 19.086 161.89 20.3569 160.619 21.6277C161.453 22.8191 162.406 24.1495 163.478 25.6189C164.551 27.0883 165.702 28.5676 166.933 30.0569C168.184 31.5461 169.495 33.0056 170.865 34.4353C172.255 35.8451 173.665 37.0961 175.095 38.1882C176.544 39.2804 178.014 40.164 179.503 40.8391C181.012 41.4944 182.501 41.822 183.971 41.822C184.487 41.822 185.033 41.7625 185.609 41.6433C186.185 41.5242 186.78 41.3157 187.396 41.0178C186.204 42.3085 185.152 43.3212 184.239 44.0559C183.345 44.7708 182.591 45.297 181.975 45.6345C181.26 46.0515 180.645 46.2997 180.128 46.3792C179.493 46.4387 178.718 46.2898 177.805 45.9324C176.892 45.575 175.899 45.0785 174.827 44.4431C173.754 43.7878 172.642 43.0234 171.491 42.1497C170.339 41.276 169.217 40.3526 168.125 39.3796C166.914 38.2478 165.623 36.9373 164.253 35.448C163.081 34.1772 161.751 32.6383 160.262 30.8313C158.792 29.0045 157.283 26.9294 155.734 24.6062L158.296 21.3894C158.891 20.893 159.596 20.2774 160.411 19.5427C161.225 18.7882 162.078 17.974 162.972 17.1003C163.866 16.2068 164.769 15.2636 165.682 14.2708C166.616 13.2779 167.489 12.2851 168.304 11.2922C169.118 10.2795 169.842 9.2867 170.478 8.31372C171.113 7.34074 171.61 6.42733 171.967 5.57349C171.391 5.63306 170.587 5.71248 169.555 5.81177C168.522 5.91105 167.35 6.05998 166.04 6.25854C167.112 5.38485 168.075 4.71965 168.929 4.26294C169.783 3.80623 170.518 3.46867 171.133 3.25024C171.848 3.01196 172.493 2.87297 173.069 2.83325C173.764 2.85311 174.529 2.84318 175.363 2.80347C176.197 2.76375 177.001 2.71411 177.775 2.65454C178.57 2.57511 179.284 2.48576 179.92 2.38647C180.575 2.26733 181.071 2.14819 181.409 2.02905ZM160.857 42.2986C159.785 43.0134 158.901 43.629 158.206 44.1453C157.511 44.6615 156.876 45.0885 156.3 45.426C155.744 45.7437 155.198 45.982 154.662 46.1409C154.146 46.2997 153.53 46.3792 152.815 46.3792C151.862 46.3792 151.048 46.3394 150.373 46.26C149.698 46.1806 149.023 46.1409 148.348 46.1409C148.01 46.1409 147.662 46.1508 147.305 46.1707C146.967 46.2104 146.59 46.2799 146.173 46.3792C146.729 45.9026 147.236 45.3863 147.692 44.8303C148.149 44.2743 148.536 43.5893 148.854 42.7751C149.191 41.961 149.45 40.988 149.628 39.8562C149.807 38.7045 149.896 37.3245 149.896 35.7161V5.63306C149.281 5.69263 148.536 5.77205 147.662 5.87134C146.789 5.97062 145.796 6.09969 144.684 6.25854C145.756 5.38485 146.719 4.71965 147.573 4.26294C148.447 3.80623 149.191 3.46867 149.807 3.25024C150.522 3.01196 151.157 2.87297 151.713 2.83325C152.408 2.85311 153.173 2.84318 154.007 2.80347C154.861 2.76375 155.675 2.71411 156.449 2.65454C157.243 2.57511 157.968 2.48576 158.623 2.38647C159.279 2.26733 159.765 2.14819 160.083 2.02905C159.15 2.64461 158.306 3.17082 157.551 3.60767C156.816 4.02466 156.112 4.37215 155.436 4.65015C155.337 8.24422 155.248 11.461 155.168 14.3005C155.109 17.1401 155.049 19.6619 154.99 21.866C154.95 24.0502 154.91 25.9465 154.87 27.5549C154.851 29.1435 154.831 30.5037 154.811 31.6355C154.751 34.2764 154.731 36.0834 154.751 37.0564C154.731 37.7911 154.632 38.5159 154.453 39.2307C154.295 39.8661 154.056 40.5413 153.739 41.2561C153.421 41.9511 152.964 42.5865 152.369 43.1624C152.746 43.2021 153.113 43.2219 153.471 43.2219C153.828 43.2219 154.175 43.2219 154.513 43.2219C155.526 43.2219 156.419 43.1822 157.194 43.1028C157.988 43.0035 158.653 42.8943 159.189 42.7751C159.825 42.6361 160.381 42.4773 160.857 42.2986Z" fill="#A9AFAD"/>
</svg>
