<svg width="128" height="41" viewBox="0 0 128 41" fill="none" xmlns="http://www.w3.org/2000/svg">
<path d="M6.65475 12.8235L5.93991 7.81958L6.17819 7.22388L5.88034 5.94312C5.84062 5.86369 5.80091 5.79419 5.7612 5.73462C5.72148 5.65519 5.68177 5.56584 5.64206 5.46655C5.54277 5.3077 5.39385 5.19849 5.19528 5.13892V5.82397L5.25485 6.89624C5.13571 6.93595 5.01657 6.95581 4.89743 6.95581L4.42086 7.04517L4.09323 7.10474C4.05351 7.06502 4.06344 6.99552 4.12301 6.89624C4.14287 6.81681 4.18258 6.7771 4.24215 6.7771L4.36129 5.43677L3.61666 4.21558C3.53724 4.13615 3.45781 4.06665 3.37838 4.00708C3.31881 3.92765 3.26917 3.85815 3.22946 3.79858C3.09046 3.67944 2.98125 3.54045 2.90182 3.38159L2.75289 2.39868C2.75289 2.31925 2.73304 2.23983 2.69332 2.1604L2.51461 1.98169C2.41533 1.80298 2.25648 1.71362 2.03805 1.71362L1.97848 1.83276L2.75289 6.95581V7.10474C2.67347 7.10474 2.6139 7.12459 2.57418 7.16431C2.53447 7.20402 2.49476 7.22388 2.45504 7.22388H2.27633V6.7771L0.757289 3.5603H0.519008L0.250942 3.85815C0.171515 4.31486 0.161586 4.78149 0.221157 5.25806C0.26087 5.75448 0.32044 6.22111 0.399867 6.65796C0.439581 6.89624 0.469366 7.13452 0.489223 7.3728C0.528936 7.61108 0.56865 7.84937 0.608364 8.08765C0.687791 8.56421 0.717576 9.04077 0.697719 9.51733V14.283L0.638149 14.9084L0.578578 15.385C0.538865 15.941 0.548793 16.4473 0.608364 16.9041C0.648077 17.1622 0.677862 17.4303 0.697719 17.7083C0.717576 17.9664 0.737433 18.2345 0.757289 18.5125L0.638149 21.4314L0.697719 21.491L0.87643 21.2527C0.916144 20.9747 0.945929 20.6868 0.965785 20.3889C1.0055 20.0911 1.02536 19.7833 1.02536 19.4656C1.0055 19.1479 0.995571 18.8401 0.995571 18.5422C0.995571 18.2245 0.995571 17.9068 0.995571 17.5891L1.35299 14.2234L1.41256 14.4617C1.45228 14.7595 1.48206 15.0574 1.50192 15.3552C1.52177 15.6531 1.54163 15.9609 1.56149 16.2786C1.58135 16.5963 1.59127 16.9041 1.59127 17.2019C1.59127 17.4998 1.59127 17.8075 1.59127 18.1252C1.59127 18.443 1.59127 18.7607 1.59127 19.0784C1.59127 19.3961 1.6012 19.7138 1.62106 20.0315C1.64092 20.3492 1.65084 20.6669 1.65084 20.9846C1.6707 21.3023 1.70049 21.63 1.7402 21.9675L1.79977 22.0867L1.7402 22.1462V22.3845C1.72034 22.4044 1.71041 22.4242 1.71041 22.4441L1.68063 22.4739L1.41256 23.1887C1.31328 24.261 1.23385 25.3134 1.17428 26.3459C1.11471 27.3785 1.08493 28.4111 1.08493 29.4436C1.04521 31.5087 1.01543 33.5937 0.995571 35.6985L0.87643 37.4558V38.2898C0.856573 38.5876 0.936 38.8458 1.11471 39.0642H1.47213L1.68063 38.8855C1.77991 38.4685 1.85934 38.0515 1.91891 37.6345C1.99834 37.2175 2.07776 36.7906 2.15719 36.3538C2.21676 35.9169 2.27633 35.4999 2.3359 35.1028C2.41533 34.7056 2.49476 34.3184 2.57418 33.9412L2.27633 37.3367C2.25648 37.4161 2.23662 37.4856 2.21676 37.5452C2.21676 37.6047 2.21676 37.6742 2.21676 37.7537V38.1409L2.15719 39.1238C2.11748 39.3223 2.09762 39.4316 2.09762 39.4514C2.07776 39.5308 2.09762 39.6202 2.15719 39.7195L2.57418 39.8982L2.90182 39.7195C3.02096 39.6401 3.08053 39.4911 3.08053 39.2727V38.8259L3.19967 38.1409V38.2898C3.19967 38.3097 3.21953 38.399 3.25924 38.5579C3.25924 38.6571 3.2791 38.7664 3.31881 38.8855C3.4181 38.8656 3.4876 38.816 3.52731 38.7366L3.61666 38.5579L3.79538 38.0217L4.18258 37.158L4.42086 36.1155C4.65914 35.0234 4.86764 33.9213 5.04635 32.8093C5.12578 32.2533 5.20521 31.7073 5.28463 31.1711C5.36406 30.6152 5.44349 30.0492 5.52291 29.4734V29.2351C5.56263 29.0365 5.61227 28.828 5.67184 28.6096C5.73141 28.3912 5.78105 28.1728 5.82077 27.9543C5.90019 27.5175 6.01933 27.0707 6.17819 26.614H6.23776L5.99948 30.8137L5.88034 31.6179L5.7612 32.4817L5.58248 33.2561L4.65914 37.4558V37.7239L4.77829 37.4558C4.97685 36.9395 5.14564 36.4332 5.28463 35.9368C5.44349 35.4205 5.59241 34.9042 5.73141 34.3879C5.87041 33.8717 5.97962 33.3653 6.05905 32.8689C6.15833 32.3526 6.23776 31.8363 6.29733 31.3201L6.3569 30.7542V30.2776L6.41647 29.7117L6.47604 29.2947L6.59518 28.8181C6.61504 28.7188 6.63489 28.6096 6.65475 28.4905C6.67461 28.3515 6.69446 28.2125 6.71432 28.0735C6.73418 27.9345 6.75403 27.8153 6.77389 27.7161C6.79375 27.6168 6.82353 27.5175 6.86325 27.4182L6.80368 26.5544V20.8059L6.86325 20.1506L6.47604 13.8064L6.65475 12.8235ZM5.13571 21.4314L4.77829 10.8875V10.0833L4.83786 10.3811C4.91728 11.2747 4.99671 12.1583 5.07614 13.032C5.15556 13.9057 5.23499 14.7893 5.31442 15.6829C5.39385 16.5764 5.44349 17.47 5.46334 18.3635C5.50306 19.2571 5.52291 20.1606 5.52291 21.074C5.52291 21.1534 5.50306 21.213 5.46334 21.2527C5.3442 21.2924 5.28463 21.3123 5.28463 21.3123H5.13571V21.4314ZM4.48043 27.4182L4.71872 24.9163C4.73857 24.6978 4.75843 24.4695 4.77829 24.2312C4.79814 23.9929 4.818 23.7348 4.83786 23.4568C4.87757 22.9008 4.97685 22.4441 5.13571 22.0867L5.25485 22.8909V23.0696C5.23499 23.2086 5.21513 23.3277 5.19528 23.427C5.17542 23.5263 5.15556 23.6256 5.13571 23.7249C5.09599 23.8241 5.06621 23.9234 5.04635 24.0227C5.0265 24.1021 4.99671 24.1915 4.957 24.2908V25.1545C4.93714 25.4325 4.91728 25.7205 4.89743 26.0183C4.87757 26.2963 4.84778 26.5743 4.80807 26.8523C4.7485 27.4281 4.65914 27.9941 4.54 28.55L4.48043 27.4182ZM2.81247 23.9333C2.85218 23.7745 2.88196 23.6256 2.90182 23.4866C2.92168 23.3277 2.94153 23.1788 2.96139 23.0398V22.2952L3.02096 21.074C3.1401 21.1733 3.21953 21.3619 3.25924 21.6399C3.2791 21.7987 3.28903 21.9278 3.28903 22.0271C3.30888 22.1264 3.31881 22.2157 3.31881 22.2952L3.1401 23.9929H2.90182C2.88196 23.9929 2.86211 23.983 2.84225 23.9631C2.82239 23.9631 2.81247 23.9532 2.81247 23.9333ZM3.79538 3.44116L3.73581 3.5603L3.61666 3.38159C3.57695 3.24259 3.53724 3.11353 3.49752 2.99438C3.45781 2.87524 3.42803 2.76603 3.40817 2.66675C3.38831 2.56746 3.36845 2.46818 3.3486 2.3689C3.32874 2.24976 3.29896 2.14054 3.25924 2.04126L3.1401 1.77319L3.02096 1.53491C2.98125 1.4952 2.96139 1.46541 2.96139 1.44556V1.41577L3.02096 1.29663L3.08053 1.41577C3.1401 1.45549 3.19967 1.50513 3.25924 1.5647C3.31881 1.62427 3.36845 1.67391 3.40817 1.71362C3.50745 1.83276 3.57695 1.96183 3.61666 2.10083L3.97409 2.7561C3.97409 2.81567 3.97409 2.87524 3.97409 2.93481C3.99394 2.99438 4.0138 3.06388 4.03366 3.14331C4.05351 3.28231 4.03366 3.38159 3.97409 3.44116H3.79538ZM4.65914 5.25806L4.42086 4.90063V4.60278H4.48043C4.54 4.66235 4.57972 4.72192 4.59957 4.78149C4.61943 4.84106 4.65914 4.90063 4.71872 4.96021C4.73857 4.98006 4.7485 4.99992 4.7485 5.01978C4.76836 5.03963 4.78821 5.05949 4.80807 5.07935C4.82793 5.11906 4.818 5.15877 4.77829 5.19849L4.65914 5.25806ZM2.27633 18.989V18.6912C2.45504 18.016 2.57418 17.321 2.63375 16.6062V15.8616C2.63375 14.7893 2.57418 13.6674 2.45504 12.4958C2.39547 11.92 2.34583 11.3442 2.30612 10.7683C2.2664 10.1925 2.23662 9.61662 2.21676 9.04077L2.75289 9.21948V9.60669C2.79261 10.1031 2.83232 10.5896 2.87204 11.0662C2.91175 11.5427 2.95146 12.0094 2.99118 12.4661C3.03089 12.9228 3.0706 13.3795 3.11032 13.8362C3.16989 14.2929 3.21953 14.7496 3.25924 15.2063L3.31881 15.7424C3.37838 16.8147 3.31881 17.9366 3.1401 19.1082L3.08053 19.3464H3.02096L2.90182 19.4656L2.75289 19.3464C2.63375 19.3464 2.5444 19.3067 2.48483 19.2273C2.42526 19.1876 2.35576 19.1082 2.27633 18.989ZM2.09762 29.7712L1.5317 33.137V33.4944L1.68063 34.1199C1.68063 34.1794 1.69056 34.2291 1.71041 34.2688C1.71041 34.3284 1.7402 34.3582 1.79977 34.3582C1.83948 34.239 1.85934 34.1397 1.85934 34.0603L1.97848 33.8816L2.03805 33.3157C2.05791 33.1767 2.07776 33.0476 2.09762 32.9285C2.11748 32.7895 2.14726 32.6505 2.18698 32.5115C2.20683 32.3725 2.23662 32.2335 2.27633 32.0945C2.31605 31.9356 2.35576 31.7768 2.39547 31.6179V31.3796C2.4749 30.8832 2.56426 30.3471 2.66354 29.7712C2.70325 29.4932 2.74297 29.2252 2.78268 28.967C2.82239 28.7089 2.86211 28.4508 2.90182 28.1926V25.6907L2.39547 26.3162L2.09762 29.7712ZM19.0454 32.72L18.9858 33.0178V33.3157L18.8667 33.6731L18.688 34.1199C18.6681 34.1993 18.6383 34.2986 18.5986 34.4177C18.5787 34.4574 18.549 34.5071 18.5092 34.5667C18.4695 34.6064 18.4298 34.656 18.3901 34.7156H18.5092C18.5092 34.8347 18.4795 34.9042 18.4199 34.9241C18.3603 34.9638 18.2908 35.0432 18.2114 35.1624L17.4668 35.5198L17.0498 35.6985L16.7221 35.8772L16.3647 35.9368L16.1264 35.9963H15.8881C15.8484 35.9963 15.7988 36.0063 15.7392 36.0261C15.6995 36.0261 15.6399 36.0361 15.5605 36.0559H14.5478L8.14401 34.1199C8.18372 34.1596 8.22343 34.1993 8.26315 34.239C8.32272 34.2787 8.39222 34.3284 8.47164 34.3879C8.55107 34.4475 8.62057 34.5071 8.68014 34.5667C8.75957 34.6262 8.83899 34.6957 8.91842 34.7751L9.33541 35.1921C9.39498 35.2716 9.44463 35.351 9.48434 35.4304C9.52405 35.49 9.56377 35.5396 9.60348 35.5793L13.9223 36.6814H14.1904C14.2301 36.6814 14.3095 36.7013 14.4287 36.741L14.667 37.2175C14.7067 37.2175 14.7265 37.2275 14.7265 37.2473C14.7265 37.2672 14.7464 37.2771 14.7861 37.2771L14.8457 37.3367C14.8854 37.3764 14.935 37.4062 14.9946 37.426C15.0145 37.4459 15.0442 37.4558 15.0839 37.4558C15.0839 37.5551 15.0442 37.6047 14.9648 37.6047H14.7265L14.4882 37.4558C14.2698 37.436 14.0415 37.4161 13.8032 37.3962C13.5848 37.3764 13.3564 37.3565 13.1181 37.3367C12.86 37.3168 12.6118 37.297 12.3735 37.2771C12.1551 37.2572 11.9367 37.2374 11.7182 37.2175L9.78219 36.9792L7.22067 36.6814C6.78382 36.5424 6.41647 36.3637 6.11862 36.1453C5.82077 35.9864 5.49313 35.7581 5.13571 35.4602L4.24215 34.8943C4.12301 34.8943 3.99394 34.8645 3.85495 34.8049C3.67623 34.7652 3.53724 34.7751 3.43795 34.8347L3.55709 34.9836L5.52291 36.3835L6.29733 36.9197C6.73418 37.0388 7.1611 37.2175 7.57809 37.4558L9.03756 37.9622L9.9609 38.2004L11.0034 38.4983L11.8672 38.5579L12.582 38.677H13.7138C13.8727 38.677 14.0415 38.6671 14.2202 38.6472C14.3989 38.6472 14.5875 38.6373 14.7861 38.6174L15.0839 38.5579H15.1435C15.2031 38.6174 15.2428 38.6472 15.2627 38.6472C15.2825 38.6869 15.3421 38.7167 15.4414 38.7366L15.6499 38.8259C15.6499 38.8656 15.63 38.8855 15.5903 38.8855H14.4287L13.8628 38.9451H12.2246L11.4799 38.8855L10.7055 38.8259L9.90133 38.677C9.80205 38.6571 9.70276 38.6373 9.60348 38.6174C9.52405 38.5976 9.4347 38.5678 9.33541 38.5281C9.23613 38.5082 9.13685 38.4784 9.03756 38.4387C8.93828 38.399 8.83899 38.3593 8.73971 38.3196L6.86325 37.9622C6.76396 37.9622 6.67461 37.9622 6.59518 37.9622C6.51575 37.9423 6.43633 37.9224 6.3569 37.9026C6.2179 37.8827 6.05905 37.9026 5.88034 37.9622L5.82077 38.1409L5.88034 38.2004C6.11862 38.5181 6.43633 38.7564 6.83346 38.9153C7.25045 39.1139 7.64759 39.2826 8.02487 39.4216L8.79928 39.6599L9.72262 39.8386L10.5864 40.0173L11.4204 40.2258L12.4033 40.4045H14.101L14.9648 40.2854L15.8286 40.0173L16.603 39.9578L17.3476 39.7791L17.9433 39.6599L18.6284 39.4812L19.1049 39.2429C19.2042 39.2032 19.2936 39.1734 19.373 39.1536C19.4723 39.1337 19.5716 39.1039 19.6709 39.0642L20.207 38.8855L20.5048 38.677C20.6637 38.5777 20.8226 38.4784 20.9814 38.3792C21.1403 38.2799 21.2892 38.1905 21.4282 38.1111C21.5672 38.0317 21.7062 37.9522 21.8452 37.8728C21.9842 37.7934 22.1331 37.704 22.292 37.6047L22.4111 37.4558L22.5302 37.3367L22.8877 37.158L23.0068 36.9792L23.1259 36.741L23.2749 36.6814L23.4536 36.4431L23.6919 35.9963L23.9897 35.4602L24.2876 34.9836L24.4067 34.4177L24.6152 34.0007L24.7343 33.4944L24.8535 33.0178L24.9726 32.4817V31.052L24.8535 30.5754L24.7343 30.2776L24.6748 29.7117L24.4663 29.3542L24.3471 28.9373L24.2876 28.6394L24.1089 28.3713L23.9897 27.9543L23.811 27.7161L23.6323 27.4182L23.4536 27.1501L23.2749 26.9119L23.0664 26.614L22.7685 26.197L22.4111 25.8098L21.9941 25.4524L21.6069 25.0354L21.1899 24.6482C20.9715 24.4893 20.7431 24.3503 20.5048 24.2312C20.2864 24.0922 20.0481 23.9532 19.79 23.8142L19.0454 23.4866L18.5092 23.01L17.7646 22.7122C17.6256 22.6526 17.4866 22.593 17.3476 22.5334C17.2285 22.4739 17.1093 22.4242 16.9902 22.3845C16.8512 22.3448 16.7221 22.2952 16.603 22.2356C16.4839 22.176 16.3647 22.1264 16.2456 22.0867L15.6499 20.3889C16.186 19.9521 16.7122 19.4854 17.2285 18.989C17.4866 18.7507 17.7348 18.5125 17.9731 18.2742C18.2312 18.0359 18.4894 17.8075 18.7475 17.5891L20.0879 16.0701L20.5644 15.385L21.0708 14.6702L21.6665 13.9255L22.0537 13.2405C22.1132 13.1213 22.1728 13.0121 22.2324 12.9128C22.292 12.8136 22.3416 12.7143 22.3813 12.615C22.4607 12.4561 22.5302 12.2377 22.5898 11.9597L22.8281 11.6619L22.8877 11.1853L23.0068 10.8875L23.0664 10.4407L23.1259 10.0833C23.1259 9.94425 23.1359 9.84497 23.1557 9.7854C23.1756 9.72583 23.1855 9.63647 23.1855 9.51733V8.86206L23.1259 8.44507L23.0664 7.99829L23.0068 7.64087L22.8877 7.22388C22.8281 7.06502 22.7288 6.9161 22.5898 6.7771L22.4111 6.30054C22.3912 6.24097 22.3416 6.15161 22.2622 6.03247C22.2026 5.9729 22.1331 5.88354 22.0537 5.7644L21.726 5.3772L21.4282 5.07935C21.3289 4.98006 21.2495 4.89071 21.1899 4.81128C21.1502 4.75171 21.1105 4.70207 21.0708 4.66235C21.0311 4.62264 20.9913 4.58293 20.9516 4.54321L20.5644 4.27515L20.207 4.09644L19.8496 3.85815C19.7304 3.75887 19.6312 3.68937 19.5517 3.64966C19.3929 3.60994 19.2837 3.58016 19.2241 3.5603L18.8667 3.38159L18.3305 3.1731L17.8242 2.99438L17.4668 2.87524H16.9902L16.5434 2.7561L16.1264 2.69653H15.7094L14.7861 2.63696L13.9223 2.69653C13.6642 2.71639 13.4061 2.74618 13.1479 2.78589C12.9096 2.8256 12.6614 2.86532 12.4033 2.90503C11.887 3.00431 11.3807 3.12345 10.8842 3.26245L9.03756 3.67944L4.03366 5.82397C3.97409 5.86369 3.90459 5.9034 3.82516 5.94312C3.76559 5.96297 3.68616 5.99276 3.58688 6.03247C3.4876 6.07218 3.39824 6.12183 3.31881 6.1814C3.23939 6.22111 3.15996 6.26082 3.08053 6.30054C3.0011 6.36011 2.92168 6.41968 2.84225 6.47925C2.78268 6.53882 2.72311 6.59839 2.66354 6.65796C2.5444 6.7771 2.4749 6.90617 2.45504 7.04517L2.63375 7.10474H2.81247C3.09046 7.00545 3.39824 6.86646 3.73581 6.68774C3.89466 6.60832 4.05351 6.52889 4.21237 6.44946C4.39108 6.37004 4.55986 6.28068 4.71872 6.1814L9.54391 4.48364L10.5268 4.21558C10.646 4.19572 10.7651 4.17586 10.8842 4.15601C11.0034 4.13615 11.1126 4.11629 11.2119 4.09644C11.3112 4.07658 11.4204 4.06665 11.5395 4.06665C11.6587 4.04679 11.7877 4.01701 11.9267 3.97729L12.8203 3.91772L13.684 3.85815H15.5605L15.8286 3.91772H15.6499V3.85815H15.5605H14.0415L13.3266 3.91772C13.0089 3.95744 12.6912 3.99715 12.3735 4.03687C12.0756 4.07658 11.7778 4.11629 11.4799 4.15601C10.8445 4.25529 10.219 4.40422 9.60348 4.60278L8.91842 4.96021L8.20358 5.13892C7.58802 5.35734 6.98239 5.60555 6.38668 5.88354C5.81084 6.14168 5.23499 6.43953 4.65914 6.7771L3.1401 7.46216C3.06067 7.54159 2.98125 7.59123 2.90182 7.61108C2.78268 7.63094 2.67347 7.68058 2.57418 7.76001L2.90182 8.11743C2.98125 8.21672 3.0706 8.2465 3.16989 8.20679C3.24931 8.16707 3.33867 8.09757 3.43795 7.99829L5.19528 7.22388C5.03642 7.34302 4.92721 7.41252 4.86764 7.43237C4.80807 7.45223 4.69886 7.52173 4.54 7.64087L4.18258 7.99829C4.32158 7.99829 4.43079 7.98836 4.51022 7.96851C4.62936 7.94865 4.71872 7.91886 4.77829 7.87915L5.82077 7.5813L8.20358 6.71753L8.79928 6.47925L9.48434 6.30054C9.66305 6.22111 9.8219 6.17147 9.9609 6.15161C10.0403 6.13175 10.1098 6.10197 10.1694 6.06226C10.2488 6.02254 10.3382 5.98283 10.4375 5.94312L13.3862 5.43677H15.3818L16.3647 5.7644L16.603 5.82397L16.7817 5.94312H16.9604C17.0398 5.98283 17.0895 6.02254 17.1093 6.06226L17.3476 6.12183L17.4668 6.1814L17.6455 6.41968L17.7646 6.47925L17.8838 6.7771L18.1518 6.89624L18.271 7.04517L18.3901 7.22388L18.5688 7.46216L18.688 7.64087L18.7475 7.87915L18.8667 8.11743L18.9262 8.32593V8.80249L18.9858 9.04077L18.9262 9.10034V9.60669L18.8667 9.72583V9.90454L18.7475 10.0833L18.688 10.262L18.6284 10.3811C18.6085 10.4804 18.5291 10.6492 18.3901 10.8875L18.271 11.0066L17.9433 11.4236L17.705 11.8406L17.4072 12.2874C17.3278 12.3866 17.2483 12.476 17.1689 12.5554C17.0895 12.615 17.0101 12.6845 16.9306 12.7639C16.8512 12.8433 16.7718 12.9327 16.6923 13.032C16.6129 13.1114 16.5236 13.2008 16.4243 13.3L16.3647 13.3894L16.6626 13.0022L16.8413 12.6448L17.1093 12.4661L17.2285 12.1086L17.4668 11.781L17.5859 11.6023L17.705 11.1853L17.8242 10.947L17.9433 10.6194L18.0625 10.3811L18.1518 10.0833L18.2114 9.84497V9.33862C18.2511 9.29891 18.271 9.24927 18.271 9.1897V9.04077L18.2114 8.86206V8.56421L18.1518 8.32593V8.177L18.0625 7.93872L17.8838 7.76001C17.8838 7.68058 17.8738 7.63094 17.854 7.61108C17.8341 7.59123 17.8043 7.54159 17.7646 7.46216L17.6455 7.28345L17.5859 7.22388L17.4668 7.04517L17.3476 6.89624L17.1689 6.7771L17.0498 6.65796L16.8413 6.47925L16.7221 6.41968V6.30054H16.603L16.5434 6.1814H16.3647V6.12183H16.3051L15.8286 5.94312H15.6499C15.5704 5.94312 15.5208 5.93319 15.5009 5.91333C15.4811 5.89347 15.4414 5.88354 15.3818 5.88354L14.9648 5.82397L14.4882 5.7644H13.9223L13.3266 5.82397L12.582 5.94312C12.2444 5.94312 11.9168 5.9729 11.5991 6.03247C11.4402 6.07218 11.2814 6.12183 11.1225 6.1814C10.9637 6.22111 10.8048 6.26082 10.646 6.30054L7.33981 7.46216L7.1611 7.5813H7.22067C7.31995 7.54159 7.40931 7.5118 7.48873 7.49194C7.58802 7.47209 7.6873 7.4423 7.78659 7.40259C7.88587 7.36287 7.98515 7.33309 8.08444 7.31323C8.18372 7.29338 8.28301 7.26359 8.38229 7.22388L10.7651 6.47925L13.2075 6.12183H13.5947C13.694 6.12183 13.8429 6.10197 14.0415 6.06226L14.667 6.12183H15.2627L15.5009 6.1814H15.7094L15.9477 6.30054H16.0669L16.2456 6.47925H16.3647L16.603 6.71753L16.7221 6.7771L17.2583 7.31323C17.3178 7.3728 17.3873 7.48201 17.4668 7.64087L17.5263 7.76001H17.5859L17.705 7.99829C17.7448 8.11743 17.7646 8.19686 17.7646 8.23657C17.7646 8.29614 17.7845 8.34578 17.8242 8.3855L17.8838 9.04077V9.27905L17.8242 9.51733V9.66626L17.6455 10.2917C17.6058 10.391 17.566 10.4903 17.5263 10.5896C17.4866 10.6889 17.4469 10.7882 17.4072 10.8875L17.3476 11.0066L17.1689 11.1257L17.1093 11.364L16.9902 11.5427L16.8413 11.6619L16.7221 11.8406C16.7023 11.92 16.603 12.0292 16.4243 12.1682L15.8881 13.2405L15.6499 13.5085C15.5903 13.5681 15.5506 13.6178 15.5307 13.6575L15.3818 13.8064L14.1606 15.2659L8.32272 20.3889L8.14401 20.4485L9.42477 24.5291C9.42477 24.5688 9.44463 24.5886 9.48434 24.5886H9.54391L14.3691 26.3757L15.0839 26.7332C15.2825 26.8722 15.5307 26.9913 15.8286 27.0906L17.705 28.4905C17.7845 28.5699 17.8838 28.6493 18.0029 28.7288L18.271 28.9968L18.688 29.6521L18.9262 30.218V30.2776L18.9858 30.4563V30.635L19.0454 30.7542V32.72ZM9.60348 35.5793C9.74248 35.7183 9.74248 35.8176 9.60348 35.8772L8.68014 35.3411L9.60348 35.5793ZM12.1054 22.8909L12.2246 23.1887C12.2643 23.1887 12.304 23.2086 12.3437 23.2483C12.3834 23.288 12.4231 23.3079 12.4629 23.3079C12.4231 23.427 12.4033 23.4965 12.4033 23.5164C12.3636 23.5561 12.3239 23.5759 12.2841 23.5759L12.4033 23.8142C12.4033 23.7546 12.4827 23.6752 12.6416 23.5759C12.9196 23.7348 13.1876 23.8837 13.4458 24.0227C13.7039 24.1617 13.962 24.3106 14.2202 24.4695C14.4783 24.6283 14.7166 24.7773 14.935 24.9163C15.1733 25.0354 15.4017 25.1545 15.6201 25.2737C15.8584 25.4127 16.0867 25.5517 16.3051 25.6907C16.5434 25.8098 16.7718 25.929 16.9902 26.0481L18.6284 27.4182L19.0454 27.7756C19.1049 27.8153 19.1645 27.865 19.2241 27.9246C19.2837 27.9841 19.3432 28.0437 19.4028 28.1033C19.4425 28.1827 19.4922 28.2621 19.5517 28.3416C19.6113 28.4011 19.6709 28.4706 19.7304 28.55L20.0879 28.9373C20.1474 29.1358 20.207 29.2748 20.2666 29.3542L20.4453 29.7117L20.5644 30.0989L20.624 30.3372L20.7729 30.635L20.8325 30.9924V31.2605L20.8921 31.4988V31.9158L20.8325 32.1541L20.7729 32.6604L20.5644 33.0774L20.4453 33.6135L20.3261 34.0007C20.2269 34.1596 20.1276 34.3383 20.0283 34.5369C19.929 34.7354 19.8099 34.9439 19.6709 35.1624V35.2219L20.2666 33.9412L20.3857 33.3157L20.5048 33.0178C20.5446 32.8193 20.5644 32.6604 20.5644 32.5413C20.5644 32.442 20.5843 32.3129 20.624 32.1541V31.3796L20.5644 31.1116L20.4453 30.5159L20.3857 30.2776L20.2964 30.0095C20.2765 29.9698 20.2566 29.9301 20.2368 29.8904C20.2368 29.8507 20.2269 29.811 20.207 29.7712L20.0283 29.3542L19.6709 28.8181L19.2241 28.4309L18.8667 27.8948L18.3305 27.5374C18.1915 27.4381 18.0625 27.3289 17.9433 27.2097C17.8242 27.0906 17.6951 26.9814 17.5561 26.8821C17.2583 26.6637 16.9604 26.4949 16.6626 26.3757L9.84176 23.7546H9.78219L9.03756 21.1931L9.09713 21.074C9.17656 21.0343 9.2262 21.0144 9.24606 21.0144H9.42477C9.44463 21.0343 9.45455 21.0541 9.45455 21.074C9.47441 21.0938 9.49427 21.1137 9.51412 21.1335C9.51412 21.1733 9.54391 21.1931 9.60348 21.1931L9.72262 21.074L9.3652 21.3718C9.46448 21.4314 9.56377 21.5009 9.66305 21.5803C9.78219 21.6399 9.8914 21.7094 9.99069 21.7888C10.1893 21.9477 10.4275 22.0966 10.7055 22.2356C10.9637 22.4143 11.2615 22.593 11.5991 22.7717L11.6587 23.1292C11.7381 23.0497 11.8076 23.01 11.8672 23.01H12.0459L11.9267 22.9504C11.9466 22.9504 11.9565 22.9504 11.9565 22.9504C11.9764 22.9306 11.9962 22.9207 12.0161 22.9207C12.0359 22.9207 12.0459 22.9107 12.0459 22.8909H12.1054ZM12.2246 23.1887L12.2841 23.5759H12.165L12.0459 23.01L12.2246 23.1887ZM16.3051 22.2952C16.5831 22.4143 16.8512 22.5434 17.1093 22.6824C17.3873 22.8015 17.6653 22.9306 17.9433 23.0696C18.2213 23.2086 18.4795 23.3575 18.7177 23.5164C18.9759 23.6752 19.234 23.8341 19.4922 23.9929L23.2749 27.8948L23.4536 28.1926L23.3344 28.0735C23.2352 27.9742 23.1359 27.865 23.0366 27.7458C22.9572 27.6267 22.8678 27.5076 22.7685 27.3884C22.6692 27.2693 22.56 27.1501 22.4409 27.031C22.3416 26.892 22.2324 26.753 22.1132 26.614L19.1049 24.2908L17.705 23.5759C17.5263 23.3774 17.3278 23.2284 17.1093 23.1292C16.9902 23.0894 16.8711 23.0497 16.7519 23.01C16.6328 22.9703 16.5236 22.9306 16.4243 22.8909L16.3051 22.2952ZM18.688 12.8235L18.5688 12.8831L18.3901 13.2405L18.1518 13.5085L17.8242 13.9255L17.4668 14.4617L16.9902 15.0872L16.4243 15.5637L15.9477 16.1296L12.2246 19.3464C12.0856 19.4457 11.9367 19.5549 11.7778 19.6741C11.6189 19.7932 11.4601 19.9223 11.3012 20.0613C10.9835 20.3194 10.6162 20.5279 10.1992 20.6868L11.3608 19.5251L14.101 17.47L14.7265 17.0828L15.1435 16.5466L15.6499 16.0105L17.3476 14.2234L17.8838 13.5085L18.3901 12.7639L18.8667 12.1682L19.1049 11.6619L19.2837 11.2449L19.4326 11.0662V11.1257L19.3432 11.1853V11.2449L18.688 12.7639V12.8235ZM15.3818 19.0486C15.3619 19.0486 15.3421 19.0585 15.3222 19.0784C15.2825 19.1181 15.2627 19.1479 15.2627 19.1677L15.1435 18.8699C15.2627 18.9096 15.3222 18.9394 15.3222 18.9592C15.3024 18.9791 15.3222 19.0089 15.3818 19.0486ZM7.63766 36.1155L7.81637 36.175L7.33981 36.1155C6.82353 35.9169 6.32711 35.6488 5.85055 35.3113C5.39385 34.9936 4.91728 34.6957 4.42086 34.4177L3.73581 34.0603C3.71595 34.0404 3.69609 34.0305 3.67623 34.0305C3.65638 34.0107 3.63652 33.9908 3.61666 33.9709C3.57695 33.9312 3.55709 33.9014 3.55709 33.8816H3.61666C3.85495 33.9412 4.13294 34.0206 4.45065 34.1199C4.58965 34.1794 4.71872 34.239 4.83786 34.2986C4.957 34.3582 5.07614 34.4177 5.19528 34.4773L6.74411 35.4006C6.8831 35.4999 7.06181 35.5893 7.28024 35.6687C7.45895 35.7481 7.6178 35.8772 7.7568 36.0559L7.63766 36.1155ZM11.2417 36.9197L10.3183 36.741C10.2389 36.741 10.1793 36.731 10.1396 36.7112C10.0999 36.6913 10.0403 36.6814 9.9609 36.6814H9.90133L10.646 36.6218C10.9438 36.6218 11.1622 36.6615 11.3012 36.741L11.2417 36.9197ZM12.7607 22.0271L13.2671 22.2058L13.8628 22.4739L14.5478 22.7717L15.3818 23.0696L16.2456 23.5759L17.0498 23.9929L17.8242 24.3503L18.5092 24.8567L18.7475 25.095L20.9516 26.9119L21.5473 27.4778C21.587 27.5572 21.6367 27.6366 21.6963 27.7161C21.7558 27.7955 21.8154 27.8848 21.875 27.9841C21.9345 28.0834 21.9941 28.1827 22.0537 28.282C22.1331 28.3614 22.2125 28.4508 22.292 28.55L22.709 29.2947L22.8877 29.7712L22.9472 30.2776L23.0664 30.5159L23.1259 30.9924V32.3328L23.0664 32.7795L23.0068 33.3157L22.8877 33.8816L22.7685 34.239L22.5302 34.5964L22.3515 35.1624L22.1132 35.5198L21.9048 35.9368L21.6665 36.175L21.5473 36.4431L21.2495 36.6814C21.1502 36.7608 21.0608 36.8403 20.9814 36.9197C20.902 36.9792 20.8126 37.0388 20.7133 37.0984C20.6141 37.158 20.5247 37.2175 20.4453 37.2771C20.3659 37.3367 20.2864 37.3962 20.207 37.4558H20.0879L19.9091 37.6047H19.79L19.7304 37.7239C19.651 37.7636 19.6014 37.7834 19.5815 37.7834H19.3432L18.9262 37.9622C18.827 37.9622 18.7674 37.9721 18.7475 37.9919C18.7078 38.0317 18.6681 38.0217 18.6284 37.9622L18.688 37.9026L19.1049 37.6047L20.2666 36.9792L21.0708 36.324L21.309 36.1155C21.3289 36.0559 21.4083 35.9566 21.5473 35.8176L21.6665 35.4602L21.9048 35.0432L22.1132 34.5964C22.1331 34.517 22.1827 34.3979 22.2622 34.239C22.3217 34.1397 22.3714 34.0404 22.4111 33.9412L22.5302 33.4944L22.5898 33.0178C22.6295 32.9583 22.6494 32.8987 22.6494 32.8391C22.6692 32.7795 22.6891 32.7299 22.709 32.6902V31.1116L22.5898 30.7542L22.5302 30.4563L22.4111 30.0989L22.292 29.7117L22.1132 29.4138L21.9941 28.9968L21.726 28.7585L21.6069 28.4309L21.309 28.0735L21.0708 27.8948L20.8921 27.6565C20.8126 27.5374 20.7431 27.4579 20.6836 27.4182C20.5843 27.3785 20.5048 27.2891 20.4453 27.1501L19.9091 26.614L19.6113 26.4353L19.2837 26.197L18.9858 25.929L18.688 25.7502L18.3305 25.512L17.9433 25.2737L17.1689 24.7673L16.3051 24.2908L15.4414 23.8738C15.1832 23.7745 14.9251 23.6752 14.667 23.5759C14.4088 23.4568 14.1408 23.3277 13.8628 23.1887C13.5848 23.0696 13.3068 22.9504 13.0288 22.8313C12.7706 22.7122 12.5026 22.593 12.2246 22.4739L11.7182 22.2952C11.6388 22.2356 11.5991 22.1661 11.5991 22.0867C11.6785 22.047 11.748 22.0172 11.8076 21.9973C11.8672 21.9775 11.9664 21.9675 12.1054 21.9675L12.7607 22.0271ZM19.4326 15.2063L19.7304 14.6702L20.0879 14.2234L20.3261 13.7468L20.5644 13.449L20.8921 12.8831L21.0708 12.5256L21.309 12.1086L21.5473 11.781L21.726 11.1257L21.7856 10.8875L21.9941 10.5002L22.0537 10.1428L22.1132 9.90454L22.1728 9.60669C22.1728 9.50741 22.1827 9.42798 22.2026 9.36841C22.2026 9.28898 22.2324 9.19963 22.292 9.10034V8.92163L22.1728 8.32593V7.93872C22.1331 7.81958 22.1132 7.73022 22.1132 7.67065C22.1132 7.61108 22.0934 7.52173 22.0537 7.40259L21.9048 7.04517L21.6665 6.71753C21.6665 6.65796 21.6565 6.59839 21.6367 6.53882C21.6367 6.47925 21.6268 6.40975 21.6069 6.33032C21.5473 6.23104 21.4679 6.14168 21.3686 6.06226L21.1899 5.7644L20.8921 5.31763L20.5048 5.07935L19.9091 4.48364L19.6113 4.21558L19.2837 4.09644L18.9858 3.91772L18.688 3.85815L18.3305 3.61987L18.1518 3.5603L17.8242 3.38159H17.4072L17.1093 3.32202L16.8413 3.26245L16.6626 3.1731C16.5831 3.13338 16.5335 3.11353 16.5136 3.11353H14.8457C14.7265 3.11353 14.5875 3.16317 14.4287 3.26245C14.4684 3.30216 14.5081 3.32202 14.5478 3.32202L15.2627 3.38159H16.0073L16.3647 3.44116C16.4441 3.44116 16.5434 3.46102 16.6626 3.50073C16.7023 3.52059 16.742 3.54045 16.7817 3.5603C16.8413 3.58016 16.9108 3.60002 16.9902 3.61987H17.4072L17.705 3.85815L18.1518 3.91772C18.271 3.99715 18.3603 4.04679 18.4199 4.06665C18.4993 4.12622 18.5887 4.15601 18.688 4.15601L19.0454 4.33472L19.2837 4.54321L19.6113 4.84106L20.0879 5.19849C20.207 5.31763 20.2864 5.40698 20.3261 5.46655C20.3659 5.50627 20.4056 5.55591 20.4453 5.61548C20.485 5.67505 20.5247 5.74455 20.5644 5.82397L20.624 5.94312C20.7431 6.02254 20.8027 6.06226 20.8027 6.06226C20.8226 6.08211 20.8325 6.10197 20.8325 6.12183C20.8523 6.14168 20.8722 6.16154 20.8921 6.1814L21.0112 6.47925L21.2495 6.7771L21.3686 7.04517L21.4282 7.40259L21.6069 7.76001L21.6665 8.177V9.66626L21.6069 10.0833L21.4282 10.4407L21.3686 10.7385C21.2892 10.9371 21.2395 11.086 21.2197 11.1853C21.1998 11.3243 21.1303 11.4832 21.0112 11.6619L20.8921 11.9597L20.4453 12.7639L20.0879 13.449L19.6709 13.9851C19.5716 14.144 19.4624 14.3028 19.3432 14.4617C19.2439 14.6007 19.1447 14.7496 19.0454 14.9084C18.8468 15.2063 18.6085 15.4843 18.3305 15.7424L19.4326 15.2063Z" fill="#A9AFAD"/>
<path d="M29.2033 38.8855L25.9269 36.6814L26.0461 35.4006L25.5993 27.1501L25.6589 26.0481L25.5993 18.572L25.4802 17.5891C25.5397 17.2515 25.5993 16.9041 25.6589 16.5466C25.7184 16.1892 25.7681 15.8318 25.8078 15.4744C25.8475 15.1169 25.8872 14.7694 25.9269 14.4319C25.9667 14.0745 26.0064 13.727 26.0461 13.3894V12.3469C26.1255 10.9967 26.3042 9.61662 26.5822 8.20679C26.7014 7.5118 26.8304 6.82674 26.9694 6.15161C27.1283 5.47648 27.2871 4.81128 27.446 4.15601L27.6247 3.91772V4.15601L26.7609 9.66626C26.7212 9.82511 26.6914 9.97404 26.6716 10.113C26.6517 10.2322 26.6319 10.3612 26.612 10.5002C26.5723 10.6392 26.5425 10.7782 26.5226 10.9172C26.5028 11.0364 26.4829 11.1456 26.4631 11.2449L26.2844 12.4661L26.1652 18.5125C26.2446 18.2345 26.3141 17.9565 26.3737 17.6785C26.4531 17.3806 26.5127 17.0927 26.5524 16.8147C26.5921 16.5367 26.6319 16.2587 26.6716 15.9807C26.7311 15.7027 26.7808 15.4247 26.8205 15.1467L26.8801 14.7297C26.9198 13.8759 26.9694 13.032 27.029 12.198C27.1084 11.364 27.1978 10.5201 27.2971 9.66626C27.3765 8.81242 27.4758 7.96851 27.5949 7.13452C27.7339 6.30054 27.8828 5.45662 28.0417 4.60278L28.4289 3.38159L28.6076 2.7561C28.6473 2.69653 28.687 2.60718 28.7267 2.48804C28.7665 2.40861 28.826 2.35897 28.9055 2.33911V2.7561L29.0842 3.26245C29.1437 2.94474 29.1735 2.59725 29.1735 2.21997C29.1537 1.88241 29.2033 1.53491 29.3224 1.17749L29.6501 0.879639L30.0075 1.05835C30.1266 1.17749 30.1763 1.30656 30.1564 1.44556C30.1167 1.60441 30.0869 1.78312 30.0671 1.98169L30.0075 3.26245V4.21558L29.9479 5.01978L29.6501 8.92163C29.7494 8.3855 29.8288 7.84937 29.8884 7.31323C29.9678 6.75724 30.0472 6.19132 30.1266 5.61548C30.2855 4.48364 30.4642 3.39152 30.6628 2.33911L30.7223 2.04126H31.1096C31.328 2.31925 31.4372 2.63696 31.4372 2.99438C31.4173 3.19295 31.4074 3.38159 31.4074 3.5603C31.4074 3.73901 31.4074 3.91772 31.4074 4.09644L31.2287 6.47925C31.2486 9.2592 31.2783 11.9994 31.3181 14.7C31.3181 17.4402 31.2287 20.1903 31.05 22.9504L30.7819 23.8738C30.7819 23.9333 30.772 23.9731 30.7521 23.9929C30.7124 24.0326 30.6826 24.0525 30.6628 24.0525V24.1716L30.6032 24.2312V24.4695L30.6628 24.6482C30.7025 25.0453 30.7422 25.4524 30.7819 25.8694C30.8216 26.2665 30.8514 26.6637 30.8713 27.0608C30.8911 27.4579 30.9011 27.865 30.9011 28.282C30.9011 28.699 30.911 29.106 30.9308 29.5032C30.9308 29.9003 30.9308 30.3074 30.9308 30.7244C30.9308 31.1414 30.9408 31.5484 30.9606 31.9456C30.9805 32.3427 31.0003 32.7498 31.0202 33.1667C31.0401 33.5837 31.0698 34.0007 31.1096 34.4177H31.1393C31.1592 34.4177 31.189 34.3979 31.2287 34.3582L31.5265 30.5159C31.5067 30.079 31.4868 29.6521 31.467 29.2351C31.467 28.8181 31.467 28.3912 31.467 27.9543C31.4471 27.5374 31.4372 27.1303 31.4372 26.7332C31.457 26.3162 31.4868 25.9091 31.5265 25.512L31.7053 25.1545L31.7648 25.2737L31.7053 29.2351C31.7053 29.5727 31.7152 29.9102 31.735 30.2478C31.7549 30.5854 31.7847 30.9229 31.8244 31.2605C31.8641 31.5981 31.884 31.9456 31.884 32.303C31.9038 32.6405 31.9038 32.9781 31.884 33.3157L31.8244 33.9412C31.8244 34.0603 31.8145 34.1397 31.7946 34.1794C31.7748 34.2192 31.7648 34.2787 31.7648 34.3582C32.0428 34.3184 32.3208 34.2986 32.5988 34.2986C32.8768 34.2787 33.1548 34.2589 33.4328 34.239H35.7858C36.183 34.2192 36.5801 34.1993 36.9772 34.1794C37.3744 34.1596 37.7715 34.1298 38.1686 34.0901C38.5658 34.0504 38.9629 34.0107 39.36 33.9709C39.7572 33.9312 40.1543 33.8915 40.5514 33.8518C40.9486 33.8121 41.3358 33.7823 41.7131 33.7625C42.1102 33.7227 42.5073 33.683 42.9045 33.6433C43.3016 33.6235 43.6888 33.6135 44.0661 33.6135C44.4632 33.5937 44.8604 33.5937 45.2575 33.6135H45.7341L45.7936 33.9412C45.5355 34.1993 45.2376 34.3681 44.9001 34.4475C44.7015 34.5071 44.5029 34.5667 44.3044 34.6262C44.1257 34.6858 43.937 34.7354 43.7385 34.7751L40.6706 35.2815H39.8366L39.9557 35.3411C39.9756 35.3808 40.0054 35.4205 40.0451 35.4602C40.065 35.4801 40.0749 35.5198 40.0749 35.5793H40.4919L48.8019 34.5964H48.8615C48.9211 34.6957 48.9211 34.7751 48.8615 34.8347C48.7821 34.9141 48.7126 34.9638 48.653 34.9836L47.8786 35.2815H47.1638C47.0446 35.2815 46.9255 35.2914 46.8063 35.3113C46.6872 35.3113 46.578 35.3212 46.4787 35.3411L45.9128 35.4602C45.7738 35.5198 45.6447 35.5793 45.5256 35.6389C45.4263 35.6985 45.327 35.7481 45.2277 35.7878C45.1284 35.8474 45.0292 35.907 44.9299 35.9666C44.8306 36.0261 44.7313 36.0758 44.632 36.1155L42.8747 36.6814H40.8493C40.8096 36.6615 40.7599 36.6417 40.7004 36.6218C40.6408 36.602 40.5812 36.5821 40.5217 36.5623C40.4025 36.5424 40.2933 36.5623 40.194 36.6218L40.3132 36.741C40.3529 36.8204 40.4025 36.8899 40.4621 36.9495C40.482 36.9693 40.4919 37.0388 40.4919 37.158L40.611 37.3367C40.6706 37.3962 40.7302 37.426 40.7897 37.426C40.8294 37.4459 40.9089 37.4558 41.028 37.4558L42.3088 37.2771L43.4704 37.2175C43.391 37.3962 43.2123 37.5352 42.9343 37.6345C42.6364 37.7338 42.4081 37.7834 42.2492 37.7834L40.0749 38.0217L38.9133 37.9622L29.2629 38.8855H29.2033ZM27.2673 25.4524C27.2276 25.4921 27.1878 25.512 27.1481 25.512C27.0886 25.512 27.0389 25.5318 26.9992 25.5715C26.9595 25.6112 26.9396 25.651 26.9396 25.6907V25.8098C26.9396 27.3785 26.9992 28.9373 27.1183 30.4861C27.2375 32.0349 27.3268 33.5937 27.3864 35.1624L27.6247 35.4602L27.3268 25.2737L27.2673 25.4524ZM29.0842 37.7834C29.5806 37.7437 30.077 37.704 30.5734 37.6643C31.0698 37.6047 31.5663 37.5551 32.0627 37.5154C32.5591 37.4757 33.0555 37.436 33.5519 37.3962C34.0484 37.3367 34.5547 37.2771 35.071 37.2175H35.0114C34.5944 37.2374 34.1774 37.2572 33.7604 37.2771C33.3633 37.297 32.9662 37.3168 32.569 37.3367C32.1719 37.3565 31.7748 37.3764 31.3776 37.3962C31.0003 37.4161 30.6231 37.436 30.2458 37.4558L28.548 36.9792L29.0842 37.7834ZM27.8034 17.47L27.7438 16.0105C27.7041 16.3878 27.6743 16.7551 27.6545 17.1125C27.6346 17.47 27.6148 17.8373 27.5949 18.2146C27.5751 18.5919 27.5552 18.9692 27.5353 19.3464C27.5155 19.7039 27.4857 20.0712 27.446 20.4485V21.3123C27.4261 21.4711 27.4063 21.63 27.3864 21.7888C27.3666 21.9278 27.3368 22.0668 27.2971 22.2058C27.2573 22.3448 27.2176 22.4838 27.1779 22.6228C27.1382 22.7618 27.0985 22.9107 27.0588 23.0696V23.5759L27.2673 24.5291C27.3666 24.2113 27.4361 23.9036 27.4758 23.6057C27.5353 23.288 27.5751 22.9604 27.5949 22.6228L27.6843 20.7463L27.8034 17.5891V17.47ZM29.5607 22.0271L29.5012 21.9675H29.2629L29.2033 22.0271L29.0842 24.1716C29.0842 24.2709 29.0842 24.3901 29.0842 24.5291C29.104 24.6482 29.1239 24.7971 29.1437 24.9758C29.1636 25.373 29.2629 25.651 29.4416 25.8098L29.5012 24.1716C29.5012 24.0128 29.5012 23.8539 29.5012 23.6951C29.5012 23.5362 29.5111 23.3575 29.5309 23.1589C29.5309 22.7419 29.5707 22.3845 29.6501 22.0867V22.0271H29.5607ZM46.0915 36.1155H46.0319L46.3596 35.9963C46.5383 35.9566 46.717 35.9169 46.8957 35.8772C47.0744 35.8375 47.263 35.8077 47.4616 35.7878C47.6403 35.768 47.819 35.7382 47.9977 35.6985C48.1963 35.6588 48.3949 35.6191 48.5934 35.5793L48.8615 35.4602L49.3976 35.2815H49.6359L49.5764 35.3411C49.4572 35.4602 49.2984 35.5595 49.0998 35.6389C49.0005 35.6786 48.9111 35.7183 48.8317 35.7581C48.7523 35.7978 48.6729 35.8375 48.5934 35.8772L47.1935 36.1155C47.0943 36.1353 47.0049 36.1552 46.9255 36.175C46.846 36.1949 46.7666 36.2148 46.6872 36.2346C46.4688 36.2743 46.3 36.2545 46.1808 36.175L46.0915 36.1155ZM43.3513 36.9197L43.8576 36.6814C43.9767 36.6814 44.0462 36.6715 44.0661 36.6516C44.086 36.6318 44.1356 36.6417 44.215 36.6814H44.1555L44.0065 36.8303C43.9668 36.87 43.9271 36.8998 43.8874 36.9197C43.8675 36.9395 43.8377 36.9594 43.798 36.9792H43.3513L43.2917 36.9197H43.3513ZM30.1266 28.6394C30.1266 28.4607 30.0869 28.3217 30.0075 28.2224C29.9082 28.1033 29.8089 28.0238 29.7097 27.9841C29.5905 27.9444 29.4912 27.9543 29.4118 28.0139C29.3125 28.1132 29.2629 28.2721 29.2629 28.4905L29.2033 28.9968V29.5925L29.1437 30.2776V30.8137L29.0842 31.4988L29.1437 32.2136V32.7795L29.2033 33.6135C29.2232 33.8121 29.243 34.0107 29.2629 34.2092C29.2827 34.4078 29.3026 34.6163 29.3224 34.8347C29.3423 35.0531 29.3522 35.2815 29.3522 35.5198C29.3721 35.7382 29.4019 35.9566 29.4416 36.175H28.9055H29.4714C29.5707 36.175 29.66 36.175 29.7394 36.175C29.8189 36.1552 29.9082 36.1353 30.0075 36.1155C29.9876 35.7978 29.9678 35.4999 29.9479 35.2219C29.9479 34.9241 29.938 34.6361 29.9181 34.3582C29.8983 34.0802 29.8884 33.8022 29.8884 33.5242C29.8884 33.2263 29.8884 32.9185 29.8884 32.6008V31.6179C29.9082 31.3995 29.9281 31.1811 29.9479 30.9626C29.9678 30.7244 29.9876 30.4861 30.0075 30.2478C30.0274 30.0294 30.0472 29.811 30.0671 29.5925C30.0869 29.3741 30.1068 29.1557 30.1266 28.9373V28.6394ZM30.0075 36.1155V36.6814L30.2458 36.1155H30.0075ZM30.2458 36.1155C30.7223 36.0758 31.1989 36.0361 31.6755 35.9963C32.1719 35.9566 32.6683 35.9169 33.1647 35.8772C33.6611 35.8375 34.1476 35.8077 34.6242 35.7878C35.1008 35.768 35.5773 35.7382 36.0539 35.6985H36.4709L37.3942 35.5793C37.5134 35.5396 37.6027 35.5198 37.6623 35.5198C37.7219 35.5198 37.7715 35.4999 37.8112 35.4602C37.7318 35.3808 37.6524 35.3411 37.5729 35.3411H36.6496C36.1333 35.3808 35.6071 35.4205 35.071 35.4602C34.5348 35.4999 34.0086 35.5396 33.4924 35.5793C32.9562 35.6191 32.4201 35.6588 31.884 35.6985C31.3478 35.7382 30.8216 35.7779 30.3054 35.8176L30.2458 36.1155ZM30.2458 14.2234L30.7223 9.33862L30.6628 8.68335C30.6628 8.54435 30.6529 8.44507 30.633 8.3855C30.5933 8.30607 30.5238 8.25643 30.4245 8.23657L30.3054 8.68335V9.04077C30.2855 9.29891 30.2656 9.54712 30.2458 9.7854C30.2259 10.0038 30.2061 10.2222 30.1862 10.4407L30.0075 11.781L29.5012 16.3679V19.5847L30.0075 18.989L30.2458 14.2234Z" fill="#A9AFAD"/>
<path d="M65.3637 29.1755L62.5043 29.4734H61.2235L59.5258 29.5925H59.079C58.8209 29.5131 58.5925 29.4635 58.394 29.4436C58.255 29.4237 58.1259 29.4138 58.0067 29.4138C57.8876 29.394 57.7585 29.3741 57.6195 29.3542H57.3217L55.9218 28.9373C55.6438 28.8777 55.3757 28.7983 55.1176 28.699C54.9984 28.6593 54.8793 28.6195 54.7602 28.5798C54.641 28.5203 54.5219 28.4508 54.4027 28.3713L54.1942 28.2522L54.4027 28.1926L56.2792 28.8181L56.7558 28.9373L59.4662 29.1755L58.9599 28.9373C58.9202 28.9174 58.8705 28.8975 58.8109 28.8777C58.7514 28.8578 58.6918 28.838 58.6322 28.8181C58.4337 28.7784 58.2847 28.7387 58.1855 28.699H58.0365C57.6195 28.6593 57.1926 28.5997 56.7558 28.5203C56.3586 28.4607 55.9119 28.3515 55.4154 28.1926L54.9389 28.0139L54.5219 27.8948L54.0155 27.6565C53.8964 27.5771 53.8269 27.5274 53.807 27.5076C53.7475 27.4679 53.6978 27.4182 53.6581 27.3586V27.2693C53.7177 27.2693 53.7574 27.2296 53.7773 27.1501H53.8964L53.6581 27.0906C53.5787 27.0906 53.5191 27.0806 53.4794 27.0608C53.4 27.0608 53.3404 27.0111 53.3007 26.9119C53.2014 26.9119 53.1617 26.9019 53.1815 26.8821C53.1617 26.8821 53.1518 26.8722 53.1518 26.8523C53.1319 26.8324 53.122 26.8126 53.122 26.7927C53.122 26.6736 53.1319 26.5942 53.1518 26.5544C53.1518 26.4949 53.2014 26.4353 53.3007 26.3757C53.4198 26.3757 53.4993 26.3956 53.539 26.4353L53.8964 26.4949L54.1347 26.4353L55.9814 26.614C55.7629 26.5743 55.5544 26.5346 55.3559 26.4949C55.1573 26.4353 54.9587 26.3857 54.7602 26.3459C54.363 26.2665 53.9758 26.1474 53.5985 25.9885L53.4794 25.929L53.539 25.6311C53.6184 25.5517 53.7375 25.4921 53.8964 25.4524C53.956 25.4524 54.0155 25.4623 54.0751 25.4822C54.1347 25.4822 54.2042 25.4921 54.2836 25.512L54.9984 25.5715C55.4949 25.5318 55.9814 25.512 56.4579 25.512C56.9543 25.4921 57.4508 25.4722 57.9472 25.4524C58.9202 25.4524 59.8733 25.512 60.8065 25.6311L61.164 25.6907C61.164 25.7502 61.2235 25.8098 61.3427 25.8694C61.3824 25.8694 61.4221 25.8495 61.4618 25.8098L62.9809 25.6311C63.6163 25.6311 64.2517 25.5715 64.8871 25.4524L64.9467 25.3928L63.4276 25.1545C62.8518 25.2141 62.276 25.2141 61.7001 25.1545L61.581 25.0354H62.9809C63.2191 25.0354 63.4574 24.9858 63.6957 24.8865C63.8744 24.807 64.1028 24.7673 64.3808 24.7673L64.5893 24.8567L64.9467 24.9163C65.2644 24.9163 65.5722 24.8765 65.87 24.7971C66.1679 24.7375 66.4856 24.7078 66.8232 24.7078L67.0912 24.7673C67.3096 24.7673 67.5281 24.7375 67.7465 24.678C67.8458 24.6383 67.955 24.6085 68.0741 24.5886C68.1933 24.5688 68.3025 24.539 68.4018 24.4993C68.501 24.4596 68.6003 24.4298 68.6996 24.4099C68.8188 24.3901 68.928 24.3702 69.0273 24.3503C69.2457 24.3106 69.474 24.3106 69.7123 24.3503L69.8315 24.5291V24.7673L68.372 25.929H68.2528V26.3162H68.372C68.5507 26.1772 68.7592 26.0779 68.9975 26.0183C69.0968 25.9985 69.196 25.9786 69.2953 25.9587C69.3946 25.9389 69.4939 25.9091 69.5932 25.8694L70.6654 25.6311C70.7051 25.6311 70.725 25.6609 70.725 25.7205C70.725 25.78 70.7051 25.8297 70.6654 25.8694C70.6654 25.929 70.6555 25.9687 70.6357 25.9885C70.5959 26.0282 70.5662 26.0481 70.5463 26.0481H70.1889C69.9903 26.2069 69.8811 26.3162 69.8612 26.3757C69.7818 26.4949 69.7322 26.5743 69.7123 26.614L69.0868 27.4182H68.6103C68.5507 27.3586 68.501 27.3189 68.4613 27.2991C68.4216 27.2792 68.372 27.2693 68.3124 27.2693C68.3124 27.3686 68.3323 27.4182 68.372 27.4182L68.4315 27.8948C68.4315 27.9941 68.4713 28.0536 68.5507 28.0735C68.6698 28.0735 68.7393 28.0636 68.7592 28.0437C68.779 28.0238 68.8485 27.9941 68.9677 27.9543C68.9875 27.9543 69.0074 27.9543 69.0273 27.9543C69.0471 27.9345 69.067 27.9246 69.0868 27.9246C69.1067 27.9246 69.1166 27.9146 69.1166 27.8948H69.206C69.3052 28.0536 69.2854 28.2224 69.1464 28.4011C69.0074 28.56 68.8485 28.6791 68.6698 28.7585C68.5308 28.8181 68.4315 28.8181 68.372 28.7585L68.0443 28.6394C67.9252 28.6394 67.816 28.6493 67.7167 28.6692C67.6174 28.6692 67.5181 28.6791 67.4189 28.699C67.3196 28.7387 67.2203 28.7685 67.121 28.7883C67.0217 28.8082 66.9224 28.838 66.8232 28.8777L65.7509 29.2351L65.3637 29.1755ZM61.7597 28.2522C61.7994 28.2522 61.8192 28.2721 61.8192 28.3118V28.4309C61.8192 28.4905 61.849 28.5302 61.9086 28.55H61.9682C62.3852 28.5302 62.8022 28.5004 63.2191 28.4607C63.6361 28.4011 64.0531 28.3316 64.4701 28.2522C64.8673 28.1728 65.2644 28.0933 65.6615 28.0139C66.0785 27.9345 66.4856 27.8551 66.8827 27.7756H67.0316H66.5849L61.7597 28.2522ZM58.4833 27.8948C58.6024 27.9345 58.7216 27.9742 58.8407 28.0139C58.9797 28.0536 59.1287 28.0834 59.2875 28.1033C59.5456 28.1628 59.8038 28.1926 60.0619 28.1926H60.3598C60.4988 28.1926 60.608 28.2323 60.6874 28.3118C60.7668 28.4111 60.886 28.4706 61.0448 28.4905H61.1044L61.5214 28.2522C61.4221 28.2125 61.3228 28.1728 61.2235 28.1331C61.1243 28.0933 61.0051 28.0636 60.8661 28.0437C60.5881 28.0238 60.3796 27.9941 60.2406 27.9543L59.0194 27.8948H58.4833ZM60.5385 26.614V26.9119C60.6179 26.9119 60.6676 26.9218 60.6874 26.9417C60.7073 26.9615 60.7668 26.9714 60.8661 26.9714C60.9455 26.9714 61.0051 26.9814 61.0448 27.0012C61.0845 27.0409 61.1243 27.031 61.164 26.9714L61.7001 26.9119C61.7795 26.892 61.8192 26.7927 61.8192 26.614H60.5385ZM69.9506 26.9119C70.0102 26.8523 70.0598 26.8126 70.0995 26.7927C70.1194 26.7729 70.1492 26.753 70.1889 26.7332C70.2286 26.6934 70.2683 26.6537 70.308 26.614L70.6654 26.4949L70.725 26.4353C70.725 26.3956 70.7449 26.3757 70.7846 26.3757C70.8044 26.3757 70.8342 26.3559 70.8739 26.3162H70.9335C70.9335 26.4353 70.8441 26.5942 70.6654 26.7927V26.8523L70.308 26.9714C70.2882 27.0509 70.1889 27.0906 70.0102 27.0906C69.9704 27.0906 69.9506 27.0707 69.9506 27.031V26.9119ZM69.206 27.6863C69.206 27.7061 69.2258 27.7161 69.2655 27.7161C69.3251 27.7161 69.3648 27.7061 69.3847 27.6863C69.3847 27.6664 69.4045 27.6565 69.4442 27.6565L69.5336 27.4778C69.5336 27.4381 69.5038 27.4182 69.4442 27.4182C69.3847 27.4182 69.3052 27.4976 69.206 27.6565V27.6863ZM62.8617 26.0481C62.7029 26.3062 62.6234 26.4949 62.6234 26.614H62.683L62.8617 26.7927L63.1 26.9119H64.1425L64.3212 26.8523H64.5893C64.8077 26.7927 65.0162 26.7332 65.2148 26.6736C65.4332 26.614 65.6516 26.5644 65.87 26.5247C66.0885 26.4849 66.2969 26.4452 66.4955 26.4055C66.7139 26.3658 66.9324 26.336 67.1508 26.3162H67.2699L67.3295 25.929C67.0714 25.9687 66.8132 26.0084 66.5551 26.0481C66.3168 26.0878 66.0686 26.1275 65.8105 26.1672C65.5523 26.2069 65.2942 26.2467 65.036 26.2864C64.7779 26.3261 64.5198 26.3559 64.2616 26.3757H63.9042C63.6064 26.3162 63.2787 26.2069 62.9213 26.0481H62.8617ZM59.4662 26.3757H58.7812C58.6819 26.3559 58.5925 26.3459 58.5131 26.3459C58.4337 26.3261 58.3542 26.3062 58.2748 26.2864C58.116 26.2864 57.9372 26.2566 57.7387 26.197L56.2196 25.8694H55.9218C55.8424 25.8694 55.7828 25.8892 55.7431 25.929C55.7034 25.9687 55.6835 25.9985 55.6835 26.0183V26.0481H55.8026L55.9814 26.197C56.2792 26.3162 56.6068 26.3757 56.9643 26.3757L57.143 26.4353C57.56 26.5544 57.9869 26.614 58.4237 26.614H59.7045C59.6846 26.5942 59.6648 26.5743 59.6449 26.5544C59.6449 26.5346 59.635 26.5147 59.6151 26.4949C59.5357 26.4154 59.4861 26.3757 59.4662 26.3757ZM61.7001 15.802L61.3427 14.5212H61.2235L61.164 14.9084L58.662 22.4739C58.3245 23.4667 57.967 24.4496 57.5898 25.4226C57.2323 26.3757 56.8551 27.3388 56.4579 28.3118C56.0608 29.2847 55.6339 30.2577 55.1772 31.2307C54.7403 32.1838 54.2935 33.1469 53.8368 34.1199L53.6581 34.4177L53.7177 34.1199L56.8451 26.0481L57.4408 24.5886L58.0365 23.01L58.5429 21.4314L60.6278 14.5212H60.3598L59.6449 16.3977C59.5258 16.7353 59.4066 17.0629 59.2875 17.3806C59.1684 17.6785 59.0393 17.9862 58.9003 18.304L58.7812 18.8103C58.0862 20.935 57.3713 23.0199 56.6366 25.0652C56.2593 26.1176 55.8721 27.17 55.475 28.2224C55.0977 29.255 54.7006 30.3074 54.2836 31.3796L53.4794 33.3157L52.6156 35.1624L52.1986 35.9963C52.1788 36.0361 52.1589 36.0758 52.1391 36.1155C52.1192 36.1552 52.0894 36.2048 52.0497 36.2644C51.9504 36.3835 51.8809 36.4431 51.8412 36.4431V35.9368L51.9604 35.2815C51.7816 35.5396 51.6426 35.8375 51.5434 36.175C51.5037 36.3339 51.454 36.5027 51.3944 36.6814C51.3349 36.8403 51.2753 37.019 51.2157 37.2175L50.4115 38.5579L50.2328 38.26C50.1137 38.1012 50.0839 37.9324 50.1435 37.7537C50.1633 37.6742 50.1832 37.5948 50.203 37.5154C50.2229 37.4161 50.2527 37.3168 50.2924 37.2175L51.037 35.1624C51.0767 35.0234 51.1065 34.8943 51.1264 34.7751C51.1661 34.6361 51.2058 34.4972 51.2455 34.3582C51.2852 34.239 51.315 34.1199 51.3349 34.0007C51.3746 33.8816 51.4143 33.7525 51.454 33.6135L53.5985 26.9119C53.2808 27.6664 52.9731 28.4309 52.6752 29.2053C52.3972 29.9599 52.1192 30.7343 51.8412 31.5286C51.5632 32.3228 51.2654 33.1072 50.9477 33.8816C50.6498 34.656 50.3321 35.4205 49.9945 36.175L49.8158 36.741L49.518 36.6814C49.4187 36.1453 49.4385 35.629 49.5775 35.1326C49.6371 34.8744 49.6967 34.6262 49.7563 34.3879C49.8357 34.1298 49.9151 33.8717 49.9945 33.6135L51.0966 30.2776C52.1887 26.2268 53.2908 22.2058 54.4027 18.2146C54.9389 16.2289 55.5048 14.2432 56.1005 12.2576C56.6962 10.252 57.3217 8.22664 57.977 6.1814L58.5429 4.96021V4.90063L58.3046 3.85815C58.2649 3.73901 58.2351 3.61987 58.2152 3.50073C58.1954 3.38159 58.1656 3.27238 58.1259 3.1731C58.0862 3.07381 58.0564 2.97453 58.0365 2.87524C58.0167 2.7561 57.9968 2.63696 57.977 2.51782H58.1855C58.2649 2.35897 58.3145 2.2299 58.3344 2.13062C58.3542 1.99162 58.384 1.87248 58.4237 1.77319L58.7216 1.71362L58.4833 2.51782H59.2577L61.9086 2.45825L61.164 2.21997L59.4066 2.1604V2.10083L60.3002 1.98169L59.5258 1.71362L64.0233 1.59448L64.2021 2.39868L64.4701 2.33911L64.3212 2.99438L65.0063 6.06226C65.1453 6.55868 65.2942 7.05509 65.453 7.55151C65.6119 8.02808 65.7707 8.5245 65.9296 9.04077C66.0885 9.55705 66.2374 10.0634 66.3764 10.5598C66.5352 11.0364 66.6643 11.5229 66.7636 12.0193L66.8827 12.8831L67.2699 14.7297C67.4288 15.3652 67.5976 16.0006 67.7763 16.636C67.955 17.2515 68.1337 17.8472 68.3124 18.4231C68.4713 19.0188 68.6301 19.6244 68.789 20.24C68.9478 20.8357 69.1067 21.4513 69.2655 22.0867L69.5336 23.3079C69.6329 23.7646 69.7421 24.2113 69.8612 24.6482C70.0002 25.085 70.1492 25.5318 70.308 25.9885C70.4669 26.4452 70.6158 26.9019 70.7548 27.3586C70.9136 27.7955 71.0725 28.2423 71.2314 28.699C71.3902 29.1557 71.5391 29.6124 71.6781 30.0691C71.837 30.5258 71.9859 30.9825 72.1249 31.4392C72.4029 32.3923 72.6114 33.3057 72.7504 34.1794L72.6313 34.7751L72.393 34.8347C71.9363 34.5369 71.5888 34.1596 71.3505 33.7029C71.0725 33.2263 70.864 32.7895 70.725 32.3923L69.2655 28.8181L69.0868 28.0139C69.0868 27.9345 69.067 27.8948 69.0273 27.8948L68.7294 28.1926L68.789 28.699L72.0951 38.2004L72.0058 38.4983C71.8668 38.4983 71.7576 38.4387 71.6781 38.3196C71.5788 38.26 71.4895 38.1607 71.4101 38.0217L70.9931 37.2771L70.2484 35.1624C70.1492 35.0234 70.0499 34.8943 69.9506 34.7751C69.8712 34.6361 69.7818 34.4972 69.6825 34.3582C69.5832 34.239 69.484 34.1199 69.3847 34.0007C69.2854 33.8816 69.1861 33.7525 69.0868 33.6135L67.9252 31.4988L67.4486 29.2351C67.4486 29.0365 67.4586 28.8876 67.4784 28.7883C67.4784 28.689 67.4288 28.5898 67.3295 28.4905L67.1508 28.6394C67.0912 28.7387 67.0316 28.7883 66.9721 28.7883C66.9125 28.8082 66.843 28.838 66.7636 28.8777L66.4062 28.9373C66.3664 29.116 66.3565 29.2252 66.3764 29.2649C66.3962 29.3245 66.4062 29.394 66.4062 29.4734L66.8827 31.1116L67.2699 32.3923C67.0316 32.2533 66.8331 32.0349 66.6742 31.7371C66.4955 31.4392 66.3267 31.2109 66.1679 31.052L65.3041 28.55L65.185 27.1501L62.0873 17.6487L61.7001 15.802ZM59.5258 1.71362H58.7216L58.8407 1.59448L59.5258 1.71362ZM63.8446 4.84106L66.5849 14.283C66.5849 13.8461 66.565 13.4192 66.5253 13.0022C66.4856 12.5653 66.426 12.1186 66.3466 11.6619C66.1679 10.808 65.9594 9.90454 65.7211 8.95142C65.602 8.49471 65.4729 8.04793 65.3339 7.61108C65.2148 7.15438 65.0857 6.69767 64.9467 6.24097C64.8077 5.78426 64.6687 5.34741 64.5297 4.93042C64.4106 4.49357 64.3013 4.05672 64.2021 3.61987L63.8446 4.84106ZM63.1 2.39868C63.1993 2.35897 63.2489 2.31925 63.2489 2.27954H63.1V2.39868ZM59.4066 2.1604C59.4066 2.21997 59.3868 2.26961 59.3471 2.30933C59.2875 2.34904 59.2577 2.39868 59.2577 2.45825C59.2577 2.49797 59.2577 2.48804 59.2577 2.42847C59.2577 2.3689 59.2478 2.32918 59.2279 2.30933C59.2081 2.28947 59.1982 2.23983 59.1982 2.1604H59.4066ZM59.1982 7.10474C59.1783 7.14445 59.1584 7.19409 59.1386 7.25366C59.1187 7.31323 59.0989 7.3728 59.079 7.43237C59.0592 7.49194 59.0393 7.55151 59.0194 7.61108C58.9996 7.67065 58.9797 7.7203 58.9599 7.76001H58.9003C58.9599 7.76001 59.0095 7.77987 59.0492 7.81958C59.0889 7.85929 59.1386 7.87915 59.1982 7.87915H59.4662L59.1982 7.10474ZM61.3427 3.32202C61.1838 3.1036 61.015 2.92489 60.8363 2.78589C60.6378 2.6866 60.4888 2.67668 60.3896 2.7561C60.2704 2.83553 60.1612 3.02417 60.0619 3.32202C59.9825 3.58016 59.9428 4.00708 59.9428 4.60278C60.1016 5.21834 60.2506 5.79419 60.3896 6.33032C60.5286 6.86646 60.6676 7.38273 60.8065 7.87915H61.2235C61.164 7.64087 61.0845 7.36287 60.9853 7.04517C60.9455 6.90617 60.9058 6.76717 60.8661 6.62817C60.8264 6.48918 60.7867 6.34025 60.747 6.1814L60.3598 6.12183C60.3598 5.66512 60.3796 5.3772 60.4193 5.25806C60.3995 5.17863 60.3796 5.08927 60.3598 4.98999C60.3598 4.89071 60.3498 4.79142 60.33 4.69214C60.2903 4.49357 60.2605 4.31486 60.2406 4.15601L61.3427 3.32202ZM62.7426 14.5212C63.1199 15.8914 63.5071 17.2317 63.9042 18.5422L65.0658 22.4739L65.2445 22.7717C65.0658 22.1165 64.8871 21.4513 64.7084 20.7761C64.5297 20.101 64.351 19.4159 64.1723 18.7209C63.9936 18.026 63.8049 17.331 63.6064 16.636C63.4276 15.941 63.239 15.2361 63.0404 14.5212H62.7426ZM61.581 7.28345C61.581 7.16431 61.6107 7.05509 61.6703 6.95581C61.7497 6.83667 61.7994 6.73739 61.8192 6.65796L61.2235 6.30054C61.3427 6.71753 61.4618 7.04517 61.581 7.28345ZM58.9003 14.5212V14.6404C58.9003 14.7 58.8804 14.7297 58.8407 14.7297L58.3642 16.8445C58.523 16.4871 58.662 16.1197 58.7812 15.7424C58.8407 15.5439 58.9003 15.3453 58.9599 15.1467C59.0194 14.9482 59.079 14.7397 59.1386 14.5212H58.9003ZM69.4442 35.4006V35.3411C69.4442 35.3014 69.4542 35.2815 69.474 35.2815H69.5336L69.7123 35.6985C69.8116 35.8971 69.901 36.0956 69.9804 36.2942C70.0797 36.4729 70.1591 36.6615 70.2187 36.8601C70.3378 37.2572 70.5066 37.6643 70.725 38.0813L70.9335 38.4983L71.2909 39.0642C71.2909 39.1238 71.3009 39.1635 71.3207 39.1833C71.3406 39.2032 71.3505 39.2429 71.3505 39.3025H71.2314C71.1321 39.2231 71.0328 39.1337 70.9335 39.0344C70.8541 38.9351 70.7746 38.8359 70.6952 38.7366C70.5562 38.5579 70.4272 38.3394 70.308 38.0813L69.5932 36.6814C69.5733 36.4233 69.5137 36.2048 69.4145 36.0261C69.335 35.8871 69.3251 35.6985 69.3847 35.4602L69.4442 35.4006ZM67.8061 32.1541L68.2528 32.7795C68.2528 32.9185 68.2628 32.998 68.2826 33.0178C68.3025 33.0575 68.3124 33.1171 68.3124 33.1965L67.8656 32.7795C67.7068 32.6803 67.6273 32.5313 67.6273 32.3328C67.6075 32.2732 67.6075 32.2335 67.6273 32.2136C67.6273 32.2136 67.6869 32.1938 67.8061 32.1541ZM63.3085 5.31763C63.3085 5.11906 63.2589 4.94035 63.1596 4.78149C63.0801 4.6425 62.9809 4.55314 62.8617 4.51343C62.7426 4.47371 62.6334 4.5035 62.5341 4.60278C62.4348 4.74178 62.3852 4.96021 62.3852 5.25806C62.4844 5.79419 62.5837 6.33032 62.683 6.86646C62.8022 7.40259 62.9312 7.93872 63.0702 8.47485C63.2092 9.03084 63.3383 9.5769 63.4574 10.113C63.5964 10.6492 63.7454 11.1853 63.9042 11.7214L64.2021 12.6448L67.6869 24.1121L68.2528 24.3503C67.9351 23.2582 67.6174 22.176 67.2997 21.1038C66.982 20.0116 66.6544 18.9096 66.3168 17.7976C65.9792 16.7055 65.6516 15.6134 65.3339 14.5212C65.036 13.4291 64.7481 12.3171 64.4701 11.1853L64.1425 9.84497L63.3085 5.31763ZM55.1772 19.0486L52.6752 25.9885L52.4965 27.1501C52.4568 27.2097 52.4171 27.3189 52.3773 27.4778C52.3376 27.5969 52.3773 27.6764 52.4965 27.7161L52.8539 27.0906L54.5219 22.6526L56.8451 16.0105L58.1259 11.1257L57.3813 12.1682L55.1772 19.0486Z" fill="#A9AFAD"/>
<path d="M99.0519 34.8943L98.486 21.7888C98.5058 21.5108 98.5257 21.2428 98.5455 20.9846C98.5654 20.7066 98.5852 20.4286 98.6051 20.1506C98.6448 19.6145 98.7044 19.128 98.7838 18.6912L98.5455 14.968C98.5257 14.8092 98.5058 14.6305 98.486 14.4319C98.4661 14.2135 98.4462 13.995 98.4264 13.7766C98.4065 13.3398 98.2477 12.9625 97.9498 12.6448L97.8903 14.5212L97.9498 17.0828C97.9498 17.2615 97.9597 17.3905 97.9796 17.47C97.9995 17.5891 97.93 17.7281 97.7711 17.887L97.0265 18.1252L96.7882 18.4231C96.7485 18.2444 96.7485 18.0458 96.7882 17.8274C96.8081 17.7281 96.818 17.6388 96.818 17.5593C96.8378 17.46 96.8478 17.3707 96.8478 17.2913L97.0861 13.7468L95.8649 8.68335L95.6861 7.76001C95.6266 7.26359 95.5968 6.78703 95.5968 6.33032C95.5769 6.1119 95.567 5.88354 95.567 5.64526C95.5869 5.40698 95.6067 5.15877 95.6266 4.90063L95.4479 3.61987C95.4082 3.48088 95.3486 3.35181 95.2692 3.23267C95.1699 3.07381 95.0805 2.99438 95.0011 2.99438L94.8224 3.26245L95.4479 17.7083L95.3883 18.3635L95.0011 18.8699C94.9415 18.85 94.9117 18.8004 94.9117 18.7209C94.8919 18.6812 94.882 18.6316 94.882 18.572L95.0011 17.47L94.5841 11.9597C94.5444 11.642 94.5047 11.3243 94.465 11.0066C94.4252 10.669 94.3855 10.3315 94.3458 9.9939C94.2267 9.29891 93.9785 8.67342 93.6012 8.11743L93.2438 8.177L93.1246 9.04077C93.0651 9.7159 93.0154 10.391 92.9757 11.0662C92.9558 11.7413 92.9558 12.4264 92.9757 13.1213C92.9757 14.5113 93.0055 15.8715 93.0651 17.2019C93.0849 17.8969 93.1048 18.5819 93.1246 19.2571C93.1445 19.9322 93.1743 20.6173 93.214 21.3123C93.2338 22.0072 93.2438 22.6923 93.2438 23.3674C93.2636 24.0426 93.2636 24.7177 93.2438 25.3928L93.1842 26.9714V29.1755C93.1048 29.0564 93.0253 28.9373 92.9459 28.8181C92.8863 28.699 92.8168 28.5699 92.7374 28.4309C92.658 28.3118 92.5786 28.1926 92.4991 28.0735C92.4396 27.9543 92.38 27.8352 92.3204 27.7161L87.942 19.7932L87.7633 19.4656L87.942 20.2102C88.6767 21.759 89.5107 23.3079 90.444 24.8567C90.9007 25.651 91.3574 26.4452 91.8141 27.2395C92.2708 28.0139 92.7275 28.7983 93.1842 29.5925V30.6946C92.6084 29.662 92.0325 28.6493 91.4567 27.6565C90.8808 26.6637 90.3149 25.6708 89.7589 24.678C89.2029 23.705 88.637 22.7419 88.0611 21.7888C87.4853 20.8158 86.8995 19.8429 86.3038 18.8699L86.0358 18.5125L85.9166 18.304L85.7379 18.0657L85.6783 17.887L85.6188 17.6487C85.5791 17.5693 85.5592 17.4898 85.5592 17.4104C85.5592 17.3508 85.5393 17.2615 85.4996 17.1423L85.2613 16.6062C84.8444 15.6531 84.4075 14.7297 83.9508 13.8362C83.4941 12.9228 83.0175 12.0094 82.5211 11.0959C82.0048 10.2024 81.4985 9.31877 81.0021 8.44507C80.5056 7.55151 80.0092 6.65796 79.5128 5.7644L79.5724 4.03687L78.6788 4.15601L78.7384 4.03687H78.6788C78.6391 3.93758 78.5795 3.82837 78.5001 3.70923C78.4405 3.64966 78.371 3.54045 78.2916 3.38159L77.3087 4.27515V4.03687L75.611 4.39429H76.5939L75.3727 4.60278C75.4124 4.74178 75.4422 4.82121 75.462 4.84106C75.462 4.90063 75.4918 4.94035 75.5514 4.96021L75.3131 5.01978C75.2734 4.98006 75.2535 4.94035 75.2535 4.90063C75.2535 4.90063 75.2337 4.82121 75.194 4.66235L74.1515 4.96021L74.8961 5.13892L74.1515 5.25806C74.2508 5.51619 74.36 5.77433 74.4791 6.03247C74.6181 6.27075 74.7571 6.51896 74.8961 6.7771L74.8068 6.95581L73.7345 5.01978L73.1686 5.13892C73.248 5.2382 73.2976 5.34741 73.3175 5.46655C73.3374 5.54598 73.387 5.68498 73.4664 5.88354L74.3898 7.34302L74.0323 7.76001C73.9728 11.0165 73.943 14.2631 73.943 17.4998C73.9231 19.128 73.9132 20.7563 73.9132 22.3845C73.9132 23.9929 73.9132 25.6212 73.9132 27.2693L73.8536 32.4817C73.8338 32.859 73.8139 33.2362 73.7941 33.6135C73.7941 33.9709 73.7941 34.3383 73.7941 34.7156C73.7941 35.49 73.9132 36.2445 74.1515 36.9792H74.4493L74.5685 36.175C74.767 33.7922 74.9458 31.4094 75.1046 29.0266C75.184 27.8352 75.2535 26.6537 75.3131 25.4822C75.3925 24.2908 75.472 23.0994 75.5514 21.908L75.2535 34.3582L75.1344 37.4558C75.0748 37.7537 75.055 38.0416 75.0748 38.3196C75.0748 38.6373 75.1542 38.9054 75.3131 39.1238L75.611 39.4216L75.9684 37.2175C75.9882 36.9594 75.9982 36.7112 75.9982 36.4729C76.018 36.2148 76.0279 35.9666 76.0279 35.7283C75.9882 35.2716 76.018 34.8149 76.1173 34.3582L76.1769 35.3411L76.3556 36.1155C76.435 36.0956 76.4946 35.9765 76.5343 35.7581C76.5343 35.5992 76.5542 35.4602 76.5939 35.3411L76.7726 34.0603L77.13 31.2605C77.3881 28.4011 77.5966 25.5417 77.7555 22.6824C77.8945 19.8627 78.0136 16.9835 78.1129 14.0447L78.7384 15.2659L78.649 17.6785C78.6292 18.0955 78.5994 18.5125 78.5597 18.9294C78.5398 19.3464 78.4902 19.7734 78.4108 20.2102L77.5768 32.2136L77.6363 32.7795L77.8151 32.2732C77.9739 30.9031 78.1129 29.5429 78.232 28.1926C78.371 26.8225 78.4902 25.4524 78.5895 24.0823C78.6888 22.7122 78.788 21.342 78.8873 19.9719C78.9866 18.6018 79.076 17.2317 79.1554 15.8616L84.338 25.2141L85.3209 27.0906C85.9563 28.2224 86.6017 29.3344 87.257 30.4265C87.9122 31.4988 88.5675 32.581 89.2228 33.6731C89.878 34.7652 90.5333 35.8573 91.1886 36.9495C91.8439 38.0416 92.4892 39.1536 93.1246 40.2854L97.2052 39.3025L96.5499 38.9451L95.3883 39.0642L95.5074 39.0046L96.2223 38.8855L95.8649 38.677L97.2052 37.2175C97.3045 37.3168 97.3839 37.4856 97.4435 37.7239V38.677L97.8903 38.5579C97.8903 38.6174 97.9002 38.6571 97.92 38.677C97.9399 38.6969 97.9498 38.7465 97.9498 38.8259L97.4435 38.8855V39.1833L98.8434 38.8855C98.8434 38.5678 98.8434 38.2402 98.8434 37.9026C98.8632 37.565 98.8831 37.2275 98.9029 36.8899C98.9228 36.5523 98.9427 36.2148 98.9625 35.8772C98.9824 35.5396 99.0122 35.212 99.0519 34.8943ZM93.1842 37.2175L92.7672 37.0388C92.0126 35.7878 91.268 34.5567 90.5333 33.3455C89.8185 32.1143 89.0937 30.8733 88.359 29.6223C87.6243 28.3713 86.8896 27.1303 86.1549 25.8992C85.4401 24.6681 84.7351 23.4171 84.0402 22.1462L83.8614 21.491C83.9012 21.4513 83.921 21.4115 83.921 21.3718L83.8614 21.0144L93.1842 37.2175ZM93.9884 39.2429L94.2862 39.1833L94.3458 39.2429L93.9288 39.3025L93.9884 39.2429ZM96.2223 38.8855L97.4435 38.677V38.8855L96.5499 38.9451L96.2223 38.8855ZM97.4435 36.6814L97.2052 36.175C97.2052 35.4006 97.2052 34.6361 97.2052 33.8816C97.2052 33.1072 97.2151 32.3427 97.235 31.5881C97.235 30.079 97.2648 28.5203 97.3243 26.9119C97.364 27.7458 97.3839 28.5699 97.3839 29.384C97.4038 30.1783 97.4236 30.9726 97.4435 31.7668V36.6814ZM75.9684 5.7644L75.7897 5.94312C75.7301 5.86369 75.6705 5.74455 75.611 5.58569C75.5315 5.42684 75.472 5.31763 75.4322 5.25806H75.7301L75.9684 5.7644ZM78.2916 10.679V10.3811L78.8575 11.6023V11.9001L78.7384 11.6619C78.7185 11.4633 78.649 11.2747 78.5299 11.0959C78.4902 11.0165 78.4505 10.947 78.4108 10.8875C78.371 10.8279 78.3313 10.7584 78.2916 10.679ZM73.7345 5.01978L73.6749 4.84106L74.1515 4.96021L73.7345 5.01978ZM79.3341 12.5852V12.3469L82.9381 19.5251C82.8388 19.3464 82.7296 19.1677 82.6105 18.989C82.4913 18.8103 82.3821 18.6217 82.2828 18.4231C82.1835 18.2444 82.0644 18.0657 81.9254 17.887C81.8063 17.7083 81.6772 17.5295 81.5382 17.3508L81.2999 16.6062C81.1411 16.3481 80.9921 16.08 80.8531 15.802C80.7141 15.524 80.5851 15.246 80.4659 14.968C80.3269 14.69 80.1979 14.422 80.0787 14.1638C79.9596 13.8858 79.8504 13.6277 79.7511 13.3894L79.3341 12.5852ZM75.3727 4.60278L75.194 4.66235C75.1344 4.60278 75.0947 4.54321 75.0748 4.48364C75.0351 4.40422 75.0153 4.35457 75.0153 4.33472L75.611 4.39429H75.2535C75.3131 4.53328 75.3528 4.60278 75.3727 4.60278ZM97.2052 39.3025L97.4435 39.1833V39.4812L97.2052 39.3025ZM82.3126 13.7468V13.8064C82.6303 14.5212 83.0076 15.2559 83.4445 16.0105C83.6629 16.3878 83.8714 16.7551 84.0699 17.1125C84.2685 17.4501 84.477 17.7877 84.6954 18.1252L86.423 21.3718C86.2244 21.1931 86.006 20.9548 85.7677 20.657C85.6684 20.518 85.5691 20.3889 85.4698 20.2698C85.3706 20.1308 85.2713 19.9918 85.172 19.8528C84.9933 19.5946 84.8245 19.3167 84.6656 19.0188C84.5664 18.8798 84.477 18.7507 84.3976 18.6316C84.3181 18.5125 84.2387 18.4032 84.1593 18.304L81.8956 13.8064C81.8956 13.7667 81.9353 13.7468 82.0148 13.7468H82.3126ZM96.6095 7.87915V8.11743L96.401 7.46216C96.3613 7.14445 96.3315 6.83667 96.3116 6.53882C96.2918 6.22111 96.2719 5.9034 96.2521 5.58569C96.2322 5.28784 96.2124 4.98006 96.1925 4.66235C96.1726 4.34465 96.1429 4.01701 96.1031 3.67944L95.984 3.26245L95.8649 2.33911V1.98169H95.9244C96.0833 2.21997 96.2124 2.52775 96.3116 2.90503C96.3514 3.06388 96.3911 3.22274 96.4308 3.38159C96.4705 3.54045 96.5102 3.6993 96.5499 3.85815L96.7882 6.12183C96.7882 6.45939 96.818 6.75724 96.8776 7.01538C96.8974 7.29338 96.8676 7.56144 96.7882 7.81958L96.6095 7.87915ZM97.3839 12.8831L97.1456 11.2449C97.1853 11.3243 97.225 11.4037 97.2648 11.4832C97.3045 11.5427 97.3343 11.6023 97.3541 11.6619L97.4435 12.0193L97.503 12.6448V12.8533C97.4832 12.8731 97.4435 12.8831 97.3839 12.8831ZM90.2057 26.9119L93.3033 33.137L94.882 35.9963C94.8621 35.0035 94.8422 34.0206 94.8224 33.0476C94.8224 32.0548 94.8125 31.052 94.7926 30.0393C94.7727 29.0266 94.7628 28.0338 94.7628 27.0608C94.7827 26.0878 94.8025 25.1049 94.8224 24.1121L95.0011 22.2952C95.0408 22.3547 95.0805 22.454 95.1202 22.593C95.1401 22.7519 95.1699 22.871 95.2096 22.9504L95.2692 24.5291L95.5074 36.9792L96.7286 39.1238L95.5074 37.7834V38.1409C95.4479 38.0416 95.3883 37.9522 95.3287 37.8728C95.2692 37.7934 95.2195 37.7139 95.1798 37.6345C95.1202 37.5551 95.0607 37.4856 95.0011 37.426C94.9415 37.3466 94.882 37.2771 94.8224 37.2175L89.2823 26.9119C89.2823 26.4552 89.332 26.1474 89.4313 25.9885C89.5107 25.8495 89.6199 25.7999 89.7589 25.8396C89.878 25.8793 89.9773 25.9985 90.0568 26.197C90.156 26.4353 90.2057 26.6736 90.2057 26.9119ZM95.5074 38.1409V39.4216L95.984 39.0046C95.9244 38.8656 95.8549 38.7266 95.7755 38.5876C95.6762 38.4685 95.5869 38.3196 95.5074 38.1409ZM79.215 7.46216L77.1896 3.67944L76.8917 4.54321L77.1896 4.66235C77.3881 5.03963 77.5867 5.41691 77.7853 5.79419C77.9838 6.15161 78.1824 6.50903 78.381 6.86646C78.5795 7.22388 78.7682 7.5813 78.9469 7.93872C79.1455 8.29614 79.354 8.66349 79.5724 9.04077L79.215 7.46216ZM76.8917 4.54321L75.611 8.56421L75.6705 5.49634L75.7301 4.03687L76.8917 4.54321ZM75.611 8.56421L74.9557 10.3811L74.4493 20.8059L74.5089 22.593C74.5089 22.6327 74.5089 22.6923 74.5089 22.7717C74.5089 22.8512 74.5188 22.9405 74.5387 23.0398C74.5387 23.2582 74.5685 23.4071 74.628 23.4866L74.8068 22.4739L75.2535 15.5637L75.611 8.56421Z" fill="#A9AFAD"/>
<path d="M106.44 12.5256L105.785 7.46216L106.023 6.89624L105.725 5.49634C105.685 5.39705 105.596 5.26799 105.457 5.10913C105.338 4.98999 105.179 4.90063 104.98 4.84106V5.43677L105.04 6.47925C104.921 6.51896 104.821 6.53882 104.742 6.53882L104.206 6.71753L103.968 6.7771C103.928 6.73739 103.938 6.66789 103.997 6.5686C104.057 6.48918 104.087 6.39982 104.087 6.30054L104.206 5.13892L103.402 3.91772C103.342 3.8383 103.283 3.7688 103.223 3.70923C103.163 3.6298 103.104 3.5603 103.044 3.50073C102.985 3.44116 102.925 3.38159 102.866 3.32202C102.806 3.26245 102.746 3.19295 102.687 3.11353L102.598 2.10083C102.598 2.00155 102.578 1.89233 102.538 1.77319C102.498 1.73348 102.419 1.67391 102.3 1.59448L102.121 1.41577C102.061 1.3562 102.002 1.3562 101.942 1.41577L101.883 1.53491L102.598 6.53882L102.538 6.7771H102.24L102.181 6.95581C102.141 6.9161 102.121 6.87638 102.121 6.83667V6.41968L100.721 3.1731H100.364L100.096 3.44116C99.9963 3.95744 99.9764 4.434 100.036 4.87085C100.056 5.10913 100.086 5.34741 100.125 5.58569C100.165 5.82397 100.205 6.05233 100.244 6.27075C100.284 6.50903 100.324 6.74731 100.364 6.9856C100.403 7.22388 100.443 7.45223 100.483 7.67065C100.522 7.90894 100.542 8.14722 100.542 8.3855C100.562 8.62378 100.562 8.86206 100.542 9.10034L100.661 13.866L100.483 14.4617L100.423 15.0872C100.403 15.5836 100.433 16.08 100.513 16.5764C100.552 16.8346 100.582 17.0828 100.602 17.321C100.642 17.5593 100.661 17.8075 100.661 18.0657L100.542 21.074V21.1931L100.721 20.925C100.781 20.3095 100.81 19.6939 100.81 19.0784C100.791 18.7805 100.781 18.4827 100.781 18.1848C100.781 17.8671 100.781 17.5494 100.781 17.2317L101.138 13.866L101.198 14.0447C101.277 14.6801 101.337 15.3056 101.376 15.9211C101.416 16.5367 101.426 17.1622 101.406 17.7976C101.386 19.0684 101.446 20.2996 101.585 21.491L101.644 21.7888V21.908L101.585 21.9675C101.565 22.0271 101.525 22.0867 101.466 22.1462L101.198 22.8909C101.098 23.9234 101.019 24.956 100.959 25.9885C100.9 27.0012 100.87 28.0338 100.87 29.0862C100.85 30.1386 100.84 31.1811 100.84 32.2136C100.84 33.2462 100.84 34.2887 100.84 35.3411L100.721 37.2175C100.721 37.3565 100.721 37.4856 100.721 37.6047C100.721 37.7239 100.731 37.843 100.751 37.9622C100.751 38.2203 100.84 38.4784 101.019 38.7366H101.257L101.466 38.4983C101.684 37.565 101.863 36.7211 102.002 35.9666C102.081 35.5694 102.151 35.1723 102.21 34.7751C102.29 34.3582 102.379 33.9511 102.478 33.554L102.121 36.9792V37.7834L102.002 38.8259C101.942 39.0245 101.942 39.2231 102.002 39.4216L102.478 39.5408L102.687 39.4216C102.866 39.2826 102.955 39.1139 102.955 38.9153C102.935 38.7961 102.945 38.6571 102.985 38.4983L103.044 37.7834C103.084 37.9026 103.104 38.0217 103.104 38.1409C103.104 38.2004 103.114 38.2402 103.134 38.26C103.134 38.3394 103.163 38.4189 103.223 38.4983C103.302 38.4983 103.362 38.4486 103.402 38.3494C103.402 38.2501 103.422 38.1806 103.461 38.1409L103.7 37.7834L103.968 36.741L104.265 35.7581C104.524 34.6858 104.732 33.5738 104.891 32.4221C104.97 31.8661 105.04 31.3201 105.099 30.7839C105.159 30.2478 105.229 29.7117 105.308 29.1755L105.368 28.8181C105.427 28.3416 105.526 27.9246 105.665 27.5671C105.725 27.3686 105.785 27.17 105.844 26.9714C105.904 26.7729 105.963 26.5743 106.023 26.3757V26.3162L105.844 30.5159L105.785 31.2605L105.606 32.1541L105.368 32.9583L104.504 37.158L104.563 37.2771L104.682 37.158C104.841 36.6417 105 36.1254 105.159 35.6091C105.318 35.0929 105.467 34.5766 105.606 34.0603C105.884 33.0079 106.063 31.9853 106.142 30.9924V29.9202L106.202 29.4138L106.321 28.9373L106.38 28.4905C106.4 28.3316 106.42 28.1926 106.44 28.0735C106.46 27.9345 106.489 27.8054 106.529 27.6863C106.589 27.4877 106.648 27.2494 106.708 26.9714V26.197L106.589 21.1931V20.4485L106.708 19.6443L106.38 13.5085L106.44 12.5256ZM104.921 21.074L104.623 10.5598V9.72583L104.682 9.96411C104.762 10.8577 104.831 11.7512 104.891 12.6448C104.97 13.5185 105.05 14.4021 105.129 15.2957C105.189 16.1892 105.238 17.0927 105.278 18.0061C105.318 18.8997 105.348 19.8131 105.368 20.7463C105.368 20.8059 105.358 20.8456 105.338 20.8655C105.298 20.9052 105.268 20.925 105.248 20.925C105.209 20.9648 105.169 20.9846 105.129 20.9846C105.09 21.0045 105.04 21.0144 104.98 21.0144C104.941 21.0144 104.921 21.0343 104.921 21.074ZM104.325 26.9714L104.563 24.5291C104.583 24.3305 104.603 24.122 104.623 23.9036C104.643 23.6653 104.663 23.4171 104.682 23.1589C104.722 22.6029 104.821 22.1462 104.98 21.7888L105.159 22.4739V22.7717C105.119 22.871 105.09 22.9703 105.07 23.0696C105.05 23.149 105.02 23.2384 104.98 23.3376C104.901 23.5362 104.841 23.7546 104.802 23.9929V24.7673C104.782 25.0453 104.762 25.3333 104.742 25.6311C104.722 25.9091 104.702 26.1871 104.682 26.4651C104.643 26.7629 104.603 27.0608 104.563 27.3586C104.524 27.6366 104.484 27.9146 104.444 28.1926L104.325 27.0906V26.9714ZM102.598 23.5759C102.637 23.4369 102.667 23.2979 102.687 23.1589C102.707 23.0199 102.727 22.8809 102.746 22.7419V21.9675L102.806 20.7463C102.866 20.7662 102.935 20.8357 103.014 20.9548C103.034 21.0144 103.054 21.074 103.074 21.1335C103.094 21.1931 103.114 21.2527 103.134 21.3123C103.153 21.4115 103.163 21.5406 103.163 21.6995V21.9675L103.044 23.5759L102.985 23.6355H102.746C102.707 23.6355 102.677 23.6256 102.657 23.6057C102.637 23.6057 102.617 23.5958 102.598 23.5759ZM103.64 3.11353V3.1731L103.461 2.99438C103.422 2.8951 103.392 2.78589 103.372 2.66675C103.352 2.54761 103.322 2.4384 103.283 2.33911C103.243 2.23983 103.213 2.14054 103.193 2.04126C103.173 1.92212 103.144 1.79305 103.104 1.65405L103.044 1.47534L102.806 1.11792C102.806 1.07821 102.796 1.05835 102.776 1.05835H102.925C103.064 1.11792 103.173 1.20728 103.253 1.32642C103.292 1.40584 103.332 1.47534 103.372 1.53491C103.412 1.59448 103.441 1.65405 103.461 1.71362L103.759 2.45825C103.779 2.49797 103.789 2.54761 103.789 2.60718C103.809 2.66675 103.829 2.71639 103.848 2.7561C103.848 2.87524 103.819 2.99438 103.759 3.11353H103.64ZM104.504 4.96021L104.265 4.39429C104.226 4.35457 104.206 4.295 104.206 4.21558L104.325 4.27515C104.404 4.31486 104.464 4.34465 104.504 4.3645C104.504 4.40422 104.524 4.44393 104.563 4.48364C104.643 4.56307 104.682 4.70207 104.682 4.90063L104.504 4.96021ZM102.121 18.6316L102.181 18.3635C102.2 18.1848 102.22 18.0061 102.24 17.8274C102.26 17.6487 102.29 17.4799 102.329 17.321C102.349 17.1622 102.369 17.0033 102.389 16.8445C102.409 16.6658 102.439 16.4871 102.478 16.3083V15.5637C102.478 14.9879 102.459 14.422 102.419 13.866C102.399 13.2901 102.369 12.7143 102.329 12.1384C102.29 11.5626 102.25 10.9967 102.21 10.4407C102.171 9.86483 102.141 9.29891 102.121 8.74292L102.538 8.86206V9.27905L102.806 12.0491C102.846 12.5058 102.895 12.9625 102.955 13.4192C103.014 13.8759 103.064 14.3326 103.104 14.7893L103.163 15.385C103.223 16.497 103.163 17.599 102.985 18.6912L102.925 18.989C102.826 19.0883 102.746 19.1479 102.687 19.1677L102.538 19.1082C102.419 19.0287 102.339 18.9592 102.3 18.8997L102.121 18.6316ZM101.942 29.4734L101.466 32.7795L101.376 33.0774L101.466 33.6731C101.466 33.8717 101.525 34.0007 101.644 34.0603C101.724 34.0007 101.783 33.9412 101.823 33.8816V33.3157L101.883 33.0774C101.903 32.9384 101.922 32.7994 101.942 32.6604C101.962 32.5214 101.992 32.3725 102.032 32.2136C102.051 32.0746 102.071 31.9257 102.091 31.7668C102.111 31.608 102.141 31.4392 102.181 31.2605L102.24 31.052C102.28 30.774 102.31 30.496 102.329 30.218C102.369 29.94 102.409 29.662 102.449 29.384C102.488 29.1259 102.528 28.8678 102.568 28.6096C102.607 28.3316 102.647 28.0536 102.687 27.7756V27.5374C102.746 26.8027 102.746 26.0878 102.687 25.3928L102.24 25.8694L101.942 29.4734ZM115.048 30.218L117.133 31.7371C117.57 32.0349 117.987 32.3625 118.384 32.72C118.562 32.9185 118.731 33.1171 118.89 33.3157C119.069 33.5142 119.237 33.7227 119.396 33.9412L119.575 34.5964L120.677 35.8176C120.737 35.8573 120.796 35.907 120.856 35.9666C120.935 36.0261 121.025 36.0857 121.124 36.1453C121.263 36.2644 121.452 36.324 121.69 36.324L121.332 35.6985L120.677 34.5964L120.737 34.5369C120.776 34.4972 120.836 34.4773 120.915 34.4773L121.332 34.239L121.511 34.1199C121.571 34.1199 121.61 34.1596 121.63 34.239C121.67 34.3582 121.69 34.4376 121.69 34.4773L122.256 35.8176L123.358 36.9197C123.457 36.9792 123.556 37.0388 123.656 37.0984C123.755 37.1381 123.854 37.1778 123.953 37.2175C124.053 37.2572 124.142 37.3168 124.222 37.3962C124.321 37.4558 124.42 37.5253 124.519 37.6047L124.758 37.9622C124.797 38.0416 124.827 38.121 124.847 38.2004C124.867 38.2799 124.897 38.3692 124.936 38.4685C124.956 38.5678 124.966 38.6571 124.966 38.7366C124.986 38.8359 124.996 38.9252 124.996 39.0046L125.473 39.5408C125.512 39.5805 125.552 39.6103 125.592 39.6301C125.631 39.65 125.671 39.6698 125.711 39.6897C125.77 39.7294 125.86 39.7195 125.979 39.6599V39.5408L125.919 39.1833C125.76 38.6869 125.572 38.2104 125.353 37.7537C125.135 37.297 124.897 36.8601 124.639 36.4431C124.361 36.0261 124.083 35.6091 123.805 35.1921C123.527 34.7751 123.229 34.3582 122.911 33.9412L122.792 33.6135C122.832 33.6135 122.891 33.5738 122.971 33.4944L123.06 33.3157H123.119L123.358 33.8816L124.936 35.8772C125.036 36.0162 125.145 36.1453 125.264 36.2644C125.403 36.3835 125.542 36.5126 125.681 36.6516C125.959 36.9296 126.237 37.1381 126.515 37.2771L126.902 37.2175L127.021 36.741C126.843 36.1056 126.594 35.5396 126.277 35.0432C126.118 34.7652 125.939 34.5071 125.741 34.2688C125.562 34.0107 125.373 33.7525 125.175 33.4944C124.976 33.2362 124.768 32.988 124.549 32.7498C124.351 32.5115 124.142 32.2633 123.924 32.0051C123.467 31.5087 123.03 31.0123 122.613 30.5159L122.256 29.9202L121.898 29.4734C121.68 29.255 121.452 29.0465 121.213 28.8479C120.995 28.6295 120.766 28.4111 120.528 28.1926C120.29 27.9742 120.052 27.7657 119.813 27.5671C119.575 27.3686 119.347 27.17 119.128 26.9714L116.507 24.7673L115.792 24.2908C115.395 23.9731 114.968 23.6752 114.512 23.3972C114.055 23.1192 113.568 22.8512 113.052 22.593C114.68 20.3691 116.17 18.1054 117.52 15.802C118.195 14.6503 118.88 13.4986 119.575 12.3469C120.27 11.1952 120.975 10.0336 121.69 8.86206L123.298 6.47925C123.397 6.34025 123.497 6.19132 123.596 6.03247C123.695 5.87362 123.795 5.69491 123.894 5.49634C124.092 5.15877 124.192 4.79142 124.192 4.39429L123.953 4.33472L123.596 4.60278C123.159 5.13892 122.732 5.67505 122.315 6.21118C121.918 6.72746 121.521 7.24373 121.124 7.76001L118.711 10.8875L121.69 6.65796L122.077 5.94312L122.494 5.25806L123.358 4.09644C123.616 3.8383 123.735 3.60002 123.715 3.38159L123.536 2.99438L123.119 3.1731C122.782 3.45109 122.534 3.73901 122.375 4.03687C122.276 4.19572 122.166 4.3645 122.047 4.54321C121.948 4.70207 121.829 4.86092 121.69 5.01978L121.898 4.48364L122.017 4.15601C121.859 4.15601 121.69 4.21558 121.511 4.33472L120.975 4.96021L119.932 6.06226C118.542 7.63094 117.272 9.22941 116.12 10.8577C115.544 11.6917 114.968 12.5157 114.392 13.3298C113.817 14.144 113.241 14.968 112.665 15.802L112.367 16.1892C112.188 16.4076 112.01 16.6261 111.831 16.8445C111.652 17.0629 111.473 17.2714 111.295 17.47C111.096 17.6884 110.888 17.8969 110.669 18.0955C110.471 18.294 110.262 18.4926 110.044 18.6912V18.8699L113.886 12.8831L114.631 11.8406L115.554 10.7981L119.754 5.43677L119.873 5.19849L119.575 5.3772C118.999 5.99276 118.433 6.61825 117.877 7.25366C117.341 7.88908 116.815 8.54435 116.299 9.21948C115.226 10.5697 114.184 11.9101 113.171 13.2405L109.865 17.887L109.389 18.6912L107.244 22.4143L107.184 22.4739H107.125L108.286 25.6311C109.557 26.1474 110.719 26.7431 111.771 27.4182C112.288 27.7558 112.774 28.1231 113.231 28.5203C113.707 28.8975 114.174 29.2947 114.631 29.7117C114.651 29.7117 114.69 29.7415 114.75 29.801C114.77 29.8407 114.79 29.8705 114.809 29.8904C114.829 29.9102 114.849 29.94 114.869 29.9797L115.048 30.218ZM112.01 22.2952L112.367 23.01L112.248 22.9504L112.129 22.7122L111.95 22.1462C111.95 22.186 111.96 22.2058 111.98 22.2058C112 22.2257 112.01 22.2555 112.01 22.2952ZM112.546 23.1887V23.3079L112.427 23.1887H112.546ZM112.933 22.7717C113.35 23.0299 113.757 23.288 114.154 23.5461C114.551 23.7844 114.938 24.0326 115.316 24.2908C116.05 24.807 116.676 25.3928 117.192 26.0481L116.954 25.9885C116.696 25.8098 116.438 25.6311 116.18 25.4524C115.941 25.2737 115.693 25.085 115.435 24.8865C114.919 24.5291 114.382 24.1716 113.827 23.8142L112.605 23.1292L112.724 22.9504C112.744 22.9306 112.764 22.9207 112.784 22.9207C112.804 22.9008 112.834 22.871 112.873 22.8313L112.933 22.7717ZM108.823 22.7122L108.703 23.01L116.031 28.9373L116.507 29.4138L116.954 29.7117L117.371 30.2776L117.848 30.5159L118.056 30.8137L118.354 31.1116L118.592 31.3796L118.771 31.4988C118.513 31.3002 118.255 31.1016 117.996 30.9031C117.758 30.7045 117.52 30.496 117.282 30.2776C117.043 30.0592 116.795 29.8606 116.537 29.6819C116.299 29.4833 116.05 29.2947 115.792 29.116L109.15 24.7078L109.001 24.6482L108.406 22.8909V22.8313C108.406 22.7916 108.425 22.7519 108.465 22.7122H108.703C108.703 22.732 108.713 22.7419 108.733 22.7419C108.773 22.7419 108.803 22.732 108.823 22.7122ZM112.01 18.572L110.491 20.8059C110.411 20.9052 110.312 21.0243 110.193 21.1633C110.093 21.3023 109.974 21.4711 109.835 21.6697C109.537 22.047 109.22 22.315 108.882 22.4739L109.091 22.0867L109.15 21.908C109.19 21.8682 109.23 21.8385 109.269 21.8186C109.309 21.7789 109.349 21.7392 109.389 21.6995C109.488 21.6399 109.567 21.5505 109.627 21.4314L110.163 20.8059L110.371 20.5081C110.57 20.2301 110.759 19.9521 110.937 19.6741C111.136 19.3961 111.334 19.1181 111.533 18.8401C111.732 18.5621 111.92 18.294 112.099 18.0359C112.298 17.7778 112.506 17.5097 112.724 17.2317L112.01 18.5125V18.572ZM111.89 22.0867L111.771 22.2058L111.503 21.9675C111.563 21.9874 111.632 22.0172 111.712 22.0569C111.751 22.0767 111.811 22.0867 111.89 22.0867ZM123.715 37.843V37.7834L123.953 37.9622C124.033 38.121 124.102 38.2799 124.162 38.4387C124.241 38.5976 124.311 38.7465 124.37 38.8855C124.41 39.0245 124.46 39.1536 124.519 39.2727C124.599 39.4117 124.678 39.5408 124.758 39.6599L124.996 40.0173C124.996 40.0769 125.006 40.1166 125.026 40.1365C125.026 40.2358 125.016 40.2854 124.996 40.2854H124.936C124.877 40.206 124.817 40.1365 124.758 40.0769C124.698 40.0173 124.639 39.9478 124.579 39.8684L124.251 39.5408L123.775 38.677C123.735 38.5777 123.705 38.4884 123.685 38.4089C123.666 38.3494 123.646 38.2898 123.626 38.2302C123.566 38.1111 123.556 38.0019 123.596 37.9026L123.715 37.843ZM122.137 36.1155L122.554 36.4431C122.593 36.4828 122.613 36.5225 122.613 36.5623V36.6814C122.534 36.6814 122.484 36.6715 122.464 36.6516C122.424 36.6516 122.375 36.602 122.315 36.5027L122.137 36.3835C122.057 36.3637 122.017 36.2942 122.017 36.175L122.137 36.1155ZM111.086 22.8909L111.146 22.9504C111.245 23.0497 111.354 23.149 111.473 23.2483C111.612 23.3476 111.751 23.4469 111.89 23.5461C112.029 23.6653 112.168 23.7745 112.307 23.8738C112.446 23.9731 112.585 24.0723 112.724 24.1716L112.993 24.3503L114.154 25.1545C114.531 25.4524 114.909 25.7105 115.286 25.929L116.031 26.5544L116.835 27.1501L117.728 27.8948L121.452 31.2009L121.69 31.4392L122.077 32.1541C121.958 32.1541 121.829 32.0945 121.69 31.9753L120.975 31.2605C120.697 31.0024 120.409 30.7442 120.111 30.4861C119.833 30.2081 119.545 29.9301 119.247 29.6521C118.93 29.3741 118.612 29.106 118.294 28.8479C117.977 28.5898 117.649 28.3316 117.311 28.0735L116.835 27.7161C116.636 27.5572 116.428 27.3984 116.209 27.2395C116.011 27.0806 115.802 26.9218 115.584 26.7629C115.107 26.4055 114.651 26.1077 114.214 25.8694L110.669 23.5759L110.491 23.3079V23.1887C110.53 23.149 110.58 23.1192 110.639 23.0994C110.699 23.0795 110.749 23.0497 110.788 23.01C110.828 22.9902 110.868 22.9703 110.908 22.9504C110.967 22.9306 111.027 22.9107 111.086 22.8909ZM115.971 16.3083L119.396 11.7214L119.813 10.8875C119.833 10.8477 119.853 10.808 119.873 10.7683C119.893 10.7087 119.913 10.6591 119.932 10.6194C119.952 10.54 119.932 10.4605 119.873 10.3811L119.456 10.8875L117.133 13.9255L114.065 18.0657L113.886 18.5125C113.767 18.6713 113.648 18.8401 113.529 19.0188C113.429 19.1975 113.33 19.3861 113.231 19.5847C113.132 19.7833 113.022 19.9719 112.903 20.1506C112.804 20.3293 112.705 20.5081 112.605 20.6868L113.29 20.2698L115.971 16.3083Z" fill="#A9AFAD"/>
</svg>
