<svg width="234" height="51" viewBox="0 0 234 51" fill="none" xmlns="http://www.w3.org/2000/svg">
<path d="M13.6543 42.822C14.1507 42.8816 14.7166 42.9312 15.3521 42.9709L17.2881 43.0305C18.3604 43.0901 19.9489 43.1199 22.0537 43.1199C31.863 43.1199 36.7676 39.5655 36.7676 32.4568C36.7676 29.5577 35.6755 27.3536 33.4912 25.8445C31.307 24.3354 28.3781 23.5808 24.7046 23.5808H13.6543V42.822ZM21.9644 19.1726C26.8888 19.1726 29.8376 17.8223 30.8105 15.1218C31.1283 14.2481 31.2871 13.3248 31.2871 12.3518C31.2871 10.6243 30.612 9.12508 29.2617 7.85425C27.9115 6.58341 26.1144 5.83879 23.8706 5.62036C21.6466 5.38208 19.5617 5.26294 17.6157 5.26294C15.6896 5.26294 14.3691 5.29272 13.6543 5.35229V19.1726H21.9644ZM32.3892 20.7214C39.1405 21.8533 42.5161 25.9636 42.5161 33.0525C42.5161 34.8595 42.109 36.6764 41.2949 38.5032C40.4808 40.33 39.21 41.9185 37.4824 43.2688C33.7891 46.148 28.3483 47.5876 21.1602 47.5876C20.4056 47.5876 19.5716 47.5579 18.6582 47.4983L12.9097 47.2004C12.1551 47.1607 11.4006 47.1409 10.646 47.1409L4.80811 47.5281C2.36572 47.5281 1.14453 46.6345 1.14453 44.8474C1.14453 43.0404 2.59408 42.137 5.49316 42.137C6.34701 42.137 7.23063 42.1767 8.14404 42.2561V5.91821L7.19092 6.03735C5.70166 6.29549 4.46061 6.42456 3.46777 6.42456C2.49479 6.42456 1.70052 6.19621 1.08496 5.7395C0.469401 5.26294 0.161621 4.63745 0.161621 3.86304C0.161621 2.39364 1.36296 1.49015 3.76562 1.15259C5.51302 0.934163 9.21631 0.824951 14.8755 0.824951C20.5347 0.824951 24.3174 0.983805 26.2236 1.30151C29.7383 1.87736 32.4388 3.13827 34.3252 5.08423C36.2116 7.01034 37.1548 9.33358 37.1548 12.054C37.1548 14.7743 36.2811 17.1174 34.5337 19.0833C33.938 19.7385 33.2231 20.2846 32.3892 20.7214Z" fill="#A9AFAD"/>
<path d="M73.9109 47.4089C71.5082 46.9125 67.9935 46.6643 63.3669 46.6643C58.7403 46.6643 55.4242 46.7437 53.4187 46.9026C51.4131 47.0614 50.2416 47.1409 49.904 47.1409C48.1368 47.1409 47.2531 46.3267 47.2531 44.6985C47.2531 43.5667 48.1864 42.7922 50.0529 42.3752C50.6884 42.2362 51.4529 42.1667 52.3464 42.1667H54.8186V5.62036H51.8103C50.7976 5.62036 49.9834 5.40194 49.3679 4.96509C48.7722 4.52824 48.4743 3.95239 48.4743 3.23755C48.4743 2.52271 48.7325 1.94686 49.2487 1.51001C49.765 1.0533 50.4699 0.824951 51.3635 0.824951L57.6184 1.03345L63.4861 0.824951C65.0746 0.824951 66.0774 1.31144 66.4944 2.28442C66.6135 2.56242 66.6731 2.85034 66.6731 3.14819C66.6731 4.79631 65.4122 5.62036 62.8904 5.62036H60.3586V42.2561C65.3625 42.5738 68.6885 42.7327 70.3366 42.7327C72.0046 42.7327 73.057 42.6334 73.4939 42.4348C74.6654 41.9583 75.8668 40.6179 77.0979 38.4138C78.3488 36.1899 79.2722 34.8098 79.8679 34.2737C80.4834 33.7375 81.1189 33.4695 81.7741 33.4695C83.1045 33.4695 83.8591 34.234 84.0378 35.7629C84.0577 35.8424 84.0676 36.0608 84.0676 36.4182C84.0676 36.7756 83.6506 37.5302 82.8166 38.6819C81.9826 39.8137 81.1884 41.2633 80.4338 43.0305C79.6793 44.7779 79.163 46.2771 78.885 47.5281C78.3886 49.7123 77.5347 50.8044 76.3235 50.8044C75.6285 50.8044 75.0427 50.5463 74.5661 50.03C74.1094 49.5138 73.8811 48.8386 73.8811 48.0046C73.8811 47.9054 73.8811 47.8061 73.8811 47.7068C73.8811 47.6075 73.891 47.5082 73.9109 47.4089Z" fill="#A9AFAD"/>
<path d="M98.3954 28.9421C102.784 32.3178 105.236 34.2638 105.752 34.78L106.825 35.8821C107.44 36.4579 107.956 36.7458 108.373 36.7458C108.79 36.7458 109.158 36.6466 109.476 36.448C109.793 36.2296 110.171 35.892 110.607 35.4353C111.064 34.9587 111.57 34.4921 112.126 34.0354L118.768 28.9124L110.637 11.3689C110.101 10.1973 109.674 9.31372 109.356 8.71802C109.059 8.12231 108.781 7.82446 108.522 7.82446C108.284 7.82446 108.036 8.04289 107.778 8.47974C107.539 8.89673 107.222 9.552 106.825 10.4456L98.3954 28.9421ZM88.1494 46.9026L83.7411 47.1409C82.1923 47.1409 81.4179 46.5154 81.4179 45.2644C81.4179 44.4503 82.0633 43.5468 83.3539 42.554C85.6573 40.7271 87.8019 37.8876 89.7875 34.0354L100.153 13.1858L103.846 5.35229C104.72 3.42619 105.464 2.09578 106.08 1.36108C106.715 0.606527 107.52 0.229248 108.493 0.229248C109.466 0.229248 110.28 0.556885 110.935 1.21216C111.61 1.86743 112.414 3.19784 113.348 5.20337L119.871 19.1428C125.45 30.2229 128.419 36.0906 128.776 36.7458L129.878 38.7415C130.752 40.2704 131.358 41.1938 131.695 41.5115C132.033 41.8292 132.38 42.0972 132.738 42.3157C134.306 43.2489 135.091 44.0829 135.091 44.8176C135.091 46.3665 134.316 47.1409 132.768 47.1409L128.27 46.9324L122.224 47.1409C121.211 47.1409 120.417 46.9423 119.841 46.5452C119.265 46.148 118.977 45.5523 118.977 44.7581C118.977 43.1298 120.784 42.3157 124.398 42.3157C124.616 42.3157 124.835 42.3157 125.053 42.3157C125.272 42.3157 125.49 42.3057 125.708 42.2859C125.172 41.5115 124.616 40.5286 124.04 39.3372L121.002 33.1418L115.403 37.4905C113.576 38.9003 112.216 40.1513 111.322 41.2434C110.429 42.3157 109.615 42.8518 108.88 42.8518C108.145 42.8518 107.559 42.6731 107.122 42.3157C106.706 41.9583 106.328 41.581 105.991 41.1838L104.74 39.7542C104.382 39.3372 103.906 38.8904 103.31 38.4138L98.7231 34.9885C97.7898 34.3134 96.8367 33.5886 95.8637 32.8142L91.4853 42.4646H92.3788C94.3248 42.4646 95.7346 42.6433 96.6083 43.0007C97.482 43.3383 97.9189 43.9936 97.9189 44.9666C97.9189 46.436 96.9062 47.1707 94.8808 47.1707L88.1494 46.9026Z" fill="#A9AFAD"/>
<path d="M145.278 46.9622L139.321 47.1409C138.448 47.1409 137.753 46.9324 137.236 46.5154C136.74 46.0785 136.492 45.5027 136.492 44.7878C136.492 44.073 136.79 43.4872 137.385 43.0305C137.981 42.5738 138.795 42.3455 139.828 42.3455H142.687V5.50122L140.155 5.7395C139.997 5.7395 139.848 5.7395 139.709 5.7395C138.497 5.7395 137.564 5.51115 136.909 5.05444C136.273 4.59774 135.956 3.97225 135.956 3.17798C135.956 1.60929 137.276 0.824951 139.917 0.824951C143.69 0.824951 146.281 1.16252 147.691 1.83765C149.101 2.49292 150.213 3.34676 151.027 4.39917C151.861 5.45158 152.586 6.46427 153.201 7.43726L172.472 38.2053C172.333 36.1204 172.264 34.4028 172.264 33.0525V5.62036H169.464C168.451 5.62036 167.637 5.40194 167.022 4.96509C166.406 4.52824 166.098 3.95239 166.098 3.23755C166.098 2.52271 166.356 1.94686 166.873 1.51001C167.409 1.0533 168.114 0.824951 168.987 0.824951L174.944 1.03345L180.485 0.824951C182.093 0.824951 183.086 1.31144 183.463 2.28442C183.582 2.56242 183.642 2.85034 183.642 3.14819C183.642 4.79631 182.401 5.62036 179.919 5.62036H177.744V42.3157H179.293C181.875 42.3157 183.165 43.1497 183.165 44.8176C183.165 46.3665 181.875 47.1409 179.293 47.1409H176.672C175.322 47.1409 174.13 46.8331 173.098 46.2175C172.085 45.602 171.291 44.8673 170.715 44.0134L147.9 8.39038C148.078 10.2768 148.168 12.3717 148.168 14.675V42.3455H150.282C151.652 42.3455 152.616 42.5937 153.172 43.0901C153.747 43.5667 154.035 44.0531 154.035 44.5496C154.035 46.2771 152.973 47.1409 150.848 47.1409L145.278 46.9622Z" fill="#A9AFAD"/>
<path d="M233.235 44.5496C233.235 46.2771 232.242 47.1409 230.257 47.1409C229.304 47.1409 228.39 47.1111 227.516 47.0515C226.663 46.9919 225.719 46.9622 224.687 46.9622L221.947 47.0515C220.954 47.1111 220.04 47.1409 219.206 47.1409C218.392 47.1409 217.727 46.9324 217.211 46.5154C216.695 46.0785 216.436 45.5027 216.436 44.7878C216.436 44.073 216.734 43.4872 217.33 43.0305C217.946 42.5738 218.76 42.3455 219.772 42.3455H221.947C220.021 36.2891 215.87 29.6371 209.496 22.3894C207.034 24.0574 204.423 25.6161 201.663 27.0657V42.3455H203.748C205.138 42.3455 206.111 42.5937 206.667 43.0901C207.223 43.5667 207.501 44.0531 207.501 44.5496C207.501 46.2771 206.439 47.1409 204.314 47.1409L198.804 46.9622L192.847 47.1409C191.953 47.1409 191.248 46.9324 190.732 46.5154C190.216 46.0785 189.957 45.5027 189.957 44.7878C189.957 44.073 190.255 43.4872 190.851 43.0305C191.467 42.5738 192.281 42.3455 193.293 42.3455H196.123V5.62036H193.293C192.281 5.62036 191.467 5.40194 190.851 4.96509C190.255 4.52824 189.957 3.95239 189.957 3.23755C189.957 2.52271 190.216 1.94686 190.732 1.51001C191.248 1.0533 191.953 0.824951 192.847 0.824951L198.804 1.03345L204.314 0.824951C205.942 0.824951 206.945 1.31144 207.322 2.28442C207.441 2.56242 207.501 2.85034 207.501 3.14819C207.501 4.79631 206.25 5.62036 203.748 5.62036H201.663V22.2107C205.992 19.7882 210.916 16.0452 216.436 10.9817C219.038 8.59888 221.033 6.55363 222.423 4.84595C223.813 3.13827 224.826 2.04614 225.461 1.56958C226.117 1.07316 226.782 0.824951 227.457 0.824951C228.152 0.824951 228.748 1.01359 229.244 1.39087C229.76 1.76815 230.018 2.30428 230.018 2.99927C230.018 3.69425 229.86 4.32967 229.542 4.90552C229.244 5.48136 228.678 6.19621 227.844 7.05005C225.441 9.43286 223.535 11.2597 222.125 12.5305L218.015 16.075C216.665 17.1869 215.245 18.2989 213.756 19.4109C220.507 26.4998 225.193 34.1446 227.814 42.3455H229.482C230.872 42.3455 231.845 42.5937 232.401 43.0901C232.957 43.5667 233.235 44.0531 233.235 44.5496Z" fill="#A9AFAD"/>
</svg>
