<svg width="157" height="41" viewBox="0 0 157 41" fill="none" xmlns="http://www.w3.org/2000/svg">
<path d="M4.2124 11.3811L11.1821 10.1599L11.3608 15.7893V19.1848L19.9688 17.6062C21.18 15.6801 21.7856 13.4859 21.7856 11.0237C21.7856 10.3684 21.7261 9.75285 21.6069 9.177C16.7222 7.80688 9.81201 7.12183 0.876465 7.12183L1.94873 0.032959C10.785 0.1521 18.3504 0.8868 24.645 2.23706C25.5783 2.47534 26.6108 3.49797 27.7427 5.30493C28.8149 7.01261 29.3511 8.20402 29.3511 8.87915C29.3511 9.55428 29.3014 10.2691 29.2021 11.0237C29.1029 11.7584 28.9539 12.5527 28.7554 13.4065C28.0207 16.5637 27.2264 18.5295 26.3726 19.304C25.8166 19.8202 24.2479 20.4755 21.6665 21.2698L21.6069 21.5081L27.5342 24.1887C27.8122 25.3801 27.9512 26.5616 27.9512 27.7332C27.9512 28.8848 27.8817 29.8975 27.7427 30.7712C27.6037 31.6449 27.4349 32.469 27.2363 33.2434C26.5612 35.6659 25.8364 37.1353 25.062 37.6516C23.8309 38.4657 19.1546 39.2402 11.0332 39.9749C8.51139 40.1933 6.52572 40.3223 5.07617 40.3621L4.2124 11.3811ZM11.7778 34.0774C15.4513 33.7597 18.132 33.3328 19.8198 32.7966C20.4354 30.7712 20.7432 29.2522 20.7432 28.2395C20.7432 27.2069 20.7134 26.4325 20.6538 25.9163C20.6141 25.3801 20.4453 24.9929 20.1475 24.7546L11.5991 23.8909L11.7778 34.0774Z" fill="#A9AFAD"/>
<path d="M35.9646 1.61157L43.4704 0.420166V16.7424L42.5471 31.2776C44.0761 31.8733 46.1412 32.3499 48.7424 32.7073C51.3436 33.0448 52.9123 33.2533 53.4485 33.3328L51.7507 39.9451C49.626 39.6671 47.9084 39.4089 46.5979 39.1707L43.113 38.5154C39.5189 37.8204 37.1361 37.1949 35.9646 36.6389V1.61157Z" fill="#A9AFAD"/>
<path d="M72.2143 29.282H70.2485C69.1365 29.282 67.3792 29.0536 64.9765 28.5969L62.7128 39.6174L55.624 38.0388L59.1088 22.5505L63.1596 2.29663C67.6472 1.50236 72.3831 0.896729 77.3671 0.479736L82.0732 20.9124L85.707 38.843L78.4692 40.0046L75.2822 22.4314L72.1845 7.59839C71.0527 7.59839 69.8712 7.78703 68.6401 8.16431L66.0786 22.8484L73.7631 23.0271L72.8398 29.2522C72.6214 29.2721 72.4129 29.282 72.2143 29.282Z" fill="#A9AFAD"/>
<path d="M91.3078 35.8645C91.3078 29.7883 91.3971 23.1363 91.5758 15.9084L91.0099 2.59448C91.3872 2.51506 91.8836 2.41577 92.4992 2.29663C92.4992 2.29663 93.1942 2.16756 94.5841 1.90942C95.3387 1.77043 96.133 1.63143 96.9669 1.49243L99.4689 1.07544C100.918 0.857015 102.408 0.698161 103.937 0.598877L111.8 25.4695L113.617 34.0178L115.344 33.8391L114.957 24.2483L115.225 1.07544L122.85 0.420166C122.691 6.39705 122.195 14.1611 121.361 23.7122L120.914 38.3367C117.36 38.9919 113.299 39.4387 108.732 39.677L100.869 14.5085L99.1115 6.64526L97.5329 6.88354L97.8307 15.8489L98.1286 39.0813L91.3078 39.677V35.8645Z" fill="#A9AFAD"/>
<path d="M130.179 1.43286L137.595 0.420166L137.804 19.6912L139.203 19.9294L150.403 0.0925293L156.896 3.93481C155.764 6.3772 154.344 8.81958 152.637 11.262L148.884 16.5042L146.62 19.3933C145.905 20.2869 145.24 21.0514 144.624 21.6868C146.193 23.2952 147.365 24.5362 148.139 25.4099C152.051 29.977 154.841 33.6405 156.509 36.4006L150.403 40.8386L140.097 24.9929L137.565 26.1545L137.059 39.1409L130.417 39.7366L130.179 1.43286ZM134.438 27.5544C134.438 27.5743 134.438 27.5842 134.438 27.5842C134.458 27.5842 134.468 27.5743 134.468 27.5544H134.438Z" fill="#A9AFAD"/>
</svg>
