<svg width="230" height="60" viewBox="0 0 230 60" fill="none" xmlns="http://www.w3.org/2000/svg">
<path d="M3.4082 46.9621C2.2168 46.2869 1.38281 45.6317 0.90625 44.9962C0.429688 44.3608 0.191406 43.6857 0.191406 42.9708C0.191406 42.256 0.370117 41.4617 0.727539 40.588C1.08496 39.7143 1.50195 38.7016 1.97852 37.5499C2.09766 37.3117 2.33594 36.8351 2.69336 36.1203C3.05078 35.3657 3.44792 34.492 3.88477 33.4992C4.36133 32.5063 4.85775 31.4738 5.37402 30.4015C5.93001 29.2895 6.42643 28.2371 6.86328 27.2443C7.33984 26.2514 7.73698 25.3976 8.05469 24.6828C8.41211 23.9282 8.65039 23.4318 8.76953 23.1935C9.28581 22.0815 9.50423 21.1085 9.4248 20.2746C9.38509 19.4009 9.28581 18.5867 9.12695 17.8322C9.00781 17.0776 8.94824 16.3429 8.94824 15.6281C8.98796 14.9132 9.36523 14.0991 10.0801 13.1857C10.1992 13.0666 10.4574 12.7886 10.8545 12.3517C11.2516 11.9149 11.6686 11.4582 12.1055 10.9816C12.582 10.4653 13.0189 10.0086 13.416 9.61147C13.8132 9.17463 14.0514 8.89663 14.1309 8.77749C14.3294 8.53921 14.8854 8.14207 15.7988 7.58608C16.752 7.03009 17.9036 6.43439 19.2539 5.79897C20.6042 5.12384 22.0934 4.44871 23.7217 3.77358C25.3896 3.05874 27.0378 2.44318 28.666 1.9269C30.2943 1.37091 31.863 0.953923 33.3721 0.675928C34.8812 0.397933 36.1719 0.318506 37.2441 0.437646C38.3164 0.556787 39.0908 0.934066 39.5674 1.56948C40.0837 2.2049 40.1631 3.17788 39.8057 4.48843C39.21 6.63296 38.237 8.51935 36.8867 10.1476C35.5762 11.7759 34.1862 13.2254 32.7168 14.4962C31.2474 15.7671 29.8376 16.8989 28.4873 17.8917C27.1768 18.8846 26.2038 19.8179 25.5684 20.6916C30.334 20.8504 33.8089 21.4263 35.9932 22.4191C38.2171 23.4119 39.4681 24.6629 39.7461 26.172C40.0638 27.6811 39.5872 29.369 38.3164 31.2355C37.0456 33.0623 35.2982 34.8891 33.0742 36.716C30.8503 38.5031 28.3285 40.2108 25.5088 41.839C22.6891 43.4276 19.8695 44.7381 17.0498 45.7707C14.2699 46.8032 11.6488 47.4585 9.18652 47.7365C6.764 48.0145 4.83789 47.7563 3.4082 46.9621ZM8.11426 32.546C7.3597 33.4595 6.66471 34.4722 6.0293 35.5841C5.39388 36.6564 4.89746 37.7287 4.54004 38.8009C4.22233 39.8335 4.08333 40.8263 4.12305 41.7794C4.16276 42.6929 4.46061 43.4474 5.0166 44.0431C5.57259 44.5991 6.40658 44.9367 7.51855 45.0558C8.67025 45.1749 10.1992 44.9565 12.1055 44.4005C16.3151 43.4474 19.9688 42.2361 23.0664 40.7667C26.2038 39.2973 28.7852 37.7684 30.8105 36.1798C32.8757 34.5516 34.3848 32.9432 35.3379 31.3546C36.3307 29.7661 36.7874 28.3761 36.708 27.1847C36.6683 25.9536 36.0924 25.0203 34.9805 24.3849C33.9082 23.7495 32.3395 23.5708 30.2744 23.8488C28.2093 24.0871 25.6478 24.9012 22.5898 26.2912C19.5716 27.6414 16.0768 29.7264 12.1055 32.546C11.6686 32.9035 11.2715 33.0822 10.9141 33.0822C10.5566 33.0425 10.2191 32.963 9.90137 32.8439C9.58366 32.685 9.28581 32.546 9.00781 32.4269C8.72982 32.3078 8.43197 32.3475 8.11426 32.546ZM9.4248 27.5421C9.4248 27.6613 9.40495 27.84 9.36523 28.0783C9.36523 28.3166 9.36523 28.5747 9.36523 28.8527C9.36523 29.091 9.36523 29.3292 9.36523 29.5675C9.40495 29.8058 9.4248 29.9845 9.4248 30.1037C9.74251 30.0242 10.3978 29.647 11.3906 28.9718C12.3835 28.2967 13.5749 27.423 14.9648 26.3507C16.3945 25.2785 17.9434 24.0672 19.6113 22.7169C21.2793 21.327 22.9473 19.8973 24.6152 18.4279C26.3229 16.9188 27.9313 15.4295 29.4404 13.9601C30.9893 12.451 32.3197 11.0412 33.4316 9.73062C34.5436 8.42007 35.3776 7.26838 35.9336 6.27554C36.5293 5.24298 36.708 4.44871 36.4697 3.89272C34.7223 3.65444 32.8757 3.77358 30.9297 4.25015C29.0234 4.687 27.137 5.34227 25.2705 6.21597C23.4437 7.08966 21.736 8.10236 20.1475 9.25405C18.5589 10.366 17.2285 11.4582 16.1562 12.5304C15.918 13.0467 15.5208 13.9601 14.9648 15.2707C14.4089 16.5812 13.7933 17.9712 13.1182 19.4406C12.4827 20.91 11.8672 22.3 11.2715 23.6105C10.7155 24.8813 10.3184 25.7749 10.0801 26.2912C10.0801 26.3706 9.98079 26.589 9.78223 26.9464C9.58366 27.2641 9.46452 27.4627 9.4248 27.5421Z" fill="#A9AFAD"/>
<path d="M42.279 46.4855C41.6436 46.0486 41.3855 45.3934 41.5046 44.5197C41.6237 43.646 41.9017 42.7524 42.3386 41.839C42.7754 40.8065 43.4109 39.6746 44.2448 38.4435C45.5157 36.021 46.6475 33.8566 47.6404 31.9503C48.6729 30.0044 49.626 28.1776 50.4997 26.4699C51.3734 24.7622 52.2074 23.1141 53.0017 21.5255C53.7959 19.937 54.5902 18.269 55.3845 16.5216C56.2185 14.7742 57.0723 12.9077 57.946 10.922C58.8197 8.93634 59.7927 6.67267 60.865 4.13101C60.9444 3.97215 61.0635 3.75373 61.2224 3.47573C61.4209 3.15802 61.6394 2.91974 61.8777 2.76089C62.1556 2.56232 62.4336 2.50275 62.7116 2.58218C62.9896 2.62189 63.2676 2.89989 63.5456 3.41616C63.9428 4.21043 63.9626 5.30256 63.6052 6.69253C63.2875 8.0825 62.7116 9.6909 61.8777 11.5177C61.0437 13.3048 60.0508 15.2508 58.8991 17.3556C57.7474 19.4207 56.5362 21.5255 55.2654 23.6701C53.9945 25.8146 52.7435 27.9393 51.5124 30.0441C50.2813 32.1489 49.1892 34.1147 48.2361 35.9416C47.3226 37.7684 46.6078 39.4363 46.0915 40.9455C45.615 42.4149 45.4561 43.5864 45.615 44.4601C48.4346 44.7381 51.2741 44.7182 54.1335 44.4005C56.9929 44.0828 59.8523 43.7055 62.7116 43.2687C65.571 42.7921 68.4304 42.3751 71.2898 42.0177C74.1889 41.6603 77.0681 41.5809 79.9275 41.7794C80.4437 41.7 80.8806 41.8787 81.238 42.3156C81.5954 42.7524 81.6153 43.229 81.2976 43.7453C81.2181 43.7453 81.0394 43.7453 80.7614 43.7453C80.5232 43.7055 80.265 43.6857 79.987 43.6857C79.709 43.6857 79.431 43.7055 79.153 43.7453C78.9148 43.7453 78.7361 43.7453 78.6169 43.7453C76.393 43.9438 73.7917 44.3013 70.8132 44.8175C67.8347 45.2941 64.7569 45.7508 61.5798 46.1876C58.4027 46.6245 55.2256 46.9621 52.0486 47.2003C48.9112 47.4386 46.0717 47.4188 43.53 47.1408C43.4903 47.1408 43.2917 47.0613 42.9343 46.9025C42.6166 46.7039 42.3982 46.5649 42.279 46.4855Z" fill="#A9AFAD"/>
<path d="M76.5034 58.1613C76.3842 58.0819 76.2055 57.8833 75.9672 57.5656C75.6892 57.2876 75.4708 56.9897 75.312 56.672C75.1531 56.3543 75.0935 56.0763 75.1332 55.838C75.1332 55.5998 75.3517 55.4806 75.7885 55.4806C76.6225 56.6323 77.794 57.0692 79.3032 56.7912C80.8123 56.5132 82.4405 55.8182 84.1879 54.7062C85.9353 53.6339 87.7026 52.2638 89.4897 50.5958C91.3165 48.9676 92.9448 47.3393 94.3745 45.7111C95.8439 44.0828 97.0353 42.6134 97.9487 41.3029C98.9018 39.9923 99.3784 39.1186 99.3784 38.6818C99.3784 38.5626 99.2195 38.3839 98.9018 38.1457C98.5841 37.8677 98.2068 37.5897 97.77 37.3117C97.3728 37.0337 96.9955 36.7755 96.6381 36.5373C96.2807 36.299 96.0623 36.1203 95.9828 36.0011C96.102 35.604 96.4793 35.3061 97.1147 35.1076C97.7501 34.8693 98.4649 34.6707 99.2592 34.5119C100.053 34.3133 100.828 34.1346 101.582 33.9757C102.377 33.7772 102.972 33.5389 103.37 33.2609C105.474 30.2029 107.301 27.4627 108.85 25.0402C110.439 22.5779 111.928 20.1753 113.318 17.8322C114.747 15.4494 116.197 13.007 117.666 10.505C119.136 8.00308 120.824 5.18341 122.73 2.04604C123.246 1.17235 123.663 0.874495 123.981 1.15249C124.299 1.43049 124.537 2.10562 124.696 3.17788C124.855 4.25015 124.954 5.62026 124.994 7.28823C125.033 8.91649 125.033 10.6837 124.994 12.59C124.954 14.4962 124.874 16.4422 124.755 18.4279C124.676 20.4136 124.577 22.2404 124.457 23.9083C124.378 25.5763 124.299 27.0259 124.219 28.257C124.179 29.4484 124.179 30.2228 124.219 30.5802C124.378 32.6056 124.477 34.3729 124.517 35.882C124.596 37.3514 124.795 38.7215 125.113 39.9923C125.43 41.2235 125.967 42.4347 126.721 43.6261C127.515 44.7778 128.707 46.0486 130.295 47.4386C128.985 47.8755 127.893 47.8358 127.019 47.3195C126.185 46.8429 125.49 46.1082 124.934 45.1154C124.418 44.0828 123.981 42.9113 123.623 41.6007C123.306 40.2505 122.988 38.9598 122.67 37.7287C122.392 36.4578 122.055 35.3657 121.658 34.4523C121.3 33.4992 120.804 32.8836 120.168 32.6056C120.129 32.6056 120.01 32.6056 119.811 32.6056C119.652 32.5659 119.454 32.546 119.215 32.546C119.017 32.546 118.818 32.5659 118.62 32.6056C118.421 32.6056 118.282 32.6056 118.203 32.6056C117.845 32.685 117.17 32.8439 116.177 33.0822C115.224 33.3205 114.172 33.5786 113.02 33.8566C111.868 34.1346 110.756 34.4126 109.684 34.6906C108.651 34.9686 107.897 35.1671 107.42 35.2863C106.428 35.5643 105.375 36.1997 104.263 37.1925C103.191 38.1854 102.039 39.3966 100.808 40.8263C99.6166 42.2163 98.3657 43.7453 97.0551 45.4132C95.7843 47.0812 94.4737 48.7095 93.1235 50.298C91.7732 51.8865 90.4031 53.3559 89.0131 54.7062C87.6231 56.0565 86.2332 57.1486 84.8432 57.9826C83.4532 58.8166 82.0633 59.2733 80.6733 59.3527C79.2436 59.4718 77.8536 59.0747 76.5034 58.1613ZM108.79 31.9503C108.87 31.9901 109.068 32.0099 109.386 32.0099C109.744 32.0099 109.982 31.9901 110.101 31.9503C110.816 31.8312 111.709 31.6922 112.782 31.5333C113.854 31.3745 114.926 31.1958 115.998 30.9972C117.071 30.7589 118.064 30.5008 118.977 30.2228C119.89 29.9051 120.526 29.5675 120.883 29.2101C120.883 29.2101 120.943 28.7931 121.062 27.9591C121.181 27.1251 121.32 26.0727 121.479 24.8019C121.638 23.4914 121.797 22.0617 121.956 20.5128C122.154 18.9243 122.333 17.3755 122.492 15.8664C122.65 14.3572 122.77 12.9673 122.849 11.6964C122.968 10.3859 123.048 9.37319 123.087 8.65835C122.65 8.45978 122.075 8.97606 121.36 10.2072C120.645 11.3986 119.712 13.0467 118.56 15.1515C117.448 17.2563 116.078 19.7186 114.45 22.5382C112.861 25.3182 110.975 28.2173 108.79 31.2355V31.9503Z" fill="#A9AFAD"/>
<path d="M130.982 45.7707C131.26 44.5395 131.736 43.1694 132.411 41.6603C133.126 40.1512 133.901 38.6619 134.735 37.1925C135.569 35.7231 136.383 34.3332 137.177 33.0226C137.971 31.6723 138.607 30.5405 139.083 29.6271C139.321 29.1505 139.679 28.4357 140.155 27.4826C140.672 26.4897 141.228 25.3778 141.823 24.1466C142.459 22.8758 143.114 21.5653 143.789 20.215C144.504 18.8647 145.159 17.574 145.755 16.3429C146.39 15.0721 146.946 13.9601 147.423 13.007C147.939 12.0141 148.317 11.2794 148.555 10.8029C149.786 9.53205 150.799 9.17463 151.593 9.73062C152.427 10.2866 153.162 11.4184 153.797 13.1261C154.432 14.8338 155.008 16.9386 155.525 19.4406C156.041 21.9425 156.597 24.5041 157.193 27.1251C157.788 29.7462 158.463 32.2482 159.218 34.631C159.972 37.0138 160.886 38.9399 161.958 40.4093C162.474 40.6476 163.09 40.3895 163.805 39.6349C164.559 38.8804 165.374 37.7882 166.247 36.3585C167.121 34.8891 168.034 33.1815 168.987 31.2355C169.941 29.2895 170.894 27.2443 171.847 25.0998C172.84 22.9552 173.793 20.7908 174.706 18.6066C175.62 16.4223 176.473 14.4168 177.268 12.59C178.062 10.7235 178.737 9.0952 179.293 7.70522C179.889 6.31525 180.346 5.34227 180.663 4.78628C180.941 4.27 181.219 4.03172 181.497 4.07144C181.815 4.07144 182.073 4.23029 182.272 4.548C182.47 4.82599 182.609 5.20327 182.689 5.67983C182.808 6.11668 182.808 6.51382 182.689 6.87124C181.418 10.3263 180.226 13.4438 179.114 16.2238C178.002 19.0037 176.851 21.6844 175.659 24.2658C174.508 26.8472 173.257 29.4881 171.906 32.1886C170.596 34.8494 169.087 37.8081 167.379 41.0646C166.108 42.6134 164.877 43.4871 163.686 43.6857C162.494 43.8445 161.263 42.9708 159.992 41.0646C158.682 38.7612 157.649 36.577 156.895 34.5119C156.14 32.4468 155.485 30.4214 154.929 28.4357C154.413 26.4103 153.936 24.3651 153.499 22.3C153.062 20.1951 152.526 17.9315 151.891 15.5089C151.533 15.2707 150.938 15.6876 150.104 16.7599C149.27 17.8322 148.297 19.2619 147.185 21.049C146.112 22.8361 144.981 24.8416 143.789 27.0656C142.598 29.2895 141.466 31.4341 140.394 33.4992C139.321 35.5643 138.368 37.411 137.534 39.0392C136.7 40.6675 136.105 41.7993 135.747 42.4347C135.549 42.7921 135.291 43.229 134.973 43.7453C134.695 44.2615 134.397 44.7778 134.079 45.2941C133.801 45.8104 133.543 46.2472 133.305 46.6046C133.106 46.9621 133.007 47.1408 133.007 47.1408H130.982C130.942 47.0613 130.922 46.8429 130.922 46.4855C130.922 46.1281 130.942 45.8898 130.982 45.7707Z" fill="#A9AFAD"/>
<path d="M220.964 52.6212C219.693 50.5958 218.422 48.7492 217.151 47.0812C215.92 45.4132 214.629 43.8048 213.279 42.256C211.929 40.6675 210.499 39.0789 208.99 37.4904C207.521 35.9018 205.912 34.214 204.165 32.4269C201.663 29.8058 199.578 27.8598 197.91 26.589C196.282 25.3182 194.912 24.5835 193.8 24.3849C192.727 24.1863 191.834 24.5041 191.119 25.338C190.404 26.1323 189.709 27.3237 189.034 28.9123C188.359 30.4611 187.644 32.3475 186.89 34.5714C186.135 36.7954 185.162 39.2179 183.971 41.839C183.573 42.673 183.117 43.646 182.6 44.758C182.124 45.8302 181.449 46.6642 180.575 47.2599C179.9 47.6968 179.602 47.4982 179.682 46.6642C179.761 45.7905 180.079 44.5594 180.635 42.9708C181.191 41.3823 181.886 39.5952 182.72 37.6095C183.593 35.5841 184.447 33.6382 185.281 31.7716C186.115 29.9051 186.85 28.2967 187.485 26.9464C188.121 25.5565 188.518 24.7026 188.677 24.3849C189.63 22.1212 190.603 20.0561 191.596 18.1896C192.588 16.2833 193.561 14.4168 194.515 12.59C195.507 10.7632 196.46 8.89663 197.374 6.99038C198.327 5.08413 199.201 2.97931 199.995 0.675928C200.352 0.437646 200.67 0.378076 200.948 0.497217C201.226 0.576644 201.464 0.735498 201.663 0.973779C201.862 1.21206 201.981 1.50991 202.02 1.86733C202.1 2.18504 202.1 2.46304 202.02 2.70132C201.782 3.17788 201.405 3.93244 200.889 4.96499C200.412 5.95783 199.896 7.01024 199.34 8.12222C198.823 9.19448 198.327 10.2469 197.85 11.2794C197.374 12.2723 197.016 13.0268 196.778 13.5431C196.699 13.7417 196.54 14.1587 196.302 14.7941C196.063 15.3898 195.984 15.8862 196.063 16.2833C197.215 16.5216 198.645 16.4223 200.352 15.9855C202.1 15.5486 203.966 14.9132 205.952 14.0792C207.977 13.2453 210.062 12.2921 212.207 11.2199C214.391 10.1079 216.456 9.01577 218.402 7.94351C220.388 6.87124 222.175 5.8784 223.764 4.96499C225.392 4.01187 226.702 3.29702 227.695 2.82046C228.648 2.3439 229.145 2.26447 229.184 2.58218C229.224 2.89989 229.006 3.37645 228.529 4.01187C228.092 4.64728 227.516 5.32241 226.802 6.03726C226.127 6.71239 225.531 7.18895 225.015 7.46694C224.617 7.70522 224.022 8.04279 223.227 8.47964C222.433 8.87677 221.599 9.29377 220.725 9.73062C219.852 10.1278 219.057 10.505 218.343 10.8625C217.628 11.2199 217.151 11.4383 216.913 11.5177C215.841 11.9943 214.49 12.5304 212.862 13.1261C211.234 13.7218 209.526 14.3572 207.739 15.0324C205.992 15.7075 204.244 16.4422 202.497 17.2365C200.789 17.991 199.32 18.7853 198.089 19.6193C197.771 19.8576 197.493 20.0958 197.255 20.3341C197.056 20.5327 196.877 20.7511 196.719 20.9894C196.599 21.2277 196.619 21.4461 196.778 21.6447C197.374 22.0021 198.287 22.7169 199.518 23.7892C200.75 24.8615 202.14 26.1323 203.688 27.6017C205.237 29.0711 206.865 30.6994 208.573 32.4865C210.321 34.2736 212.008 36.0805 213.637 37.9074C215.265 39.7342 216.754 41.5213 218.104 43.2687C219.455 45.0161 220.527 46.5848 221.321 47.9748C222.155 49.4044 222.632 50.5958 222.751 51.549C222.87 52.5021 222.493 53.0779 221.619 53.2765C221.54 53.2368 221.42 53.1375 221.262 52.9787C221.142 52.8198 221.043 52.7007 220.964 52.6212Z" fill="#A9AFAD"/>
</svg>
