<svg width="133" height="35" viewBox="0 0 133 35" fill="none" xmlns="http://www.w3.org/2000/svg">
<path d="M11.211 32.1258C10.8043 31.9632 10.3773 31.6582 9.92996 31.2108C9.52329 30.7635 9.27929 30.3772 9.19796 30.0518C8.99462 29.2385 8.77096 28.2422 8.52696 27.0628C8.28296 25.8835 8.03896 24.6228 7.79496 23.2808C7.55096 21.9388 7.30696 20.5765 7.06296 19.1938C6.85962 17.7705 6.65629 16.4285 6.45296 15.1678C6.24962 13.8665 6.08696 12.7075 5.96496 11.6908C5.84296 10.6742 5.76162 9.86083 5.72096 9.25083C5.72096 8.60016 5.94462 8.23416 6.39196 8.15283C7.44929 8.03083 8.20162 8.41716 8.64896 9.31183C8.85229 10.0438 9.07596 10.8775 9.31996 11.8128C9.56396 12.7482 9.80796 13.7648 10.052 14.8628C11.028 14.4968 11.9023 14.0292 12.675 13.4598C13.4476 12.8905 14.078 12.2805 14.566 11.6298C15.0946 10.9385 15.4606 10.2472 15.664 9.55583C15.908 8.82383 15.9486 8.11216 15.786 7.42083C15.5826 6.64816 15.0133 6.07883 14.078 5.71283C13.1426 5.34683 12.0853 5.16383 10.906 5.16383C9.27929 5.16383 7.81529 5.46883 6.51396 6.07883C5.25329 6.64817 4.09429 7.35983 3.03696 8.21383C2.54896 8.57983 2.02029 8.70183 1.45096 8.57983C0.840957 8.41717 0.43429 8.03083 0.230957 7.42083C0.230957 6.8515 0.332624 6.3635 0.535957 5.95683C0.73929 5.55016 1.00362 5.18416 1.32896 4.85883C2.58962 3.5575 4.07396 2.6425 5.78196 2.11383C7.53062 1.58517 9.36062 1.32083 11.272 1.32083C12.8173 1.32083 14.3016 1.56483 15.725 2.05283C17.189 2.54083 18.4293 3.41517 19.446 4.67583C19.934 5.48917 20.178 6.34317 20.178 7.23783C20.2186 8.1325 20.0966 9.00683 19.812 9.86083C19.5273 10.7148 19.1206 11.5282 18.592 12.3008C18.104 13.0735 17.5956 13.7445 17.067 14.3138C18.0836 14.2325 19.1206 14.3342 20.178 14.6188C21.2353 14.8628 22.1706 15.3102 22.984 15.9608C23.838 16.5708 24.5293 17.3842 25.058 18.4008C25.5866 19.4175 25.851 20.6375 25.851 22.0608C25.851 23.6875 25.485 25.1718 24.753 26.5138C24.0616 27.8558 23.1263 28.9945 21.947 29.9298C20.8083 30.8652 19.4866 31.5972 17.982 32.1258C16.518 32.6545 14.993 32.9188 13.407 32.9188C12.7156 32.9188 12.1666 32.7155 11.76 32.3088C11.5566 32.3088 11.3736 32.2478 11.211 32.1258ZM10.967 19.3158C11.2923 20.9018 11.5973 22.5488 11.882 24.2568C12.1666 25.9648 12.4716 27.6728 12.797 29.3808H13.041C13.9356 29.3808 14.9116 29.2182 15.969 28.8928C17.067 28.5675 18.0836 28.0998 19.019 27.4898C19.9543 26.8392 20.727 26.0665 21.337 25.1718C21.947 24.2365 22.2316 23.1995 22.191 22.0608C21.9876 21.0442 21.52 20.2715 20.788 19.7428C20.056 19.2142 19.1613 18.8685 18.104 18.7058C17.0873 18.5432 15.9486 18.5432 14.688 18.7058C13.468 18.8278 12.2276 19.0312 10.967 19.3158Z" fill="#A9AFAD"/>
<path d="M34.3933 6.99383C34.19 8.41717 34.007 10.0032 33.8443 11.7518C33.6817 13.4598 33.519 15.2085 33.3563 16.9978C33.1937 18.7465 33.031 20.4545 32.8683 22.1218C32.7463 23.7892 32.6447 25.2532 32.5633 26.5138C33.946 26.2698 35.471 25.9852 37.1383 25.6598C38.8463 25.3345 40.5747 25.0092 42.3233 24.6838C44.072 24.3178 45.78 24.0128 47.4473 23.7688C49.1553 23.4842 50.7007 23.2808 52.0833 23.1588C52.2053 23.1588 52.3477 23.1995 52.5103 23.2808C52.8357 23.4435 52.9983 23.7078 52.9983 24.0738C52.9983 24.6025 52.8967 25.0092 52.6933 25.2938C52.49 25.5378 52.246 25.7412 51.9613 25.9038C51.6767 26.0258 51.3717 26.1478 51.0463 26.2698C50.7617 26.3918 50.4973 26.5748 50.2533 26.8188C48.9927 27.1442 47.61 27.4898 46.1053 27.8558C44.6007 28.2218 43.0553 28.5878 41.4693 28.9538C39.8833 29.3198 38.2973 29.6858 36.7113 30.0518C35.1253 30.4178 33.641 30.7838 32.2583 31.1498C30.9977 31.4752 30.042 31.2515 29.3913 30.4788C28.7407 29.7062 28.4763 28.4455 28.5983 26.6968C28.8017 23.4028 29.0457 20.1088 29.3303 16.8148C29.615 13.4802 29.9607 10.1658 30.3673 6.87183C30.4487 6.1805 30.6723 5.61117 31.0383 5.16383C31.445 4.7165 31.933 4.45216 32.5023 4.37083C33.4377 4.24883 33.9867 4.49283 34.1493 5.10283C34.3527 5.67216 34.434 6.3025 34.3933 6.99383Z" fill="#A9AFAD"/>
<path d="M56.8094 31.5768C56.6061 32.2682 56.3417 32.8985 56.0164 33.4678C55.6911 33.9965 55.3454 34.3015 54.9794 34.3828C54.2067 34.5862 53.6171 34.4642 53.2104 34.0168C52.8037 33.5695 52.6411 33.0002 52.7224 32.3088C53.0477 29.8688 53.5764 27.3068 54.3084 24.6228C55.0404 21.8982 55.8944 19.1938 56.8704 16.5098C57.8464 13.7852 58.9037 11.1622 60.0424 8.64083C61.2217 6.07883 62.4214 3.76083 63.6414 1.68683C63.8447 1.3615 64.0684 1.1785 64.3124 1.13783C64.5971 1.0565 64.8411 1.0565 65.0444 1.13783C65.2477 0.975164 65.4917 0.832831 65.7764 0.71083C66.0611 0.588831 66.3457 0.527832 66.6304 0.527832C66.7524 0.527832 66.8744 0.548165 66.9964 0.588831C67.1591 0.629497 67.3217 0.751497 67.4844 0.95483C67.6471 1.15816 67.8301 1.46316 68.0334 1.86983C68.2774 2.23583 68.5621 2.78483 68.8874 3.51683C69.4567 5.59083 70.1074 7.72583 70.8394 9.92183C71.6121 12.1178 72.4051 14.3138 73.2184 16.5098C73.3404 16.4692 73.4421 16.4488 73.5234 16.4488C73.6454 16.4082 73.7674 16.3675 73.8894 16.3268C74.3367 16.2862 74.8451 16.3065 75.4144 16.3878C75.9837 16.4692 76.3701 16.7538 76.5734 17.2418C76.8174 17.8518 76.7767 18.3805 76.4514 18.8278C76.1261 19.2752 75.5364 19.7225 74.6824 20.1698C75.2111 21.4712 75.7397 22.7522 76.2684 24.0128C76.7971 25.2328 77.3461 26.4325 77.9154 27.6118C77.9561 27.8152 78.0171 28.1405 78.0984 28.5878C78.1797 28.9945 78.2204 29.4215 78.2204 29.8688C78.2611 30.2755 78.2407 30.6618 78.1594 31.0278C78.0781 31.3938 77.9154 31.6378 77.6714 31.7598C77.3867 31.8818 77.0817 31.8615 76.7564 31.6988C76.4717 31.5362 76.1871 31.3328 75.9024 31.0888C75.6177 30.8042 75.3534 30.5195 75.1094 30.2348C74.9061 29.9095 74.7434 29.6248 74.6214 29.3808C73.9301 28.0388 73.2591 26.6968 72.6084 25.3548C71.9984 23.9722 71.4087 22.5895 70.8394 21.2068C69.1314 21.5322 67.2607 21.8168 65.2274 22.0608C63.2347 22.3048 61.2624 22.4675 59.3104 22.5488C58.8631 24.0942 58.4157 25.6192 57.9684 27.1238C57.5617 28.5878 57.1754 30.0722 56.8094 31.5768ZM65.4714 5.95683C63.6007 10.1455 61.9741 14.3342 60.5914 18.5228C63.3161 18.4415 66.2237 18.0958 69.3144 17.4858C67.8504 13.7852 66.5694 9.94217 65.4714 5.95683Z" fill="#A9AFAD"/>
<path d="M104.387 6.56683C104.102 10.0235 103.757 13.5615 103.35 17.1808C102.984 20.7595 102.476 24.1348 101.825 27.3068C101.662 28.0795 101.439 28.6285 101.154 28.9538C100.869 29.2792 100.463 29.5028 99.934 29.6248C99.4867 29.7062 98.8564 29.5638 98.043 29.1978C97.2704 28.8318 96.6197 28.3032 96.091 27.6118C95.3997 26.6765 94.6474 25.6598 93.834 24.5618C93.0614 23.4232 92.2074 22.2845 91.272 21.1458C90.3774 19.9665 89.4217 18.8075 88.405 17.6688C87.429 16.5302 86.392 15.4728 85.294 14.4968C85.172 17.1808 85.0704 19.8445 84.989 22.4878C84.9077 25.0905 84.9077 27.7135 84.989 30.3568C84.989 30.7228 84.6637 30.9058 84.013 30.9058C83.2404 30.9058 82.61 30.5195 82.122 29.7468C81.634 28.9335 81.3494 28.1202 81.268 27.3068C81.146 26.4935 81.085 25.3345 81.085 23.8298C81.085 22.2845 81.1054 20.6782 81.146 19.0108C81.2274 17.3435 81.3087 15.7372 81.39 14.1918C81.4714 12.6465 81.5527 11.4265 81.634 10.5318C81.7154 9.55583 81.939 8.84416 82.305 8.39683C82.7117 7.9495 83.098 7.74616 83.464 7.78683C84.2774 7.86817 84.806 8.11216 85.05 8.51883C85.3347 8.88483 85.4974 9.3525 85.538 9.92183C87.002 10.9792 88.344 12.1178 89.564 13.3378C90.8247 14.5578 91.9634 15.7982 92.98 17.0588C94.0374 18.3195 94.993 19.5802 95.847 20.8408C96.7417 22.0608 97.5754 23.1792 98.348 24.1958C98.836 21.7558 99.2224 19.0312 99.507 16.0218C99.8324 13.0125 100.158 9.86083 100.483 6.56683C100.442 6.16016 100.686 5.77383 101.215 5.40783C101.744 5.00116 102.232 4.81816 102.679 4.85883C103.818 4.94017 104.387 5.5095 104.387 6.56683Z" fill="#A9AFAD"/>
<path d="M111.154 5.59083C111.358 6.9735 111.581 8.41716 111.825 9.92183C112.069 11.3858 112.313 12.9718 112.557 14.6798C114.428 13.5005 116.38 12.3212 118.413 11.1418C120.487 9.92183 122.419 8.94583 124.208 8.21383C124.371 8.17317 124.574 8.17317 124.818 8.21383C125.103 8.21383 125.388 8.27483 125.672 8.39683C125.957 8.47816 126.201 8.60016 126.404 8.76283C126.608 8.9255 126.75 9.12883 126.831 9.37283C126.913 9.6575 126.852 10.0438 126.648 10.5318C126.445 10.9792 126.221 11.2435 125.977 11.3248C125.489 11.6095 124.839 11.9958 124.025 12.4838C123.253 12.9312 122.419 13.4192 121.524 13.9478C120.67 14.4765 119.816 15.0052 118.962 15.5338C118.149 16.0625 117.458 16.5098 116.888 16.8758C119.206 18.1365 121.463 19.2142 123.659 20.1088C125.896 21.0035 128.255 21.7355 130.735 22.3048C130.979 22.3455 131.223 22.5082 131.467 22.7928C131.752 23.0368 131.976 23.3418 132.138 23.7078C132.301 24.0738 132.382 24.4398 132.382 24.8058C132.423 25.1718 132.342 25.4972 132.138 25.7818C131.894 26.1072 131.549 26.3105 131.101 26.3918C130.695 26.4325 130.268 26.4122 129.82 26.3308C126.73 25.5988 123.903 24.7042 121.341 23.6468C118.779 22.5488 116.095 21.2272 113.289 19.6818C113.493 21.4305 113.676 23.2402 113.838 25.1108C114.042 26.9815 114.225 28.9538 114.387 31.0278C114.387 31.4752 114.204 31.7395 113.838 31.8208C113.472 31.8615 113.066 31.8412 112.618 31.7598C112.171 31.6785 111.764 31.5362 111.398 31.3328C111.032 31.1295 110.809 30.9262 110.727 30.7228C110.483 28.8522 110.219 26.8798 109.934 24.8058C109.69 22.7318 109.406 20.6375 109.08 18.5228C108.755 16.3675 108.409 14.2528 108.043 12.1788C107.677 10.0642 107.311 8.05117 106.945 6.13983C106.864 5.6925 106.966 5.18416 107.25 4.61483C107.535 4.00483 108.064 3.65916 108.836 3.57783C109.121 3.57783 109.385 3.65916 109.629 3.82183C109.914 3.94383 110.158 4.12683 110.361 4.37083C110.605 4.57417 110.788 4.79783 110.91 5.04183C111.032 5.24517 111.114 5.42817 111.154 5.59083Z" fill="#A9AFAD"/>
</svg>
