<svg width="221" height="47" viewBox="0 0 221 47" fill="none" xmlns="http://www.w3.org/2000/svg">
<path d="M40.1118 12.824C40.231 14.7699 39.943 16.5471 39.248 18.1555C38.5729 19.7441 37.6099 21.1142 36.3589 22.2659C35.1079 23.4176 33.6286 24.3111 31.9209 24.9465C30.2331 25.5819 28.446 25.8897 26.5596 25.8699C28.029 25.8302 29.3991 26.0387 30.6699 26.4954C31.9606 26.9521 33.0924 27.5676 34.0654 28.342C35.0384 29.1165 35.8128 29.9902 36.3887 30.9631C36.9844 31.9361 37.312 32.919 37.3716 33.9119C37.4709 35.5997 37.2624 37.0492 36.7461 38.2605C36.2298 39.4718 35.4951 40.4944 34.542 41.3284C33.5889 42.1624 32.467 42.8375 31.1763 43.3538C29.9054 43.8502 28.5552 44.2374 27.1255 44.5154C25.7157 44.7934 24.286 44.982 22.8364 45.0813C21.3869 45.1806 20.0267 45.2402 18.7559 45.26C16.2142 45.2997 13.9108 45.3196 11.8457 45.3196C9.80046 45.3196 8.0332 45.3097 6.54395 45.2898C4.79655 45.2699 3.23779 45.2402 1.86768 45.2004C1.80811 43.4332 1.74854 41.6957 1.68896 39.988C1.66911 39.2533 1.63932 38.4988 1.59961 37.7244C1.57975 36.9301 1.5599 36.1458 1.54004 35.3713C1.52018 34.5969 1.50033 33.8523 1.48047 33.1375C1.46061 32.4028 1.44076 31.7276 1.4209 31.1121C1.38118 29.9802 1.33154 28.7094 1.27197 27.2996C1.2124 25.8897 1.15283 24.4203 1.09326 22.8914C1.03369 21.3425 0.974121 19.7838 0.914551 18.2151C0.85498 16.6265 0.79541 15.0976 0.73584 13.6282C0.596842 10.1731 0.457845 6.62866 0.318848 2.99487C1.58968 2.81616 3.17822 2.63745 5.08447 2.45874C6.71273 2.29989 8.7679 2.14103 11.25 1.98218C13.7321 1.80347 16.7007 1.65454 20.1558 1.5354C21.3472 1.49569 22.6577 1.5354 24.0874 1.65454C25.5171 1.75382 26.9468 1.96232 28.3765 2.28003C29.826 2.57788 31.2259 3.0048 32.5762 3.56079C33.9463 4.11678 35.1675 4.8217 36.2397 5.67554C37.3319 6.52938 38.2254 7.552 38.9204 8.74341C39.6154 9.91496 40.0125 11.2751 40.1118 12.824ZM32.04 14.2239C31.9408 12.8538 31.6528 11.6524 31.1763 10.6199C30.7196 9.58732 30.1139 8.70369 29.3594 7.96899C28.6048 7.21444 27.7311 6.59888 26.7383 6.12231C25.7454 5.64575 24.693 5.2784 23.5811 5.02026C22.4691 4.74227 21.3174 4.56356 20.126 4.48413C18.9346 4.38485 17.763 4.35506 16.6113 4.39478C16.2142 4.41463 15.5688 4.45435 14.6753 4.51392C13.7817 4.57349 12.8584 4.64299 11.9053 4.72241C10.8132 4.80184 9.62174 4.89119 8.33105 4.99048L9.16504 25.0657C9.93945 25.0061 10.8132 24.9465 11.7861 24.887C12.6201 24.8472 13.6229 24.7976 14.7944 24.738C15.966 24.6785 17.2666 24.6288 18.6963 24.5891C20.3643 24.5295 22.0124 24.331 23.6406 23.9934C25.2887 23.6558 26.7581 23.0999 28.0488 22.3254C29.3395 21.551 30.3522 20.5085 31.0869 19.198C31.8415 17.8875 32.1592 16.2294 32.04 14.2239ZM29.1807 34.4182C29.0814 32.9885 28.6644 31.8368 27.9297 30.9631C27.2148 30.0696 26.2915 29.3845 25.1597 28.908C24.0477 28.4314 22.7868 28.1137 21.377 27.9548C19.987 27.796 18.5672 27.7265 17.1177 27.7463C15.688 27.7463 14.298 27.8059 12.9478 27.925C11.5975 28.0243 10.4061 28.0938 9.37354 28.1335L10.0884 42.4006C10.9224 42.4602 11.8358 42.5198 12.8286 42.5793C13.6626 42.6191 14.6356 42.6488 15.7476 42.6687C16.8595 42.6886 18.041 42.6786 19.292 42.6389C20.543 42.5992 21.7741 42.4602 22.9854 42.2219C24.2165 41.9638 25.3086 41.5369 26.2617 40.9412C27.2148 40.3256 27.9595 39.5015 28.4956 38.469C29.0516 37.4166 29.2799 36.0663 29.1807 34.4182Z" fill="#A9AFAD"/>
<path d="M79.489 36.7117L79.072 45.2004L47.0232 45.3196L46.3679 3.05444L56.0481 1.77368C55.7304 4.87134 55.4126 8.05835 55.0949 11.3347C54.7971 14.5912 54.529 17.8875 54.2907 21.2234C54.0525 24.5395 53.8638 27.8456 53.7248 31.1418C53.5858 34.4381 53.5263 37.6648 53.5461 40.822V42.1624C54.5787 42.1226 55.8296 42.0531 57.299 41.9539C58.7684 41.8347 60.3371 41.6858 62.0051 41.5071C63.6731 41.3085 65.3708 41.0702 67.0984 40.7922C68.8458 40.4944 70.5038 40.1568 72.0725 39.7795C73.661 39.3824 75.1006 38.9356 76.3913 38.4392C77.682 37.9229 78.7146 37.3471 79.489 36.7117Z" fill="#A9AFAD"/>
<path d="M104.242 0.850342C106.942 0.850342 109.315 1.3269 111.36 2.28003C113.406 3.2133 115.173 4.48413 116.662 6.09253C118.151 7.68107 119.392 9.52775 120.385 11.6326C121.398 13.7175 122.202 15.9117 122.798 18.2151C123.393 20.4986 123.81 22.8219 124.049 25.1848C124.307 27.5279 124.436 29.7519 124.436 31.8567C124.436 33.7034 124.317 35.4706 124.079 37.1584C123.84 38.8463 123.582 40.3554 123.304 41.6858C122.967 43.2346 122.589 44.6941 122.172 46.0642L113.147 44.4558C113.723 43.0857 114.259 41.5269 114.756 39.7795C115.272 38.0321 115.729 36.245 116.126 34.4182C113.723 34.1998 111.321 34.0608 108.918 34.0012C106.535 33.9417 104.162 33.9119 101.799 33.9119C99.9526 33.9119 98.1059 33.9218 96.2592 33.9417C94.4125 33.9615 92.5559 34.031 90.6894 34.1501C91.0865 35.838 91.5532 37.5258 92.0893 39.2136C92.6254 40.9014 93.241 42.629 93.936 44.3962L84.5239 46.1238C84.087 45.2104 83.6899 44.148 83.3325 42.9368C83.0346 41.9042 82.7566 40.6532 82.4985 39.1838C82.2602 37.6946 82.1411 36.0167 82.1411 34.1501C82.1411 31.7078 82.2403 29.1959 82.4389 26.6145C82.6573 24.0133 83.0445 21.4815 83.6005 19.0193C84.1764 16.557 84.9706 14.2239 85.9833 12.0198C87.0159 9.81567 88.3463 7.88957 89.9745 6.24146C91.6227 4.57349 93.6083 3.26294 95.9316 2.30981C98.2747 1.33683 101.045 0.850342 104.242 0.850342ZM89.4086 22.0276C89.4086 23.6757 89.4682 25.2742 89.5873 26.823C89.7065 28.352 89.8951 29.8611 90.1533 31.3503C92.1389 31.4695 94.1147 31.539 96.0805 31.5588C98.0662 31.5787 100.072 31.5886 102.097 31.5886C104.5 31.5886 106.912 31.5787 109.335 31.5588C111.777 31.5191 114.23 31.4099 116.692 31.2312C117.049 29.0271 117.228 26.9521 117.228 25.0061C117.228 23.5963 117.119 22.0971 116.9 20.5085C116.702 18.92 116.374 17.3513 115.917 15.8025C115.461 14.2338 114.865 12.7346 114.13 11.3049C113.415 9.87524 112.532 8.62427 111.479 7.552C110.427 6.45988 109.206 5.59611 107.816 4.96069C106.446 4.30542 104.887 3.97778 103.14 3.97778C101.531 3.97778 100.082 4.23592 98.791 4.7522C97.5003 5.26847 96.3386 5.97339 95.3061 6.86694C94.2934 7.7605 93.4098 8.80298 92.6552 9.99438C91.9205 11.1659 91.3149 12.4268 90.8383 13.7771C90.3618 15.1075 90.0043 16.4776 89.7661 17.8875C89.5278 19.2973 89.4086 20.6773 89.4086 22.0276Z" fill="#A9AFAD"/>
<path d="M172.808 2.69702C172.808 2.69702 172.808 3.09416 172.808 3.88843C172.808 4.6827 172.788 5.77482 172.749 7.16479C172.729 8.55477 172.689 10.193 172.63 12.0793C172.57 13.9459 172.481 15.9713 172.361 18.1555C172.262 20.3398 172.133 22.6134 171.974 24.9763C171.815 27.3393 171.607 29.7022 171.349 32.0652C171.111 34.4083 170.833 36.7017 170.515 38.9456C170.197 41.1695 169.82 43.2346 169.383 45.1409L163.694 45.3792C162.701 43.8899 161.589 42.2021 160.358 40.3157C159.127 38.4293 157.836 36.4535 156.486 34.3884C155.156 32.3035 153.795 30.1887 152.405 28.0442C151.035 25.8798 149.715 23.7849 148.444 21.7595C145.446 17.0138 142.358 12.1191 139.181 7.07544C139.082 12.4765 139.012 17.6194 138.972 22.5042C138.952 24.5891 138.943 26.7138 138.943 28.8782C138.943 31.0426 138.943 33.1275 138.943 35.1331C138.962 37.1386 138.992 39.0051 139.032 40.7327C139.091 42.4602 139.161 43.9296 139.24 45.1409L132.896 45.9451C132.578 44.2771 132.31 42.3808 132.092 40.2561C131.874 38.1314 131.685 35.8975 131.526 33.5544C131.387 31.2113 131.278 28.8285 131.198 26.406C131.119 23.9636 131.059 21.5907 131.02 19.2874C130.94 13.9062 130.94 8.3562 131.02 2.63745L142.904 1.71411L164.2 38.6775C164.419 36.0961 164.548 33.3261 164.588 30.3674C164.627 27.3889 164.588 24.321 164.468 21.1638C164.369 18.0066 164.19 14.8097 163.932 11.573C163.674 8.33634 163.356 5.14933 162.979 2.01196L172.808 2.69702Z" fill="#A9AFAD"/>
<path d="M189.817 2.81616L188.059 28.7292C190.065 27.6371 192.001 26.3663 193.868 24.9167C195.734 23.4672 197.491 21.9283 199.14 20.3C200.807 18.6718 202.346 17.0138 203.756 15.3259C205.166 13.6182 206.407 11.9701 207.479 10.3816C208.571 8.79305 209.475 7.30379 210.19 5.91382C210.905 4.52384 211.391 3.32251 211.649 2.30981L220.257 4.51392C219.622 6.00317 218.689 7.6215 217.457 9.3689C216.226 11.0964 214.777 12.8637 213.109 14.6707C211.461 16.4776 209.634 18.2647 207.628 20.032C205.643 21.7992 203.568 23.4573 201.403 25.0061L219.781 44.3367L210.249 46.7791L197.859 27.3889C196.171 28.4413 194.483 29.3944 192.795 30.2483C191.127 31.0823 189.469 31.7773 187.821 32.3333L186.957 45.4983L180.851 45.6174V2.42896L189.817 2.81616Z" fill="#A9AFAD"/>
</svg>
