<svg width="136" height="43" viewBox="0 0 136 43" fill="none" xmlns="http://www.w3.org/2000/svg">
<path d="M0.204102 42.1409H4.25488V0.44165H0.204102V42.1409ZM7.11426 42.2004H13.3096C17.7575 42.2004 21.153 40.6119 23.4961 37.4348C25.0846 35.33 25.8789 32.8876 25.8789 30.1077C25.8392 26.3349 24.4095 23.3762 21.5898 21.2317C23.8932 19.524 25.2435 17.0618 25.6406 13.845C25.6803 13.3684 25.7002 12.8918 25.7002 12.4153C25.7002 8.84106 24.4691 5.90226 22.0068 3.59888C19.7035 1.49406 16.7448 0.44165 13.1309 0.44165H7.11426V4.13501H12.7139C16.5264 4.13501 19.1872 5.64412 20.6963 8.66235C21.3317 9.93319 21.6494 11.2437 21.6494 12.594C21.57 17.0816 19.068 19.3453 14.1436 19.385H7.11426V23.0188H14.1436C18.5518 23.0188 21.0736 24.7861 21.709 28.3206C21.7884 28.8368 21.8281 29.373 21.8281 29.929C21.8281 32.9075 20.6169 35.191 18.1943 36.7795C16.4072 37.9312 14.1237 38.5071 11.3438 38.5071H7.11426V42.2004Z" fill="#A9AFAD"/>
<path d="M29.3054 42.1409V0.44165H33.3562V38.1497H51.7038V42.1409H29.3054Z" fill="#A9AFAD"/>
<path d="M53.4028 42.1409L61.3852 6.7561H62.3979L63.8276 13.3684L57.394 42.1409H53.4028ZM61.8022 34.9329L62.6362 31.0012H70.559L63.8276 0.501221H67.8784L77.1713 42.1409H73.1205L71.5717 34.9329H61.8022Z" fill="#A9AFAD"/>
<path d="M80.0617 42.1409V8.3645H80.5382L84.1125 14.1428V42.1409H80.0617ZM80.0617 3.00317V0.44165H83.6359L106.57 37.0774V42.1409H104.545L80.0617 3.00317ZM102.52 25.6995V0.44165H106.57V31.5969H106.094L102.52 25.6995Z" fill="#A9AFAD"/>
<path d="M110.295 42.1409V0.44165H114.346V42.1409H110.295ZM116.907 21.8274L131.264 0.44165H135.731L121.434 21.8274L135.97 42.1409H131.502L116.907 21.8274Z" fill="#A9AFAD"/>
</svg>
