<svg width="139" height="42" viewBox="0 0 139 42" fill="none" xmlns="http://www.w3.org/2000/svg">
<path d="M9.07802 41.0188C14.69 41.0188 18.7974 40.0835 21.4 38.2128C24.0434 36.3015 25.365 33.1905 25.365 28.8798C25.365 26.1145 24.8364 23.8982 23.779 22.2308C23.0877 21.2142 22.254 20.3195 21.278 19.5468C20.302 18.7335 19.3667 18.2658 18.472 18.1438C20.3834 16.4358 21.339 13.7722 21.339 10.1528C21.339 7.42816 20.8104 5.33382 19.753 3.86982C18.6957 2.36516 16.8657 1.32816 14.263 0.758821C13.2463 0.514822 11.7824 0.392822 9.87102 0.392822C7.95968 0.392822 6.49568 0.657156 5.47902 1.18582C3.44568 2.28382 2.08335 3.74782 1.39202 5.57782C0.741349 7.28582 0.416016 9.90882 0.416016 13.4468V17.7778C0.456682 31.2792 0.721016 38.9652 1.20902 40.8358L9.07802 41.0188ZM5.23502 9.17682L5.41802 8.13982C5.49935 7.73316 5.60102 7.42816 5.72302 7.22482C5.84502 7.02149 6.00768 6.83849 6.21102 6.67583C6.41435 6.47249 6.55668 6.33016 6.63802 6.24882C7.41068 5.47616 8.89502 5.08982 11.091 5.08982C12.921 5.08982 14.3444 5.53716 15.361 6.43182C16.4184 7.28582 16.947 8.60749 16.947 10.3968C16.947 14.0975 14.8934 16.4358 10.786 17.4118C9.15935 17.7372 8.06135 17.9405 7.49202 18.0218C6.35335 18.1845 5.66202 18.2658 5.41802 18.2658L5.29602 11.3118L5.23502 9.17682ZM5.23502 23.3288C8.93568 22.8002 11.6603 22.5358 13.409 22.5358C15.0357 22.5358 16.276 22.7188 17.13 23.0848C17.9027 23.4102 18.533 23.8168 19.021 24.3048C19.4277 24.6708 19.753 25.2198 19.997 25.9518C20.241 26.6838 20.363 27.3142 20.363 27.8428L20.424 29.3068C20.424 30.8115 20.0783 32.0315 19.387 32.9668C18.7363 33.8208 17.4553 34.5935 15.544 35.2848C13.6733 35.8948 10.3387 36.1998 5.54002 36.1998C5.33668 33.6785 5.23502 29.3882 5.23502 23.3288Z" fill="#A9AFAD"/>
<path d="M28.466 37.8468C28.5473 39.4735 28.71 40.3885 28.954 40.5918C29.4827 40.9985 33.2443 41.2018 40.239 41.2018C41.6623 41.2018 42.7807 41.1612 43.594 41.0798C44.448 40.9578 45.2817 40.6935 46.095 40.2868C47.1523 39.7175 47.681 38.9042 47.681 37.8468C47.681 36.4642 46.7253 35.7728 44.814 35.7728L36.03 36.3828C35.298 36.3828 34.5863 36.2812 33.895 36.0778C33.4883 35.7932 33.285 34.1258 33.285 31.0758V24.6098C33.285 23.6745 33.5087 19.8518 33.956 13.1418L34.688 2.89382C34.688 1.51116 33.712 0.819824 31.76 0.819824C30.9467 0.819824 30.2757 0.962157 29.747 1.24682C29.2183 1.53149 28.954 1.91782 28.954 2.40582L28.405 27.9038L28.344 32.6618L28.466 37.8468Z" fill="#A9AFAD"/>
<path d="M63.9723 0.941822C61.8983 0.941822 59.987 2.67016 58.2383 6.12682C56.7743 8.93283 54.985 14.4025 52.8703 22.5358C50.715 30.8318 49.6373 36.4235 49.6373 39.3108C49.6373 40.4902 50.3286 41.0798 51.7113 41.0798C53.094 41.0798 53.8666 40.6935 54.0293 39.9208C55.3306 30.6895 56.327 25.7485 57.0183 25.0978C57.181 24.9352 57.7096 24.8538 58.6043 24.8538C59.2956 24.8538 61.1053 25.0165 64.0333 25.3418C66.7986 25.6672 68.4253 25.9722 68.9133 26.2568C69.2386 26.4602 69.8893 29.1442 70.8653 34.3088L71.7803 39.0058C71.943 39.7785 72.2683 40.3478 72.7563 40.7138C73.285 41.0392 73.8746 41.2018 74.5253 41.2018C75.5826 41.2018 76.2333 40.9578 76.4773 40.4698C76.7213 39.9412 76.8026 39.4532 76.7213 39.0058C74.2813 24.8945 71.7803 14.5042 69.2183 7.83482C68.161 5.15082 67.2663 3.30049 66.5343 2.28382C65.8836 1.38916 65.0296 0.941822 63.9723 0.941822ZM63.7283 7.71282C64.4196 7.71282 65.3143 9.68516 66.4123 13.6298C67.5103 17.5338 68.0593 19.7705 68.0593 20.3398C68.0593 20.8278 68.0186 21.1532 67.9373 21.3158C67.856 21.3972 67.551 21.4378 67.0223 21.4378C65.8836 21.4378 64.2976 21.3158 62.2643 21.0718C60.0276 20.8278 58.7466 20.5432 58.4213 20.2178C58.34 20.1365 58.2993 19.9942 58.2993 19.7908C58.2993 18.8962 59.0516 16.6798 60.5563 13.1418C62.1016 9.52249 63.159 7.71282 63.7283 7.71282Z" fill="#A9AFAD"/>
<path d="M106.689 3.44282C106.689 2.62949 106.384 1.97882 105.774 1.49082C105.164 1.00282 104.493 0.758821 103.761 0.758821C103.273 0.758821 102.867 0.880822 102.541 1.12482C101.769 1.61282 101.382 3.60549 101.382 7.10282L102.114 32.4178C101.667 31.4825 100.162 28.6968 97.6004 24.0608C95.1198 19.5062 93.4118 16.5172 92.4764 15.0938C87.8811 7.77382 84.4651 4.11382 82.2284 4.11382C81.7404 4.11382 81.2728 4.29682 80.8254 4.66282C80.3781 5.02882 80.1544 6.67582 80.1544 9.60382V13.0808C80.1544 14.3822 79.9918 18.9368 79.6665 26.7448C79.3818 33.5768 79.2394 37.6028 79.2394 38.8228C79.2394 39.5142 79.4428 40.0428 79.8494 40.4088C80.2561 40.7342 80.8051 40.8968 81.4965 40.8968C82.8791 40.8968 83.6314 40.4088 83.7534 39.4328C84.4854 34.3088 84.8514 25.1385 84.8514 11.9218C87.6168 15.3785 90.6058 20.0348 93.8185 25.8908L96.9295 31.8078L97.5395 32.9058C97.8241 33.4752 98.1088 34.0445 98.3934 34.6138C98.7188 35.1832 98.9831 35.7118 99.1865 36.1998L99.9794 37.6638C100.63 38.8432 101.057 39.5345 101.26 39.7378L101.87 40.3478C102.196 40.6732 102.541 40.8968 102.907 41.0188C103.314 41.1002 103.924 41.1408 104.737 41.1408C105.347 41.1408 105.896 40.7545 106.384 39.9818C106.872 39.1685 107.116 38.3145 107.116 37.4198L106.872 32.3568C106.75 28.9815 106.689 19.3435 106.689 3.44282Z" fill="#A9AFAD"/>
<path d="M112.437 38.9448C112.356 40.3682 112.905 41.0798 114.084 41.0798C115.996 41.0798 117.073 39.7582 117.317 37.1148C117.399 35.8135 117.439 34.5325 117.439 33.2718C117.439 31.5232 117.378 29.2458 117.256 26.4398C118.436 25.5858 120.144 24.0608 122.38 21.8648C124.739 24.5082 126.894 27.4362 128.846 30.6488L133.604 38.3348C134.702 40.1242 135.597 41.0188 136.288 41.0188C136.98 41.0188 137.549 40.7545 137.996 40.2258C138.444 39.6565 138.667 38.9245 138.667 38.0298C138.667 36.8505 138.301 35.6508 137.569 34.4308L136.288 32.2958L135.068 30.2828C132.588 25.7688 129.66 21.8242 126.284 18.4488C128.887 15.4395 131.307 12.3488 133.543 9.17682C135.861 5.92349 137.02 3.66649 137.02 2.40582C137.02 1.91782 136.797 1.51116 136.349 1.18582C135.943 0.819823 135.414 0.636823 134.763 0.636823C133.543 0.636823 132.588 1.18582 131.896 2.28382C129.538 6.14716 127.403 9.21749 125.491 11.4948C123.255 14.1382 120.428 17.0255 117.012 20.1568C116.809 12.2268 116.402 6.37082 115.792 2.58882C115.508 1.36882 114.857 0.758821 113.84 0.758821C113.068 0.758821 112.376 1.10449 111.766 1.79582C111.156 2.44649 110.851 3.21916 110.851 4.11382C111.136 5.94382 111.461 10.6815 111.827 18.3268C112.234 25.4028 112.437 30.6895 112.437 34.1868V38.9448Z" fill="#A9AFAD"/>
</svg>
