<svg width="164" height="44" viewBox="0 0 164 44" fill="none" xmlns="http://www.w3.org/2000/svg">
<path d="M9.79906 43.1409H0.0390625V0.440882H7.48106C12.8491 0.440882 16.8954 1.43722 19.6201 3.42988C22.3447 5.38188 23.7071 8.14722 23.7071 11.7259C23.7071 15.7926 21.9991 18.7815 18.5831 20.6929C23.5444 22.5635 26.0251 26.0812 26.0251 31.2459C26.0251 34.9059 24.6831 37.8135 21.9991 39.9689C19.3151 42.0836 15.2484 43.1409 9.79906 43.1409ZM9.79906 41.3109C11.7104 41.3109 13.4591 41.1686 15.0451 40.8839C16.6311 40.5586 18.1357 40.0502 19.5591 39.3589C21.0231 38.6269 22.1617 37.5696 22.9751 36.1869C23.7884 34.8042 24.1951 33.1572 24.1951 31.2459C24.1951 26.8946 22.1007 23.9462 17.9121 22.4009L14.2521 21.0589L17.6681 19.1069C20.4741 17.5616 21.8771 15.1012 21.8771 11.7259C21.8771 5.42255 17.0784 2.27088 7.48106 2.27088H1.86906V41.3109H9.79906Z" fill="#A9AFAD"/>
<path d="M59.6423 41.3109V43.1409H34.1443V0.440882H35.9743V41.3109H59.6423Z" fill="#A9AFAD"/>
<path d="M66.4881 41.3109H88.9361L76.0041 5.74788L62.4011 43.1409H60.4491L76.0041 0.379883L91.5591 43.1409H66.4881V41.3109Z" fill="#A9AFAD"/>
<path d="M102.228 41.3109H121.138L99.2999 3.55188V43.1409H97.4699V0.440882H99.6049L122.419 39.9079V0.440882H124.249V43.1409H102.228V41.3109Z" fill="#A9AFAD"/>
<path d="M136.92 0.440882V43.1409H135.09V0.440882H136.92ZM161.991 0.440882L141.495 20.8149L163.943 43.1409H161.32L138.872 20.8149L159.368 0.440882H161.991Z" fill="#A9AFAD"/>
</svg>
