<svg width="338" height="100" viewBox="0 0 338 100" fill="none" xmlns="http://www.w3.org/2000/svg">
<g clip-path="url(#clip0_198_85)">
<mask id="mask0_198_85" style="mask-type:alpha" maskUnits="userSpaceOnUse" x="93" y="29" width="151" height="41">
<path d="M122.658 39.9076C122.658 35.4459 120.718 29.0857 109.031 29.0857H93.7012L93.7012 34.7813H107.895C114.993 34.7813 117.358 36.0154 117.358 39.9549L117.358 40.7619C117.358 44.7489 116.365 46.3627 109.268 46.3627L109.268 51.6313C115.229 51.6313 117.358 53.6248 117.358 57.2321L117.358 57.9915C117.358 61.6463 114.046 63.26 107.895 63.26H99.4262L99.4262 57.5644H93.7485L93.7485 68.9558H109.22C121.191 68.9558 122.847 62.5006 122.847 58.0864L122.847 57.2321C122.965 55.6564 122.704 54.0753 122.087 52.6216C121.469 51.168 120.513 49.8842 119.298 48.8783C120.496 47.9217 121.445 46.6878 122.063 45.2824C122.681 43.8769 122.95 42.342 122.847 40.8094L122.658 39.9076Z" fill="#231F20"/>
<path d="M136.284 63.2601L136.284 29.0857H130.606L130.606 68.9559H154.264L154.264 63.2601H136.284Z" fill="#231F20"/>
<path d="M206.215 29.0857L206.215 68.9558H197.793L191.831 57.3745H179.529L177.59 51.8212H188.945L186.532 47.1222L180.145 34.7339H178.299L177.306 37.5818L174.467 45.6508L166.329 69.0033H160.462L174.325 29.0857H182.936L200.584 63.3076L200.584 29.0857H206.215Z" fill="#231F20"/>
<path d="M243.546 29.0857H236.165L220.315 49.0207L236.165 68.9559H243.546L227.696 49.0207L243.546 29.0857ZM214.211 29.0857L214.211 68.9559H219.889L219.889 29.0857H214.211Z" fill="#231F20"/>
</mask>
<g mask="url(#mask0_198_85)">
<rect x="84.232" y="19.6518" width="171.765" height="58.8235" rx="29.4118" fill="#F9FCFF"/>
</g>
</g>
<path d="M335.096 -1.61967L287.904 100H291.904L339.096 -1.61967H335.096ZM2.90411 100L50.0959 -1.61967H46.0959L-1.09589 100H2.90411Z" fill="#1CA877" mask="url(#path-1-inside-1_198_85)"/>
<defs>
<clipPath id="clip0_198_85">
<rect width="150" height="40" fill="white" transform="translate(93.6437 29.0636)"/>
</clipPath>
</defs>
</svg>
